<svg width="45" height="24" viewBox="0 0 45 24" fill="none" xmlns="http://www.w3.org/2000/svg">
<g id="Group 427318596" filter="url(#filter0_d_5409_80)">
<path id="Vector" d="M23.5884 10.9193C21.7792 10.0976 21.0009 9.86513 19.247 11.0655L19.6802 12.0151C21.2729 10.597 21.4919 10.6602 23.1561 11.8961C23.3043 11.6352 23.4677 11.2066 23.5884 10.9193Z" fill="#354F52"/>
<path id="Vector_2" d="M41.1185 3.78239C37.4636 -1.26814 30.0826 -1.26934 28.0067 3.83047C27.651 4.31457 27.2867 5.21211 27.0802 5.78767C25.814 9.37928 26.0521 13.3111 27.7434 16.7334C28.7332 18.7003 30.3676 20.6325 32.564 21.3384C34.1881 21.8506 35.9562 21.6997 37.4636 20.9204C39.9074 19.6672 41.4882 17.0625 42.267 14.5614C43.3768 10.9632 42.9633 7.08305 41.1185 3.78239Z" fill="white"/>
<path id="Vector_3" d="M15.1172 4.49821C14.196 2.55187 10.6169 0.725476 8.82862 0.789319C6.14003 0.898972 2.74245 2.05793 1.04833 4.73343C-1.08235 10.0743 -0.218349 18.9176 6.00044 21.2489C7.53697 21.8191 9.24292 21.7762 10.747 21.1297C16.6034 18.5969 17.5496 9.63585 15.1172 4.49821Z" fill="white"/>
<g id="eyes">
<path id="right-eyes" d="M36.0455 6.98095C35.1857 6.02669 33.7471 5.42515 32.8856 6.37787C32.7853 6.48884 32.6892 6.60687 32.5953 6.73005C31.9974 7.51455 31.688 8.48773 31.6163 9.47146C31.5546 10.3198 31.5141 11.0906 31.5551 11.8134C31.7451 15.1638 36.597 15.8139 36.9579 12.4776C37.067 11.469 37.0192 10.3833 36.9627 9.34609C36.9149 8.46866 36.6337 7.63377 36.0455 6.98095Z" fill="#3A3737"/>
<path id="left-eyes" d="M8.59575 7.50747C7.74643 6.10964 5.82788 6.004 4.87806 7.33559C4.45829 7.92408 4.19626 8.68627 4.16274 9.40836C4.13942 9.9106 4.11933 10.3847 4.11539 10.8361C4.08182 14.6803 9.64458 14.8105 9.59915 10.9664C9.58508 9.77563 9.24741 8.58 8.59575 7.50747Z" fill="#3A3737"/>
</g>
</g>
<defs>
<filter id="filter0_d_5409_80" x="0" y="0" width="44.8779" height="23.6476" filterUnits="userSpaceOnUse" color-interpolation-filters="sRGB">
<feFlood flood-opacity="0" result="BackgroundImageFix"/>
<feColorMatrix in="SourceAlpha" type="matrix" values="0 0 0 0 0 0 0 0 0 0 0 0 0 0 0 0 0 0 127 0" result="hardAlpha"/>
<feOffset dx="2" dy="2"/>
<feComposite in2="hardAlpha" operator="out"/>
<feColorMatrix type="matrix" values="0 0 0 0 0.773306 0 0 0 0 0.773306 0 0 0 0 0.773306 0 0 0 0.25 0"/>
<feBlend mode="normal" in2="BackgroundImageFix" result="effect1_dropShadow_5409_80"/>
<feBlend mode="normal" in="SourceGraphic" in2="effect1_dropShadow_5409_80" result="shape"/>
</filter>
</defs>
</svg>
