<svg width="51" height="6" fill="none" xmlns="http://www.w3.org/2000/svg" xmlns:xlink="http://www.w3.org/1999/xlink"><use xlink:href="#a" transform="rotate(-66.559 3.568 2.497) scale(.0042)"/><use xlink:href="#a" transform="matrix(.00166 -.00405 .00405 .00166 .426 4.721)"/><use xlink:href="#a" transform="matrix(.00161 .00444 -.00444 .00161 2.608 3.27)"/><use xlink:href="#a" transform="rotate(-115.271 2.828 1.923) scale(.0051)"/><use xlink:href="#a" transform="matrix(.00183 .00517 -.00517 .00183 4.158 2.91)"/><use xlink:href="#a" transform="rotate(-85.529 4.216 .666) scale(.00589)"/><use xlink:href="#a" transform="matrix(-.00552 .00305 -.00305 -.00552 6.645 4.338)"/><use xlink:href="#a" transform="rotate(-24.683 9.37 -9.12) scale(.00673)"/><use xlink:href="#a" transform="matrix(-.0061 -.00377 .00377 -.0061 7.454 5.296)"/><use xlink:href="#a" transform="matrix(-.00006 .0076 -.0076 -.00006 9.573 2.27)"/><use xlink:href="#a" transform="rotate(-151.027 5.558 1.354) scale(.00804)"/><use xlink:href="#a" transform="rotate(154.698 5.747 3.397) scale(.00847)"/><use xlink:href="#a" transform="rotate(31.397 3.907 20.717) scale(.00889)"/><use xlink:href="#a" transform="matrix(-.00398 .0084 -.0084 -.00398 15.21 2.33)"/><use xlink:href="#a" transform="matrix(-.0077 .00586 -.00586 -.0077 16.719 3.275)"/><use xlink:href="#a" transform="rotate(49.046 7.72 17.873) scale(.01003)"/><use xlink:href="#a" transform="matrix(-.0103 -.00102 .00102 -.0103 18.794 4.602)"/><use xlink:href="#a" transform="matrix(.00067 -.0106 .0106 .00067 16.837 4.072)"/><use xlink:href="#a" transform="matrix(.0082 .0071 -.0071 .0082 20.335 -.215)"/><use xlink:href="#a" transform="rotate(-153.644 11.902 -.232) scale(.01102)"/><use xlink:href="#a" transform="rotate(-75.094 12.821 -12.06) scale(.01114)"/><use xlink:href="#a" transform="matrix(.0096 .00575 -.00575 .0096 24.654 -.494)"/><use xlink:href="#a" transform="matrix(-.01069 -.00333 .00333 -.01069 27.907 4.533)"/><use xlink:href="#a" transform="matrix(.00055 -.01112 .01112 .00055 26.326 3.74)"/><use xlink:href="#a" transform="rotate(76.793 15.839 19.81) scale(.01101)"/><use xlink:href="#a" transform="rotate(-23.649 16.895 -69.292) scale(.01083)"/><use xlink:href="#a" transform="matrix(.00764 -.00734 .00734 .00764 30.587 1.862)"/><use xlink:href="#a" transform="matrix(-.00722 .00735 -.00735 -.00722 37.104 2.195)"/><use xlink:href="#a" transform="matrix(-.00508 .00858 -.00858 -.00508 38.442 1.672)"/><use xlink:href="#a" transform="matrix(-.0023 .00933 -.00933 -.0023 39.541 1.132)"/><use xlink:href="#a" transform="matrix(-.00021 -.0092 .0092 -.00021 37.257 3.831)"/><use xlink:href="#a" transform="matrix(-.00648 .00592 -.00592 -.00648 42.257 2.64)"/><use xlink:href="#a" transform="rotate(-135.667 21.585 -6.13) scale(.00833)"/><use xlink:href="#a" transform="rotate(-155.007 22.051 -2.512) scale(.00787)"/><use xlink:href="#a" transform="matrix(-.00427 -.00605 .00605 -.00427 43.239 4.627)"/><use xlink:href="#a" transform="rotate(105.37 22.18 18.754) scale(.00694)"/><use xlink:href="#a" transform="rotate(-18.758 29.686 -132.493) scale(.00648)"/><use xlink:href="#a" transform="rotate(-42.784 26.814 -55.806) scale(.00603)"/><use xlink:href="#a" transform="rotate(166.854 23.929 5.054) scale(.00559)"/><use xlink:href="#a" transform="rotate(-139.6 24.99 -6.242) scale(.00517)"/><use xlink:href="#a" transform="matrix(.00448 -.00162 .00162 .00448 47.7 3.668)"/><use xlink:href="#a" transform="matrix(.00018 .00438 -.00438 .00018 50.065 3.724)"/><defs><path d="M188.25 354.718c.688-.246 1.595-.253 2.016-.014 1.142.647-.169 2.296-1.825 2.296-1.769 0-1.909-1.666-.191-2.282Zm7.5-11.972c2.396-.548 2.984.152 3.783 4.504.459 2.497.318 3.75-.422 3.75a1.112 1.112 0 0 1-1.111-1.107c0-.609-.683-.845-1.517-.525-1.484.57-5.482-2.049-5.483-3.59 0-.428.675-.778 1.5-.778s1.5-.417 1.5-.927c0-.509.788-1.107 1.75-1.327ZM202 341.1c0-1.167.267-1.233 1.2-.3.66.66 2.07 1.2 3.133 1.2 4.114 0 6.921 5.35 3.417 6.514-5.572 1.85-8.975.667-6.535-2.273.803-.968.788-1.638-.057-2.483-.637-.637-1.158-1.833-1.158-2.658Zm44 .793c.001-1.252 2.743-1.116 3.541.174.363.586.454 1.272.202 1.523-.697.698-3.743-.683-3.743-1.697ZM182.059 341c1.074 0 1.252 1.355.302 2.306-.924.924-2.501-.27-1.818-1.375.316-.512.998-.931 1.516-.931Zm10.497-17.09c.747-1.209 1.602-1.106 3.628.434 2.508 1.906 3.259 6.043 1.38 7.603-.86.714-1.579 1.805-1.597 2.425-.054 1.819-3.652 5.627-5.318 5.628-.842 0-1.809.45-2.149 1-1.097 1.774-2.654 1.062-2.024-.926.364-1.144.047-2.26-.78-2.75-.943-.558-1.244-2.035-.935-4.574.456-3.734 1.877-4.712 3.903-2.686 1.41 1.41 4.666-1.758 3.89-3.783-.308-.804-.307-1.871.002-2.371ZM211.5 341c.275 0 .5.225.5.5s-.225.5-.5.5a.501.501 0 0 1-.5-.5c0-.275.225-.5.5-.5Zm-13-2c.275 0 .5.225.5.5s-.225.5-.5.5a.501.501 0 0 1-.5-.5c0-.275.225-.5.5-.5Zm-18-4c.275 0 .5.225.5.5s-.225.5-.5.5a.501.501 0 0 1-.5-.5c0-.275.225-.5.5-.5Zm31.117-5c.21.001.383.9.383 2s-.408 2-.906 2c-.499 0-.671-.9-.384-2 .288-1.1.696-2 .907-2Zm3.383 2c.733 0 1.033.3.667.667a.948.948 0 0 1-1.334 0c-.366-.367-.066-.667.667-.667Zm-10.5-3c.825 0 1.5.45 1.5 1s-.675 1-1.5 1-1.5-.45-1.5-1 .675-1 1.5-1Zm3.5 1c.733 0 1.033.3.667.667a.948.948 0 0 1-1.334 0c-.366-.367-.066-.667.667-.667Zm-29-4c2.293 0 2.685 1.523.598 2.324-1.472.565-2.598-.082-2.598-1.491 0-.458.9-.833 2-.833Zm-29.333-8.333c1.062-1.062 8.333-.771 8.333.333 0 .55-.45 1-1 1s-1 .675-1 1.5.48 1.5 1.066 1.5c1.478.001.726 5.249-.824 5.759-.754.248-1.504-.817-1.872-2.661-.528-2.639-.952-2.99-2.993-2.478-2.354.591-3.612-3.051-1.71-4.953Zm-51.702.875c1.679-2.022 6.035-2.035 6.035-.017-.001 1.949-4.932 3.943-6.32 2.555-.66-.66-.564-1.515.285-2.538ZM173.5 319c.275 0 .5.225.5.5s-.225.5-.5.5a.501.501 0 0 1-.5-.5c0-.275.225-.5.5-.5Zm30.5-2c.55 0 1 .45 1 1s-.45 1-1 1-1-.45-1-1 .45-1 1-1Zm33.5 1c.275 0 .5.225.5.5s-.225.5-.5.5a.501.501 0 0 1-.5-.5c0-.275.225-.5.5-.5Zm-112.348-6.129c2.184-1.407 4.242-.536 5.645 2.391.722 1.505 1.738 2.738 2.258 2.738s.945.48.945 1.067c-.001 1.231-4.163.188-5.106-1.279-.335-.518-1.443-.795-2.464-.615-2.253.397-3.268-3.02-1.278-4.302Zm35.454 4.545c-.373-.973-.15-1.43.581-1.187 1.494.498 2.318 2.771 1.003 2.771-.537 0-1.249-.713-1.584-1.584ZM198.441 288c1.879 0 2.893 1.676 1.526 2.52-.654.405-.022 1.626 1.638 3.165 2.823 2.615 2.79 2.718-1.743 5.324-1.969 1.132-3.142 8.312-1.238 7.582 1.403-.538 3.69 1.761 2.719 2.733-.353.352-1.649.386-2.882.077-2.566-.644-4.234 1.226-2.574 2.886 1.33 1.33 1.493 5.713.213 5.713-.496-.001-1.454-2.308-2.131-5.128-.814-3.395-1.83-5.284-3.007-5.592-2.201-.576-3.265-4.21-1.763-6.02 1.689-2.035-.585-4.015-2.646-2.304-.842.699-1.284 1.67-.983 2.157.301.488.124.887-.395.887-.518 0-.806 2.022-.64 4.491.312 4.624-1.26 7.276-2.195 3.702-.613-2.344-4.428-3.668-5.513-1.914-.53.859-1.052.896-1.818.13-1.461-1.461-.191-4.409 1.9-4.409 1.13 0 2.3-1.679 3.505-5.03 1.471-4.091 2.068-4.815 3.197-3.878 1.105.917 1.389.753 1.389-.801 0-3.65 4.312-4.86 7.891-2.214 3.709 2.743 3.788 3.222.859 5.192-2.774 1.865-1.737 3.33 1.232 1.741 1.474-.789 2.099-1.999 1.98-3.832-.096-1.473-.126-3.69-.068-4.928.059-1.243.751-2.25 1.547-2.25ZM231 314c.55 0 1 .45 1 1s-.45 1-1 1-1-.45-1-1 .45-1 1-1Zm-28.5 0c.275 0 .5.225.5.5s-.225.5-.5.5a.501.501 0 0 1-.5-.5c0-.275.225-.5.5-.5Zm35.043-1.069c.75-1.215 3.457-1.207 3.457.01 0 1.35-1.823 2.286-3.016 1.549-.559-.346-.758-1.047-.441-1.559Zm14.01-.016a1.116 1.116 0 0 1 1.532-.362c.521.322.684 1.011.362 1.532a1.116 1.116 0 0 1-1.532.362 1.116 1.116 0 0 1-.362-1.532ZM181.25 54.1c1.159-.155.886 3.709-.408 5.78-1.488 2.384-.369 5.323 1.901 4.992 4.558-.663 8.476 2.954 6.188 5.711-1.657 1.996-.271 3.339 4.181 4.05 2.988.479 3.853 1.016 3.425 2.13-.314.82-.059 2.108.568 2.864C198.411 81.199 205 81.51 205 80c0-.55-.9-1-2-1-1.149 0-2-.667-2-1.567 0-1.1.583-1.383 1.949-.949 1.235.392 2.651-.083 3.863-1.295 4.314-4.313 13.188-3.08 13.188 1.834 0 .867.501 2.078 1.113 2.69 1.351 1.35.332 3.287-1.731 3.287-.825 0-1.222.45-.882 1 .34.55 1.491 1 2.559 1s1.941.509 1.941 1.13c0 .727 1.21.935 3.382.583 1.961-.318 3.869-.062 4.542.611.879.879 1.365.826 2.012-.22.694-1.123 1.26-.998 3.049.668 2.797 2.606 2.295 5.638-.995 6.008-6.066.682-6.654 1.071-6.733 4.447-.19 8.105 1.086 9.514 8.25 9.114 6.106-.341 6.482-.233 7.051 2.035.448 1.784 1.106 2.263 2.581 1.877 1.424-.372 2.136.081 2.537 1.615.306 1.173.955 2.132 1.441 2.132 2.173 0 .556 1.716-2.74 2.908-3.566 1.29-5.306.589-5.362-2.158-.008-.412-.517-.75-1.132-.75-.632 0-.884.886-.582 2.043.351 1.342-.124 2.454-1.383 3.241-2.614 1.632-2.409 2.716.515 2.716 1.486 0 2.66.718 3.019 1.848 1.604 5.054 10.548 4.987 10.548-.079 0-2.566.223-2.829 1.5-1.769 1.674 1.39 2.059 6 .5 6-.55 0-1 1.125-1 2.5 0 3.007 2.534 3.389 3.291.496.347-1.329 1.056-1.8 2.103-1.398 1.994.765 3.733-3.444 3.511-8.497-.087-1.98.172-4.388.575-5.351.978-2.333-.636-2.217-3.48.25-2.974 2.58-3.653 2.519-4.383-.389-.367-1.463-1.59-2.638-3.151-3.03-1.403-.352-2.84-1.415-3.193-2.361-.353-.946-1.458-2.308-2.457-3.027-2.114-1.521-2.469-4.381-.447-3.605.821.315 1.671-.397 2.127-1.781.758-2.307.758-2.307 1.201-.057.516 2.624 1.57 2.84 3.66.75 1.666-1.666 4.643-2.024 4.643-.559 0 .518-.422 1.201-.937 1.52-.817.505-4.063 6.251-4.063 7.193.001.19.874.346 1.941.346 1.068 0 2.219.45 2.559 1 1.081 1.749 2.221 1.088 3.516-2.039 1.101-2.657 1.034-3.204-.53-4.348-1.245-.91-1.439-1.524-.637-2.019 2.751-1.701 1.292-4.872-1.944-4.225-2.545.509-3.189.263-3.62-1.386-.288-1.103-1.592-2.273-2.897-2.6-1.916-.481-2.257-1.058-1.772-2.99.363-1.446.162-2.393-.508-2.393-.609 0-1.108.58-1.108 1.287 0 .708-.886 1.354-1.968 1.436-1.533.115-1.78-.225-1.117-1.538.468-.928 1.41-2.885 2.092-4.351 1.418-3.047 4.835-4.409 5.661-2.256.721 1.879 2.332 1.825 2.332-.078 0-.774-.396-1.415-.898-1.492l-.204-.016c-.502-.077-.898-.718-.898-1.492 0-1.004 1.004-1.5 3.035-1.5 1.67 0 4.071-.679 5.338-1.508 2.578-1.69 6.606 1.116 5.1 3.552-.507.82-.086.968 1.407.494 2.435-.773 3.988 1.675 2.363 3.725-1.186 1.494-2.225 10.21-1.36 11.394.976 1.334 4.943 3.343 6.603 3.343 1.9 0 1.892.751-.048 4.472-1.375 2.639-1.381 3.096-.05 4.07 1.306.954 1.248 1.279-.444 2.498-2.448 1.765-2.778 9.426-.444 10.322.825.316 1.5.139 1.5-.393 0-1.42 3.328-1.181 5.48.393 2.132 1.559 5.52 1.024 5.52-.872 0-1.64 2.988-2.83 3.036-1.209.02.671 1.143-.131 2.495-1.781 1.728-2.108 2.461-2.513 2.464-1.361.003 1.079 1.199 1.862 3.505 2.295 2.634.494 3.5 1.159 3.5 2.685 0 1.401.54 1.917 1.75 1.668 2.634-.541 4.247 2.125 2.975 4.917-.575 1.263-1.4 2.296-1.833 2.296-1.601.001-.536 7.999 1.07 8.032 2.361.049 5.036 2.473 5.053 4.578.019 2.318 1.074 3.857 2.735 3.99.688.055 2.15.167 3.25.25 1.1.083 2 .825 2 1.65s.45 1.5 1 1.5 1 .502 1 1.117c0 .655-.826.862-2 .5l-3.971-1.226c-1.68-.519-2.067-.003-2.628 3.5-.679 4.25-1.266 4.844-3.038 3.072-.716-.716-1.932-.697-3.929.062-2.028.771-2.998.781-3.246.037-.761-2.282-3.188-1.004-3.203 1.688-.02 3.465-.895 4.796-3.735 5.683-1.238.386-2.25 1.121-2.25 1.634 0 1.173 1.304 1.205 2.55.062 2.325-2.131 6.21-2.154 6.763-.04.404 1.546.163 1.924-.957 1.494-1.081-.415-1.45.051-1.326 1.671.094 1.235-.141 3.217-.522 4.404-.801 2.495-4.508 3.932-4.508 1.748 0-1.586-.198-1.651-2.418-.799-.87.334-1.596 1.571-1.614 2.75-.049 3.348-2.793 6.535-3.992 4.638-.55-.87-.952-1.003-.961-.318-.008.647-.803 1.328-1.765 1.513-2.112.408-2.59 10.486-.595 12.56 1.611 1.675 7.66 1.675 7.075 0-.241-.687-1.131-1.129-1.979-.98-1.081.189-1.497-.483-1.396-2.249.19-3.294 2.887-3.306 4.646-.02 1.16 2.169 1.549 2.319 2.919 1.131 1.869-1.622 4.08-1.074 4.08 1.01 0 .812-.45 1.198-1 .858-.55-.34-1 .084-1 .941s.45 1.559 1 1.559 1 .801 1 1.781c0 1.06 1.214 2.239 3 2.913 3.264 1.232 4.192 4.911 1.5 5.944-3.886 1.492-.816 4.362 4.665 4.362 1.971 0 2.849.429 2.558 1.25-.244.688-1.406 1.143-2.583 1.012-1.177-.131-2.14.206-2.14.75 0 .543.436.988.969.988.532 0 .728.625.435 1.389-.327.853-1.378 1.187-2.719.864-1.789-.43-1.959-.282-.935.811 1.675 1.79 1.577 2.936-.25 2.936-1 0-1.5 1-1.5 3 0 1.972.503 3 1.469 3 .863 0 1.242-.59.919-1.432-.779-2.028 4.608-4.709 6.893-3.431.945.529 1.719 1.615 1.719 2.413 0 .797.909 1.45 2.019 1.45 1.635 0 1.904.459 1.413 2.413-.424 1.691.02 3.039 1.481 4.5 2.701 2.701 2.632 3.087-.548 3.087-1.527 0-3.611 1.052-4.953 2.5-2.801 3.023-4.002 3.134-5.412.5-.589-1.1-1.917-2-2.952-2s-2.031-.439-2.215-.974c-.183-.536-1.314-.717-2.514-.402-1.308.344-1.972 1.117-1.659 1.933.328.855-.439 1.6-2.069 2.01-1.425.357-2.591 1.051-2.591 1.541-.001.491-1.401.892-3.111.892-3.014 0-3.091-.109-2.455-3.5.41-2.187.264-3.5-.389-3.5-.575 0-1.045-.675-1.045-1.5s-.45-1.5-1-1.5-1 .45-1 1c0 .516-.791.944-1.796.995l-.408.01c-1.005.052-1.796.484-1.796 1.005 0 .555.9 1.78 2 2.722s2 2.464 2 3.383c0 1.799 1.869 2.838 5.332 2.964 1.192.043 1.672.284 1.066.534-.679.28-.976 2.671-.775 6.229.596 10.517-14.934 12.256-23.873 2.673-4.838-5.187-17.75-8.469-17.75-4.513 0 1.811-3.499 2.036-4.763.307-1.141-1.56-1.442-1.601-2.261-.304-2.68 4.239 4.702 9.217 9.83 6.629 3.254-1.642 5.194-1.12 5.194 1.398 0 1.026 1.098 3.049 2.438 4.496 3.481 3.756 3.071 9.444-.816 11.317-2.139 1.031-2.664 1.851-2.248 3.508.82 3.269-.719 5.028-3.737 4.271-2.418-.607-2.569-.431-2.445 2.864.101 2.694.56 3.512 1.97 3.512 2.63 0 2.268 1.488-.861 3.538-1.844 1.209-2.821 1.403-3.083.615-.565-1.695-3.283-1.404-5.485.588-1.841 1.667-2.006 1.634-3.828-.75a152.387 152.387 0 0 0-2.956-3.754c-.578-.694-.806-1.659-.506-2.145.3-.485-.127-1.14-.949-1.456-.822-.315-1.494-1.461-1.494-2.546 0-2.844-1.718-3.486-2.986-1.115-.874 1.633-.689 2.458.949 4.216 1.121 1.202 2.037 2.564 2.037 3.029 0 1.43-3.35 2.231-3.791.907-.226-.679-1.437-2.222-2.689-3.43-2.432-2.345-3.708-6.181-3.808-11.447-.034-1.788-.417-3.249-.852-3.25-1.196 0-2.891 3.636-2.075 4.451 1.766 1.767 1.835 13.548.086 14.629-.722.446-.927 1.173-.455 1.616.472.442 1.059.242 1.304-.446.618-1.729 2.944-1.569 3.642.25.415 1.084-.11 1.5-1.893 1.5-1.483 0-2.469.575-2.469 1.441 0 1.947 2.049 3.098 2.942 1.653.396-.639 1.469-.873 2.388-.521 1.133.435 1.67.124 1.67-.966 0-2.193 2.991-2.052 3.036.143.028 1.384.507 1.174 2.288-1 1.916-2.34 4.676-3.715 4.676-2.329 0 1.953-8.443 8.572-10.216 8.01-1.793-.569-1.976-.332-1.428 1.852.632 2.516-2.963 4.695-5.33 3.233-.486-.3-1.028.438-1.205 1.641-.176 1.202-.879 2.37-1.562 2.595-.891.293-1.067-.46-.625-2.672.459-2.296.251-3.08-.82-3.08-3.842 0-6.005-3.924-3.838-6.966 1.113-1.563 2.024-4.051 2.024-5.528 0-1.547.918-3.428 2.164-4.438 2.589-2.096 3.675-6.604 1.379-5.723-.814.312-1.783.076-2.154-.525-.427-.69-1.351-.214-2.51 1.294-1.309 1.703-1.84 1.942-1.857.836-.012-.853.54-2.146 1.228-2.875 1-1.06 1-1.417 0-1.783-.687-.252-1.25-1.745-1.25-3.316 0-3.478-.585-3.877-4.75-3.243-3.236.492-4.606 2.267-1.75 2.267 1.785 0 2.137 6.487.41 7.556-1.05.649-9.91 1.315-9.91.746.001-1.094 3.542-4.085 4.29-3.623.514.318 1.326-.043 1.806-.801 1.283-2.024 1.093-2.888-.501-2.276-.95.364-1.623-.455-2.08-2.531-.858-3.909-2.515-3.993-2.515-.128 0 2.828-3.492 10.057-4.858 10.057-1.268-.001-3.105-3.933-2.533-5.422.316-.826-.128-2.912-.988-4.636-1.34-2.687-1.354-3.053-.092-2.569.809.31 1.471.098 1.471-.472s.824-.774 1.832-.454c2.104.668 5.736-2.716 4.707-4.384-1.049-1.698-3.305-1.235-4.871 1-1.419 2.027-1.468 2.01-2.8-1-1.692-3.822-3.306-4.002-2.563-.286.495 2.475.181 2.895-2.897 3.858-3.107.973-3.396.904-2.89-.693.748-2.355-1.522-3.686-2.699-1.582-1.346 2.405-3.019 2.002-5.682-1.369-3.741-4.736-8.616-4.332-7.808.647.324 2.001 1.462 4.451 2.528 5.444 1.067.993 2.182 2.394 2.478 3.112.409.991.885.88 1.975-.461 1.752-2.157 4.29-1.369 5.059 1.569.448 1.715.821 1.908 1.798.931 1.666-1.666 4.494-1.559 5.167.194.798 2.08-2.206 4.399-3.334 2.573-1.111-1.798-4 .397-4 3.039 0 .987-.562 2.023-1.25 2.302-.943.382-.884.76.237 1.538 1.27.882 1.152 1.343-.818 3.178-1.293 1.204-2.055 2.796-1.737 3.627.312.814.568 2.354.568 3.423 0 1.374.912 2.125 3.112 2.565 2.513.503 2.801.797 1.492 1.53-.89.498-2.066.63-2.612.293-.546-.337-.992.089-.992.946 0 .864-.845 1.559-1.895 1.559-2.191 0-6.334-7.371-4.932-8.773 1.717-1.718 1.895-7.986.245-8.62-.85-.326-1.227-1.108-.838-1.737.397-.642-.303-1.907-1.594-2.881-1.266-.954-2.368-2.637-2.449-3.739-.231-3.138-3.269-5.717-5.021-4.263-.806.668-1.993.833-2.722.378-3.19-1.99-4.47-1.351-4.608 2.298-.074 1.98-.377 4.365-.674 5.298-.443 1.397-.006 1.618 2.475 1.254 1.811-.266 3.013.002 3.013.672 0 .653 1.861 1.113 4.5 1.113 4.1 0 4.5.216 4.5 2.433 0 2.709-2.73 4.105-6 3.067-3.153-1.001-2.331 1.186 1 2.66 3.501 1.55 3.842 3.319.939 4.873-2.117 1.132-2.188 3.467-.106 3.467 1.177 0 1.232.536.384 3.778-.309 1.18-1.068 1.587-2.257 1.209-.985-.312-2.08-.1-2.435.472-.354.573-1.516 1.041-2.584 1.041s-1.941.48-1.941 1.067c0 .625-.86.794-2.074.41-2.387-.758-8.171 1.318-7.354 2.639.3.486.068.884-.513.884-.582 0-1.059-.45-1.059-1s-1.053-1-2.339-1c-5.023 0-5.501-8.964-.562-10.531 2.412-.766 6.901-5.16 6.901-6.755 0-.546.787-1.591 1.75-2.322 1.597-1.212 1.519-1.331-.883-1.36-4.029-.049-4.451-4.224-.707-6.992 2.861-2.115 1.987-8.04-1.186-8.04-.536 0-.974-.5-.974-1.108 0-.693.969-.866 2.58-.461 2.329.584 2.511.425 1.876-1.642-.958-3.114-.986-3.131-4.886-2.984-2.799.105-3.498-.269-3.755-2.01-.203-1.38-1.098-2.194-2.523-2.296-2.777-.199-3.445 1.48-2.248 5.653 1.124 3.919.367 4.873-3.294 4.154-2.033-.398-2.75-1.131-2.75-2.806 0-1.426-.742-2.461-2-2.79-1.197-.313-2-1.364-2-2.616 0-1.152-.48-2.094-1.067-2.094-.613 0-.797-.853-.433-2 .45-1.419.18-2-.933-2-.862 0-1.567-.45-1.567-1s-.873-1-1.941-1-2.219-.45-2.559-1c-.34-.55-2.076-1-3.859-1s-3.69-.45-4.241-1c-1.341-1.341-6.22.934-6.97 3.25-.693 2.146-2.018 2.265-2.791.251-.583-1.518-3.099-1.592-5.396-.159-.769.48-1.49.178-1.857-.779-.33-.858-1.167-1.563-1.86-1.563-.693 0-3.349-2.331-5.902-5.179-4.436-4.95-4.706-5.094-6.1-3.25-1.289 1.702-1.464 1.729-1.492.229-.018-.935.755-2.199 1.718-2.808 1.383-.876 1.46-1.227.375-1.675-.756-.312-2.331-1.523-3.5-2.692-1.169-1.169-2.575-2.186-3.125-2.26a64.387 64.387 0 0 0-2.294-.25c-.71-.063-1.22-.677-1.13-1.365.708-5.462-.134-7.812-3.007-8.386-1.612-.323-3.784-1.381-4.827-2.353-1.042-.971-2.874-2.077-4.07-2.456-2.355-.748-2.747-2.612-1.17-5.56.67-1.252.67-2.079 0-2.493-.551-.341-1.002-1.52-1.002-2.62s-.399-1.754-.886-1.452c-.488.301-1.12-.347-1.407-1.441-.286-1.094-1.042-1.989-1.68-1.989-.767 0-.9.766-.391 2.25 1.574 4.593 1.044 8.281-1.136 7.905-2.823-.487-2.815-.458-1.577-6.234.906-4.224.856-5.522-.267-6.819-.762-.882-1.66-3.401-1.998-5.599-.337-2.198-1.298-4.498-2.135-5.11-2.284-1.67-1.841-3.275 1.108-4.015 1.895-.476 2.888-.201 3.55.981 2.832 5.06 8.781-1.963 7.102-8.384-.346-1.323-.018-1.975.993-1.975 2.466 0 3.067-3.997 1.246-8.276-.573-1.349-1.076-1.509-2.091-.667-1.453 1.206-5.431.383-5.431-1.124 0-.513-1.125-.933-2.5-.933-2.885 0-3.178-1.587-.897-4.845.903-1.289 1.394-3.387 1.124-4.801-.543-2.84 1.926-4.534 3.32-2.278 1.092 1.766 2.46-1.31 1.59-3.576-.635-1.658-4.637-2.09-4.637-.5 0 .55-.675 1-1.5 1-1.681 0-2.045-2.545-.5-3.5 1.499-.926 1.204-2.5-.469-2.5-2.374 0-.647-2.745 2.053-3.261 2.14-.409 2.416-.138 2.183 2.146-.233 2.286.142 2.654 2.983 2.928 2.075.2 3.25-.131 3.25-.916 0-.677-.296-.934-.658-.572-1.113 1.113-3.342-1.441-3.342-3.831 0-2.444-3.906-4.264-5.08-2.366-.357.578-.468-1.509-.245-4.638.42-5.944-.636-8.478-3.547-8.505-2.494-.024-4.842-1.838-3.54-2.735.997-.688 2.649-5.249 1.9-5.25-1.705 0-3.843 1.747-4.758 3.886-1.116 2.614-1.116 2.614-1.489-.136-.465-3.42-1.704-3.479-4.539-.215-2.056 2.367-2.347 2.432-4.394.984-2.697-1.91-1.423-7.519 1.706-7.519 1 0 1.977-.476 2.172-1.057.512-1.54 3.814.001 3.814 1.781 0 1.077.644 1.337 2.25.906 1.237-.331 2.791-.609 3.453-.616 3.217-.038 6.339-14.833 3.34-15.833-.573-.191-1.043-1.007-1.043-1.812 0-.806-1.075-2.461-2.389-3.678-2.428-2.25-2.858-6.844-.83-8.872 1.563-1.563 6.218.174 6.219 2.32 0 2.677 2.106 3.208 5.566 1.403 3.772-1.967 6.415-1.95 7.878.05 1.052 1.439 1.538 1.384 5.01-.565 3.454-1.94 3.997-2.004 5.377-.624C65.546 95.117 63.128 99 60.345 99c-.74 0-1.345.45-1.345 1s.482 1 1.071 1c.59 0 1.747.675 2.572 1.5s2.368 1.5 3.428 1.5c1.364 0 1.929.696 1.929 2.378 0 1.307.675 2.937 1.5 3.622 2.112 1.753 1.864 4.092-.5 4.71-1.1.288-2 .879-2 1.315-.001.436-2.025 2.071-4.498 3.633-3.824 2.416-4.499 3.329-4.5 6.092-.002 3.157 1.244 4.279 2.498 2.25.87-1.408 2.498-1.245 2.508.25.019 3.106 4.629 3.542 7.837.742 3.748-3.273 5.892-7.992 3.63-7.992-1.456 0-2.03-2.112-.885-3.257.325-.325 2.407.05 4.626.833 5.539 1.955 5.751 1.877 5.265-1.922-.236-1.841.002-4.851.529-6.689.762-2.657.621-3.715-.686-5.16-.905-.999-1.384-2.078-1.066-2.397.319-.319 1.082.359 1.696 1.506 1.396 2.608 5.367 2.885 4.81.336-.211-.963-.919-1.638-1.573-1.5-.655.137-1.191-.388-1.191-1.168 0-.78-.273-2.13-.607-3-.353-.92-.086-1.582.64-1.582.685 0 1.864-.787 2.62-1.75 1.263-1.61 1.749-1.339 6.109 3.413 3.5 3.815 5.441 5.154 7.429 5.125 3.061-.043 4.666-2.729 2.391-4.002-.824-.46-1.244-1.502-.933-2.312.737-1.923-.543-1.88-2.721.091-1.147 1.038-1.951 1.206-2.388.5-.362-.585-.187-1.065.39-1.065.576 0 1.023-1.012.993-2.25-.03-1.238.088-3.1.262-4.14.207-1.242-.697-2.461-2.636-3.555-3.925-2.214-6.343-10.64-4.347-15.15 1.463-3.304 2.044-3.519 3.798-1.405.685.825 2.315 1.5 3.622 1.5 1.965 0 2.378.511 2.378 2.941 0 1.618.486 3.242 1.081 3.609.595.368.811 1.744.481 3.06-.475 1.893-.205 2.39 1.304 2.39 1.047 0 2.641 1.125 3.542 2.5.901 1.375 2.311 2.5 3.134 2.5 1.096 0 1.328.668.869 2.5-.353 1.407-.195 2.5.363 2.5.546 0 2.856 1.864 5.133 4.142 3.706 3.707 7.06 4.934 4.259 1.558-1.156-1.393.177-3.7 2.14-3.7.779 0 2.795-1.443 8.402-6.015 1.653-1.348 2.542-1.236 2.045.257-.749 2.247 3.511 3.556 5.525 1.698.977-.902 3.602-2.187 5.832-2.855 2.792-.836 3.887-1.651 3.516-2.618-.296-.771-.108-1.67.418-1.994 1.677-1.037 1.027-3.642-1.044-4.183-2.755-.721-2.739-5.284.021-6.006 1.641-.429 1.794-.802.814-1.982-1.467-1.768.356-3.263 4.009-3.287 1.494-.01 2.533-.739 2.866-2.015 1.001-3.827 6.384-2.718 5.609 1.156-.624 3.12-.593 3.15 2.661 2.498 3.292-.658 3.292-.658 2.687 3.757-.638 4.657 2.721 7.529 6.921 5.917 1.009-.387 1.721.14 2.088 1.542.579 2.215 2.324 2.97 2.324 1.008 0-.791.431-.765 1.456.086 2.236 1.855 3.22.547 3.294-4.378.081-5.353-1.149-6.622-6.963-7.18-2.358-.228-4.429-.837-4.602-1.354-.174-.517-.961-.692-1.75-.389-.789.303-1.435.026-1.435-.615 0-.64-.419-.907-.931-.591-2.132 1.318-2.232-1.907-.112-3.623 1.464-1.186 2.093-2.536 1.764-3.791-.744-2.846 1.237-4.875 5.779-5.92 2.2-.508 4.337-.967 4.75-1.023ZM222 312c1.868-1.154 2.711-.311 1.2 1.2-.642.642-1.499.835-1.904.429-.406-.406-.089-1.139.704-1.629Zm50-2c.55 0 1 .675 1 1.5s-.45 1.5-1 1.5-1-.675-1-1.5.45-1.5 1-1.5Zm-66-2c.55 0 1 .45 1 1s-.45 1-1 1-1-.45-1-1 .45-1 1-1Zm-44.08-1.15c-.986-1.843-.866-1.97 1.244-1.32 3.062.942 3.192 1.1 2.467 2.99-.718 1.871-2.165 1.22-3.711-1.67Zm69.071.661c1.249-1.505 3.009-1.184 3.009.548 0 .518-.955.941-2.122.941-1.767 0-1.916-.25-.887-1.489ZM84 308c.733 0 1.033.3.667.667a.948.948 0 0 1-1.334 0c-.366-.367-.066-.667.667-.667Zm181-3c.55 0 1 .45 1 1s-.45 1-1 1-1-.45-1-1 .45-1 1-1Zm-38 1c.733 0 1.033.3.667.667a.948.948 0 0 1-1.334 0c-.366-.367-.066-.667.667-.667Zm10-3c1.111 0 2 .667 2 1.5s-.889 1.5-2 1.5-2-.667-2-1.5.889-1.5 2-1.5Zm-7.5 1c.275 0 .5.225.5.5s-.225.5-.5.5a.501.501 0 0 1-.5-.5c0-.275.225-.5.5-.5Zm40.5-1c0-.733.3-1.033.667-.667a.948.948 0 0 1 0 1.334c-.367.366-.667.066-.667-.667Zm-74.5-2c-.275 0-.5.225-.5.5s.225.5.5.5.5-.225.5-.5-.225-.5-.5-.5Zm-75.971-7.446c2.578-1.949 3.236-1.915 3.82.196.894 3.231.012 6.596-1.926 7.356-2.982 1.169-3.686 1.022-3.051-.634.333-.866-.27-2.26-1.393-3.222-2.234-1.913-2.63-3.437-.7-2.697.703.27 2.165-.179 3.25-.999ZM238 299c.55 0 1 .45 1 1s-.45 1-1 1-1-.45-1-1 .45-1 1-1Zm-86.473-3.252c.917-3.653-1.267-3.642-4.253.021-2.227 2.731-2.227 2.731.341 3.056 3.061.388 3.038.406 3.912-3.077ZM253 298c.733 0 1.033.3.667.667a.948.948 0 0 1-1.334 0c-.366-.367-.066-.667.667-.667Zm-96.229-1.187c-.618-1.855-2.771-2.162-2.771-.396 0 .871.713 1.583 1.583 1.583.871 0 1.406-.534 1.188-1.187Zm-22.591-1.563c-.351-2.473 1.624-3.046 3.62-1.05 1.996 1.996 1.423 3.971-1.05 3.62-1.446-.206-2.364-1.124-2.57-2.57ZM131 293c.733 0 1.033.3.667.667a.948.948 0 0 1-1.334 0c-.366-.367-.066-.667.667-.667Zm46.722-2.989c2.378-2.776 3.469-2.516 3.094.739-.226 1.969-.955 2.841-2.566 3.07-2.687.381-2.886-1.054-.528-3.809ZM138 289c.55 0 1 .45 1 1s-.45 1-1 1-1-.45-1-1 .45-1 1-1Zm71 0c.55 0 1 .45 1 1s-.45 1-1 1-1-.45-1-1 .45-1 1-1Zm-75.867-1.379c2.54-2.871 4.029-1.007 1.893 2.371-.714 1.13-1.223 1.211-2.101.333-.878-.878-.828-1.533.208-2.704Zm-25.195-27.304c1.015-.768 1.909-.841 2.554-.208.654.643.574 1.232-.235 1.732-4.059 2.509-2.581 6.833 3.145 9.207 3.079 1.276 5.598 2.864 5.598 3.529s.739 1.493 1.643 1.84c.904.346 1.392.881 1.086 1.188-.306.306-1.539.032-2.738-.61-1.836-.982-2.553-.816-4.546 1.057-1.881 1.767-3.108 2.102-5.987 1.636-2.888-.469-3.403-.327-2.548.704.59.71.787 1.577.439 1.926-.349.349-.045 1.343.673 2.208 1.09 1.314 1.02 1.855-.419 3.274-1.624 1.6-1.802 1.597-3.024-.05-.715-.962-1.761-1.75-2.326-1.75-1.594 0-2.028-5.587-.586-7.559.709-.97 1.026-2.817.703-4.103-.43-1.713-.164-2.338.996-2.338 1.889 0 5.072-5.61 3.674-6.475-1.207-.746-.145-3.661 1.898-5.208ZM240 283.571c0-.843-1.27-.644-3.25.509-1.936 1.128-2.353 2.92-.679 2.92 1.125 0 3.928-2.447 3.929-3.429ZM125.5 285c.275 0 .5.225.5.5s-.225.5-.5.5a.501.501 0 0 1-.5-.5c0-.275.225-.5.5-.5Zm58.5-1c.55 0 1 .45 1 1s-.45 1-1 1-1-.45-1-1 .45-1 1-1Zm-46.878-6.722c.904-.904 3.878-.77 3.878.175 0 1.156-3.354 6.547-4.073 6.547-1.311-.001-1.155-5.372.195-6.722ZM86.236 269c8.357 0 11.765 7.042 5.72 11.817-4.21 3.325-7.987 2.647-10.127-1.817-1.627-3.395-1.612-3.553.497-5.263 2.14-1.735 2.144-1.785.233-3.25-1.79-1.37-1.499-1.487 3.677-1.487Zm140.429 6c-1.584 0-1.698.256-.665 1.5 1.04 1.253.896 1.5-.878 1.5-1.167 0-2.122.498-2.122 1.107s.712.834 1.582.5c.87-.334 2.191-.607 2.938-.607.745 0 1.288-.9 1.205-2-.094-1.249-.867-2-2.06-2Zm-76.165 1c.275 0 .5.225.5.5s-.225.5-.5.5a.501.501 0 0 1-.5-.5c0-.275.225-.5.5-.5Zm95.5-6c-1.336 0-2 .667-2 2.008 0 1.759.249 1.853 2 .76 1.1-.687 2-1.591 2-2.009 0-.417-.9-.759-2-.759Zm-41.654-.786c-.538-2.057-2.318-2.908-3.536-1.69-.689.69.239 5.48 1.057 5.461 1.839-.045 2.994-1.801 2.479-3.771ZM210 270c-.55 0-1 .45-1 1s.45 1 1 1 1-.45 1-1-.45-1-1-1Zm30.25.015c-1.238-.008-2.25.435-2.25.985 0 1.253 1.061 1.253 3 0 1.213-.784 1.069-.972-.75-.985ZM250.5 269c-.825 0-1.5.45-1.5 1s.675 1 1.5 1 1.5-.45 1.5-1-.675-1-1.5-1Zm-226.807-6c1.71 0 3.075 2.168 2.575 4.084-.581 2.221-2.268 2.591-2.268.498 0-.78-.273-2.13-.607-3-.334-.87-.199-1.582.3-1.582Zm75.493.055c4.572-1.834 6.568.628 3.91 4.823-1.035 1.635-3.096.64-3.096-1.496 0-.825-.419-1.241-.93-.925-.513.317-1.217.114-1.565-.449-.348-.564.408-1.443 1.68-1.953ZM7.5 265c.825 0 1.5.675 1.5 1.5s-.675 1.5-1.5 1.5-1.5-.675-1.5-1.5.675-1.5 1.5-1.5Zm199.878-1c-.208 0-.378.675-.378 1.5s.73 1.5 1.622 1.5c1.329 0 1.398-.271.378-1.5-.685-.825-1.415-1.5-1.622-1.5Zm-89.878 1c.275 0 .5.225.5.5s-.225.5-.5.5a.501.501 0 0 1-.5-.5c0-.275.225-.5.5-.5ZM236 215.2c0-1.645-1.551-1.506-3.357.3-.825.825-2.181 1.5-3.013 1.5-.831 0-1.79.45-2.13 1-.34.55-.141 1 .441 1s1.059.45 1.059 1-.675 1-1.5 1c-1.99 0-1.942 3.893.057 4.66.857.329 1.308 1.248 1.003 2.043-.983 2.562 2.273 4.908 3.839 2.766.72-.985 1.818-1.453 2.467-1.052.838.518.578 1.555-.916 3.653-2.254 3.165-5.223 3.969-4.744 1.284.545-3.054-1.816-2.421-3.267.876-1.02 2.317-2.313 3.454-4.439 3.902-1.65.347-2.239.685-1.309.75 2.862.2 3.228 2.293.731 4.177-2.732 2.06-4.262 1.587-3.422-1.059.32-1.007.145-2.1-.387-2.43-.533-.33-1.257.307-1.608 1.415-.352 1.108-1.092 2.015-1.644 2.015-.552 0-1.683.679-2.513 1.509-.83.83-1.949 1.238-2.485.906-5.712-3.53-6.163 5.706-.481 9.844 2.912 2.122 3.042 1.988 1.643-1.694-.634-1.667-.634-2.565 0-2.565.536 0 .975-.9.975-2 0-2.18.737-2.452 2.911-1.076.868.549 2.108.457 3.225-.241 2.548-1.591 4.456.342 3.008 3.048-.573 1.07-.815 2.808-.54 3.862.292 1.118-.355 2.836-1.551 4.12-2.4 2.576-2.641 3.727-.618 2.95.79-.303 1.577-.137 1.75.368.173.505 1.322.653 2.554.33 1.231-.324 1.998-.978 1.704-1.454-1.182-1.912 3.364-7.907 5.995-7.907 1.324 0 1.379-.321.34-1.984-1.029-1.648-.946-2.277.492-3.714 1.639-1.641 1.73-1.614 1.73.507 0 2.156.09 2.178 2.5.599 3.616-2.37 3.326-5.298-.514-5.189-3.571.102-3.86-.119-4.214-3.214-.241-2.099.158-2.389 3.478-2.527 2.834-.118 3.75.234 3.75 1.442 0 .88.9 2.161 2 2.848 1.1.687 2 1.958 2 2.824 0 .904.532 1.326 1.25.992.688-.321 2.038-.86 3-1.2 2.52-.889 2.289-3.758-.249-3.095-3.437.899-5.199-7.46-2.086-9.896 1.603-1.256 2.336-11.392.824-11.393-.524 0-.694-.675-.377-1.5.343-.894.009-1.5-.826-1.5-.771 0-1.687-.9-2.036-2-.728-2.294-1.596-2.504-3.3-.8-.933.933-1.2.933-1.2 0ZM124.5 262c-.275 0-.5.225-.5.5s.225.5.5.5.5-.225.5-.5-.225-.5-.5-.5Zm-97.893-4.419c.681-1.774 1.311-1.92 3.182-.733.986.626 1.036 1.483.211 3.652-1.067 2.807-1.092 2.814-2.54.748-.802-1.147-1.187-2.797-.853-3.667ZM258.5 260c.484-.783 1.059-.841 1.726-.174.55.55.673 1.528.274 2.174-.484.783-1.059.841-1.726.174-.55-.55-.673-1.528-.274-2.174Zm-243 0c.275 0 .5.225.5.5s-.225.5-.5.5a.501.501 0 0 1-.5-.5c0-.275.225-.5.5-.5Zm118.083-3c-.87 0-1.583.712-1.583 1.583 0 1.766 2.153 1.459 2.771-.395.218-.654-.317-1.188-1.188-1.188Zm46.417-.122c0-1.036-1.384-1.161-2.333-.211-1.498 1.497-.735 3.634.833 2.333.825-.685 1.5-1.64 1.5-2.122Zm-48.091-8.656c-3.076.087-3.513.535-4.1 4.206-.404 2.52-5.278 3.917-6.89 1.974-1.591-1.917-2.592-1.759-3.184.502-.419 1.603.222 2.012 4.04 2.585 5.7.855 12.513-1.921 11.635-4.739-.299-.962-.064-1.75.523-1.75s1.067-.645 1.067-1.433c0-.954-1.033-1.404-3.091-1.345ZM115.059 253c-1.18 0-2.442 1.95-1.726 2.667.717.716 2.667-.546 2.667-1.726a.943.943 0 0 0-.941-.941Zm14.441 1c.275 0 .5.225.5.5s-.225.5-.5.5a.501.501 0 0 1-.5-.5c0-.275.225-.5.5-.5Zm-38.549-7.559c-1.386-1.67-3.559-1.885-4.451-.441-.34.55.084 1 .941 1 1.988 0 2.028 1.606.059 2.362-1.637.628-1.918 2.432-.68 4.38.605.954 1.694.78 4.696-.75 2.149-1.096 4.524-1.992 5.279-1.992 2.447 0 .631-2.49-2.049-2.809-1.43-.171-3.138-.958-3.795-1.75Zm132.797 2.097c.412-2.154.653-2.28 1.925-1.008 1.582 1.582.987 3.47-1.093 3.47-.845 0-1.137-.865-.832-2.462Zm32.502-8.438c-3.241.086-3.411.197-1.25.816 1.498.429 2.393 1.344 2.234 2.28-.151.892.654 1.803 1.88 2.124 1.4.366 1.945 1.085 1.567 2.069-.628 1.635 2.558 3.2 4.31 2.117 2.256-1.395-.994-7.506-3.991-7.506-.55 0-1-.45-1-1s-1.687-.955-3.75-.9ZM207 248c.55 0 1 .198 1 .441 0 .244-.45.719-1 1.059-.55.34-1 .141-1-.441s.45-1.059 1-1.059Zm-127-4.5c0-3.59-2.009-1.298-3.047 3.475-.057.261.38.636.973.834.617.205.816-.317.468-1.225-.335-.871-.11-1.584.499-1.584S80 244.325 80 243.5Zm21.5 2.5c-.275 0-.5.225-.5.5s.225.5.5.5.5-.225.5-.5-.225-.5-.5-.5Zm214.5-2c.55 0 1 .675 1 1.5s-.45 1.5-1 1.5-1-.675-1-1.5.45-1.5 1-1.5Zm-90.059-2c.518 0 1.219.45 1.559 1 .34.55-.084 1-.941 1s-1.559-.45-1.559-1 .423-1 .941-1Zm-138.834-3c-2.082 0-3.588 2.585-2.056 3.532.908.56 3.948-1.72 3.949-2.961 0-.314-.852-.571-1.893-.571ZM34.5 240c.825 0 1.5.45 1.5 1s-.675 1-1.5 1-1.5-.45-1.5-1 .675-1 1.5-1Zm238.25-1.37c-3.277-.878-4.75-.763-4.75.37 0 .516.989.944 2.245.995l.51.01c1.256.051 2.245.479 2.245.995 0 .55.45 1 1 1 1.98 0 .949-2.78-1.25-3.37Zm-190.765-.88c.021-1.024-1.184-.917-2.985.265-1.318.866-1.321 1.1-.026 1.932 1.404.903 2.971-.241 3.011-2.197ZM262 238c-.55 0-1 .45-1 1s.45 1 1 1 1-.45 1-1-.45-1-1-1Zm49 0c-.55 0-1 .45-1 1s.45 1 1 1 1-.45 1-1-.45-1-1-1Zm-261.607-2c1.696 0 2.894 2.704 1.563 3.527-1.316.814-2.956-.343-2.956-2.086 0-.792.627-1.441 1.393-1.441Zm162.107-.362c-.914-.35-1.5-.001-1.5.893 0 .808.675 1.469 1.5 1.469s1.5-.402 1.5-.893-.675-1.152-1.5-1.469Zm84 .362c-.275 0-.5.225-.5.5s.225.5.5.5.5-.225.5-.5-.225-.5-.5-.5Zm-99.364-4.264c-.761-.761-1.25-.602-1.692.549-.94 2.45.604 4.38 1.798 2.247.639-1.142.603-2.087-.106-2.796Zm27.835-6.038c-1.801-1.57-7.181-1.488-8.804.135-.986.986-2.325 1.614-2.979 1.396-1.927-.642-1.365 3.665.777 5.964 1.686 1.81 2.198 1.917 3.597.755 1.499-1.243 1.481-1.42-.215-2.166-1.33-.585-1.1-.669.824-.298 3.603.694 6.088-.366 5.353-2.283-.326-.848-.027-1.89.664-2.317.689-.426 1.042-.96.783-1.186ZM69 232c-.55 0-1 .45-1 1s.45 1 1 1 1-.45 1-1-.45-1-1-1Zm171.5-4c.275 0 .5.225.5.5s-.225.5-.5.5a.501.501 0 0 1-.5-.5c0-.275.225-.5.5-.5Zm-44.393-3c-1.014 0-2.395 3.046-1.697 3.743.795.795 2.59-.801 2.59-2.302 0-.792-.402-1.441-.893-1.441ZM255 227c-.733 0-1.033.3-.667.667a.948.948 0 0 0 1.334 0c.366-.367.066-.667-.667-.667Zm-31.705-9.25c-.621-3.236-3.688-3.753-5.224-.882-.55 1.027-2.366 2.141-4.035 2.475-2.182.436-3.036 1.177-3.036 2.632 0 1.181-.66 2.025-1.583 2.025-.871 0-1.406.534-1.188 1.188.719 2.152 2.405 1.906 5.048-.738 1.642-1.642 3.935-2.712 6.195-2.891 4.411-.35 4.475-.415 3.823-3.809Zm-17.628 6.583c-.367-.366-.667-.066-.667.667 0 .733.3 1.033.667.667a.948.948 0 0 0 0-1.334ZM237.5 224c.275 0 .5.225.5.5s-.225.5-.5.5a.501.501 0 0 1-.5-.5c0-.275.225-.5.5-.5Zm-8.9-1.162c.348-.563 1.089-.511 1.862.131.707.586 2.017.785 2.911.441.899-.345 1.627-.128 1.627.483 0 1.234-1.398 1.375-4.739.48-1.231-.33-1.979-1.021-1.661-1.535Zm6.9-4.838c.275 0 .5.225.5.5s-.225.5-.5.5a.501.501 0 0 1-.5-.5c0-.275.225-.5.5-.5ZM60.495 206.352c-2.625-4.006-5.504-2.115-5.48 3.598.02 4.605.775 5.504 4.844 5.768 1.848.12 3.986.738 4.75 1.373 1.056.876 1.752.854 2.891-.091 2.457-2.039 1.72-4.426-1.982-6.42-1.915-1.031-4.175-2.935-5.023-4.228ZM213.5 214c-.825 0-1.5.436-1.5.969 0 .532.675.709 1.5.393.825-.317 1.5-.753 1.5-.969-.001-.216-.676-.393-1.5-.393Zm14.441-1c-1.068 0-1.941.45-1.941 1s1.152 1 2.559 1c1.451 0 2.292-.433 1.941-1-.34-.55-1.491-1-2.559-1Zm-17.326-8c-1.939 0-2.403.388-1.932 1.615.493 1.285.179 1.476-1.532.933-1.182-.376-2.144-.315-2.136.135.057 3.035 5.385 4.383 6.358 1.608.346-.985.89-2.353 1.211-3.041.385-.826-.284-1.25-1.969-1.25ZM201 207c-.55 0-1 .702-1 1.559s.45 1.281 1 .941c.55-.34 1-1.041 1-1.559s-.45-.941-1-.941Zm-154-3c-.55 0-1 .648-1 1.441s.45 1.719 1 2.059c.55.34 1-.309 1-1.441 0-1.132-.45-2.059-1-2.059Zm225.5 2c-.275 0-.5.225-.5.5s.225.5.5.5.5-.225.5-.5-.225-.5-.5-.5Zm33-3c.275 0 .5.225.5.5s-.225.5-.5.5a.501.501 0 0 1-.5-.5c0-.275.225-.5.5-.5Zm9.845-2.457c.747-1.947 2.655-2.021 2.655-.102 0 1.593-1.815 3.078-2.69 2.202-.306-.307-.291-1.251.035-2.1ZM212 200c-.55 0-1 .45-1 1s.45 1 1 1 1-.45 1-1-.45-1-1-1Zm-194.906-5c.498 0 .906.9.906 2s-.173 1.999-.383 2c-.21 0-.619-.9-.907-2-.287-1.1-.115-2 .384-2Zm262.156-4.917c-1.14.127-4.485 4.015-3.931 4.57.794.791 4.681-2.026 4.681-3.394 0-.692-.337-1.222-.75-1.176Zm-257.833 2.996c1.054-.043 1.643.193 1.311.525-.332.332-1.194.367-1.915.079-.797-.319-.561-.556.604-.604Zm39.25-.746c-.367-.366-.667-.066-.667.667 0 .733.3 1.033.667.667a.948.948 0 0 0 0-1.334Zm-3.81-2.443c-1.86-1.179-3.857-1.106-3.857.141 0 1.391 2.626 2.318 4.059 1.433.842-.521.788-.946-.202-1.574Zm-38.892-3.348c1.885-2.271 3.272-1.875 2.478.708-.935 3.042-1.286 3.307-2.617 1.976-.855-.855-.82-1.528.139-2.684Zm285.7-21.809c.294-.475 1.378-.099 2.411.836 1.032.934 1.633 2.091 1.336 2.574-1.096 1.772.737 4.678 3.368 5.338 3.815.957 5.361 2.499 4.675 4.66-.331 1.045-.107 1.859.513 1.859.792 0 .802.562.032 2-.589 1.1-1.738 2-2.554 2-1.084 0-1.315.675-.857 2.5.642 2.557-.09 3.012-3.031 1.884-1.227-.471-1.455-1.415-.97-4 .349-1.861.244-3.383-.233-3.384-1.036 0-3.349-7.024-3.37-10.234-.009-1.246-.429-2.92-.934-3.718-.506-.799-.679-1.841-.386-2.315ZM23.5 187c.275 0 .5.225.5.5s-.225.5-.5.5a.501.501 0 0 1-.5-.5c0-.275.225-.5.5-.5Zm257.5-4.781c-3.049-.087-4.259 2.084-1.708 3.063 1.201.461 4.708-1.394 4.708-2.49 0-.268-1.35-.526-3-.573Zm-257.75.277c1.765-2.005 2.75-1.824 2.75.504 0 1.333-.667 2-2 2-2.321 0-2.482-.537-.75-2.504Zm23.191.504c.857 0 1.559.45 1.559 1s-.423 1-.941 1-1.22-.45-1.559-1c-.34-.55.084-1 .941-1ZM281 177c-.55 0-1 .45-1 1s.45 1 1 1 1-.45 1-1-.45-1-1-1Zm-229.5-2c.275 0 .5.225.5.5s-.225.5-.5.5a.501.501 0 0 1-.5-.5c0-.275.225-.5.5-.5Zm-26-1c.275 0 .5.225.5.5s-.225.5-.5.5a.501.501 0 0 1-.5-.5c0-.275.225-.5.5-.5Zm8.941-2c.243.001.72.45 1.059 1 .34.55.14 1-.441 1-.582 0-1.059-.45-1.059-1s.198-1 .441-1Zm-6.5-2c.518 0 1.22.45 1.559 1 .34.55-.084 1-.941 1S27 171.55 27 171s.423-1 .941-1ZM9 168c.55 0 1 .45 1 1s-.45 1-1 1-1-.45-1-1 .45-1 1-1Zm-.5-3c.825 0 1.5.45 1.5 1s-.675 1-1.5 1-1.5-.45-1.5-1 .675-1 1.5-1Zm304.5 0c.55 0 1 .45 1 1s-.45 1-1 1-1-.45-1-1 .45-1 1-1Zm-296-1c.55 0 1 .45 1 1s-.45 1-1 1-1-.45-1-1 .45-1 1-1Zm277 0c-.733 0-1.033.3-.667.667a.948.948 0 0 0 1.334 0c.366-.367.066-.667-.667-.667Zm-273.059-4c1.132 0 2.059.45 2.059 1s-.648 1-1.441 1-1.72-.45-2.059-1c-.34-.55.31-1 1.441-1ZM0 152.346c0-.823 2.645-.173 4.25 1.046 2.125 1.613 2.28 4.19.298 4.951-1.173.45-4.548-4-4.548-5.997Zm249.644-6.861c.7-1.825-.559-1.865-2.894-.093-2.269 1.723-2.209 2.836.25 4.608 2.372 1.709 2.587 3 .5 3-.833 0-1.5.889-1.5 2 0 1.1.413 2 .918 2 .505 0 1.585.256 2.401.569.858.329 1.457.013 1.424-.75-.254-5.781.242-6.819 3.257-6.819 1.65 0 3-.502 3-1.117 0-.652-.899-.881-2.162-.551-2.839.743-5.923-.948-5.194-2.847Zm20.672 9.52c.996-.9-2.153-1.75-4.566-1.233-.962.206-1.75 1.025-1.75 1.82 0 1.476 4.494 1.058 6.316-.587Zm22.295-26.869c-4.346.533-5.611 1.183-5.611 2.884 0 1.034-.617 2.24-1.37 2.68-.754.44-1.317 1.897-1.25 3.237.084 1.718-.52 2.603-2.051 3-6.115 1.585-7.454 10.063-1.588 10.063 1.969 0 2.259-.514 2.259-4 0-4.169 1.796-5.495 2.71-2 .288 1.1 1.263 2 2.166 2 1.754 0 4.505-3.575 3.724-4.838-.257-.417-.093-1.364.365-2.105 1.283-2.076 4.035-.43 4.035 2.412 0 1.392.45 2.531 1 2.531 1.953 0 .961-4.893-1.611-7.95-1.788-2.124-2.463-3.884-2.139-5.577.281-1.47.022-2.418-.639-2.337ZM35.667 144.667c.955-.956 2.333-.822 2.333.226 0 .491-.675 1.152-1.5 1.469-1.524.585-2.048-.481-.833-1.695ZM274.2 140.2c1.511-1.511.668-2.354-1.2-1.2-.793.49-1.11 1.223-.704 1.629.405.406 1.262.213 1.904-.429Zm-75.783-3.557c-.778-2.026-2.417-2.163-2.417-.202 0 1.501 1.795 3.097 2.59 2.302.251-.251.173-1.196-.173-2.1Zm26.999-2.037c-.973-.373-1.43-.15-1.187.581.498 1.494 2.771 2.318 2.771 1.003 0-.537-.713-1.249-1.584-1.584ZM272.559 133c-2.919 0-4.19 1.544-1.971 2.395 2.674 1.026 4.412.674 4.412-.895 0-.924-.938-1.5-2.441-1.5Zm-6.251.068c-.527-2.012-2.678-3.365-3.71-2.332-1.145 1.146-.588 4.331.854 4.884 2.13.817 3.431-.346 2.856-2.552ZM37 134c0-.733.3-1.033.667-.667a.948.948 0 0 1 0 1.334c-.367.366-.667.066-.667-.667Zm14.5-9c-.275 0-.5.225-.5.5s.225.5.5.5.5-.225.5-.5-.225-.5-.5-.5Zm19.167-2.333c.91-.912 3.333-.844 3.333.092 0 .418-.9 1.322-2 2.009-2.006 1.253-3.047-.388-1.333-2.101ZM70 119c.55 0 1 .45 1 1s-.45 1-1 1-1-.45-1-1 .45-1 1-1Zm212.5-1c.275 0 .5.225.5.5s-.225.5-.5.5a.501.501 0 0 1-.5-.5c0-.275.225-.5.5-.5Zm-37.5-3c-.55 0-1 .423-1 .941s.45 1.219 1 1.559c.55.34 1-.084 1-.941s-.45-1.559-1-1.559Zm-47.07-2.584c-1.543-1.859-2.573-1.789-3.347.227-.835 2.176-.185 2.683 2.394 1.864 1.703-.54 1.894-.958.953-2.091Zm93.534-21.357c1.49-2.411 3.536-1.028 3.536 2.39 0 2.292.838 4.352 2.5 6.146 1.375 1.483 2.5 3.537 2.5 4.565 0 1.027.555 2.754 1.23 3.837 1.007 1.612.947 2.254-.326 3.528-1.894 1.893-6.903.442-6.904-2 0-2.017-1.212-1.924-4.115.315-1.936 1.494-8.047 4.16-9.534 4.16-1.314 0 .031-1.867 1.649-2.29 1.1-.287 2-1.023 2-1.635 0-.672-.941-.877-2.372-.518-5.77 1.448-4.507-5.617 1.349-7.549 4.47-1.476 4.881-3.508.708-3.508-2.806 0-3.023-.664-1.389-4.25 1.013-2.223 2.148-2.633 6.358-2.302 1.185.094 2.45-.306 2.81-.89Zm-86.677 19.803c-.338-1.016-.574-1.016-1.204.004-.834 1.349.006 2.88 1.021 1.863.332-.331.415-1.172.183-1.867Zm-155.016-.049c-.617-1.855-2.771-2.162-2.771-.396 0 .87.712 1.583 1.583 1.583.87 0 1.406-.534 1.189-1.187ZM241 110c-.55 0-1 .45-1 1s.45 1 1 1 1-.45 1-1-.45-1-1-1Zm-163.5-1c.825 0 1.5.45 1.5 1s-.675 1-1.5 1-1.5-.45-1.5-1 .675-1 1.5-1Zm146.172-2.857c-1.153-.957-1.54-.757-2.01 1.042-.76 2.907.006 3.576 1.912 1.67 1.318-1.319 1.332-1.688.098-2.712ZM82 107c.55 0 1 .45 1 1s-.45 1-1 1-1-.45-1-1 .45-1 1-1Zm22.5 0c-.825 0-1.5.45-1.5 1s.675 1 1.5 1 1.5-.45 1.5-1-.675-1-1.5-1Zm123 1c-.275 0-.5.225-.5.5s.225.5.5.5.5-.225.5-.5-.225-.5-.5-.5Zm-155-2c.275 0 .5.225.5.5s-.225.5-.5.5a.501.501 0 0 1-.5-.5c0-.275.225-.5.5-.5Zm60.5-.34c0-1.289-6.055-6.38-6.579-5.532-.326.528-.097 1.558.51 2.289.607.731.803 2.114.435 3.073-.558 1.452-.352 1.579 1.232.761 1.046-.539 2.465-.779 3.152-.533.688.247 1.25.221 1.25-.058Zm-25.5-.66c-.275 0-.5.225-.5.5s.225.5.5.5.5-.225.5-.5-.225-.5-.5-.5Zm4.5-2c-.55 0-1 .702-1 1.559s.45 1.281 1 .941c.55-.34 1-1.041 1-1.559s-.45-.941-1-.941Zm150.5 1c-.275 0-.5.225-.5.5s.225.5.5.5.5-.225.5-.5-.225-.5-.5-.5ZM80 102c.55 0 1 .423 1 .941s-.45 1.219-1 1.559c-.55.34-1-.084-1-.941S79.45 102 80 102Zm41 1c-.733 0-1.033.3-.667.667a.948.948 0 0 0 1.334 0c.366-.367.066-.667-.667-.667Zm-47-2c.55 0 1 .702 1 1.559s-.45 1.281-1 .941c-.55-.34-1-1.041-1-1.559s.45-.941 1-.941Zm-3.907-2.173c.624-1.166 1.467-1.667 1.967-1.167 1.252 1.252-.032 5.34-1.677 5.34-1.665 0-1.764-1.419-.29-4.173Zm98.233-1.965c.801-3.066-1.793-2.113-3.007 1.105-.839 2.221-.831 2.912.03 2.75.633-.119 1.038.346.901 1.033-.137.688.425 1.25 1.25 1.25s1.5-.417 1.5-.927c0-.509.787-1.137 1.75-1.394 1.459-.389 1.362-.591-.581-1.211-1.637-.522-2.185-1.297-1.843-2.606Zm74.753 3.721c-.043-1.054.193-1.644.525-1.311.332.332.367 1.195.079 1.916-.319.797-.556.56-.604-.605ZM20.094 96c1.048 0 1.906.45 1.906 1s.77 1 1.714 1c1.542 0 1.56.154.178 1.537-1.86 1.858-4.508 1.04-5.2-1.606-.367-1.41.01-1.93 1.402-1.931ZM28 99c.733 0 1.033.3.667.667a.948.948 0 0 1-1.334 0C26.967 99.3 27.267 99 28 99Zm54.75-17.92c2.186-1.273 3.25-1.338 3.25-.197 0 .486.904 1.12 2.01 1.409 1.71.448 1.863.912 1.025 3.117-.798 2.097-.69 2.59.563 2.591 2.332 0 1.228 3.493-1.117 3.537-1.09.021-2.545.385-3.232.809-1.57.97-3.249-.013-3.249-1.905 0-.793-.675-1.441-1.5-1.441s-1.5-.45-1.5-1 .45-1 1-1 1-1.103 1-2.45c0-1.348.787-2.909 1.75-3.47ZM94.5 91c.275 0 .5.225.5.5s-.225.5-.5.5a.501.501 0 0 1-.5-.5c0-.275.225-.5.5-.5ZM256 88c-.55 0-1 .423-1 .941s.45 1.22 1 1.559c.55.34 1-.084 1-.941S256.55 88 256 88Zm-36.717-1.917c-.156-.229-.283.054-.283.628s.788 1.662 1.75 2.417c1.619 1.269 1.64 1.222.283-.628-.807-1.1-1.594-2.187-1.75-2.417ZM140 87.441c0-.857.45-1.281 1-.941.55.34 1 1.04 1 1.559 0 .518-.45.941-1 .941s-1-.702-1-1.559Zm-17.42-5.57c.885-1.433 4.634-.987 6.591.784 2.491 2.254 2.304 3.021-.888 3.631-2.805.536-6.835-2.584-5.703-4.415ZM215 84c-.733 0-1.033.3-.667.667a.948.948 0 0 0 1.334 0c.366-.367.066-.667-.667-.667ZM56.066 77c1.442.001.745 5.243-.761 5.738-.954.312-1.256-3.652-.42-5.488.064-.137.595-.25 1.181-.25ZM138 72c.55 0 1 .638 1 1.417s.464 1.57 1.031 1.76c1.234.411-.737 6.823-2.097 6.823-.479 0-.612-.675-.296-1.5.4-1.04-.069-1.5-1.531-1.5-1.206 0-2.107-.641-2.107-1.5 0-.825-.45-1.5-1-1.5s-1-.45-1-1c0-.516.989-.944 2.245-.995l.51-.01c1.256-.051 2.245-.48 2.245-.995 0-.55.45-1 1-1Zm-64-1c.55 0 1 .45 1 1s.675 1 1.5 1 1.5.675 1.5 1.5-.417 1.5-.927 1.5c-.509 0-1.137.787-1.394 1.75-.395 1.482-.578 1.406-1.19-.5-.89-2.774-1.645-2.83-3.257-.25-1.744 2.792-4.46 2.624-4.052-.25.229-1.611 1.101-2.34 3.07-2.566 1.574-.182 2.75-.93 2.75-1.75 0-.79.45-1.434 1-1.434Zm-31.783 1.206c-.522-1.637 4.535-.585 6.862 1.428.868.75 2.106 1.366 2.75 1.366 1.561 0 1.477.837-.258 2.571-1.916 1.917-3.318 1.801-3.994-.33-.308-.967-1.546-2.205-2.753-2.75-1.207-.545-2.38-1.573-2.607-2.285ZM121 76.434c.001-1.167 2.499-1.322 7.872-.492.205.033-.125.656-.731 1.388-1.388 1.67-7.141.95-7.141-.896Zm-60.264-5.836c2.684-2.685 5.312 1.587 2.73 4.44C61.36 77.364 59 77.61 59 75.5c0-.825.498-1.5 1.107-1.5.61 0 .865-.632.569-1.402-.296-.771-.269-1.671.06-2ZM134.5 70c.275 0 .5.225.5.5s-.225.5-.5.5a.501.501 0 0 1-.5-.5c0-.275.225-.5.5-.5ZM120 63.5c0-2.96 1.998-3.265 4.351-.665 1.369 1.513 1.466 2.39.557 5-1.32 3.786-2.908 4.15-2.908.665 0-1.29-.396-2.36-.898-2.487l-.204-.026c-.502-.128-.898-1.198-.898-2.487Zm7.419-1.37c.666-1.077 3.145-.544 5.331 1.148 2.158 1.67 1.364 2.787-1.5 2.112-3.393-.8-4.676-1.892-3.831-3.26ZM117.5 63c.275 0 .5.225.5.5s-.225.5-.5.5a.501.501 0 0 1-.5-.5c0-.275.225-.5.5-.5Zm-45-2c.275 0 .5.225.5.5s-.225.5-.5.5a.501.501 0 0 1-.5-.5c0-.275.225-.5.5-.5Zm14-5c.275 0 .5.225.5.5s-.225.5-.5.5a.501.501 0 0 1-.5-.5c0-.275.225-.5.5-.5Zm3.5-1c.733 0 1.033.3.667.667a.948.948 0 0 1-1.334 0C88.967 55.3 89.267 55 90 55Zm-3.393-7c.216 0 .393.675.393 1.5s-.436 1.5-.969 1.5c-.532 0-.71-.675-.393-1.5.317-.825.753-1.5.97-1.5Zm13.424-5c1.084 0 1.969.675 1.969 1.5s-.627 1.5-1.393 1.5-1.652-.675-1.97-1.5c-.39-1.02.055-1.5 1.394-1.5ZM81.25 38.718c.688-.246 1.594-.253 2.016-.014 1.141.647-.169 2.296-1.825 2.296-1.769 0-1.909-1.666-.191-2.282ZM84.941 36c.582 0 1.059.45 1.059 1s-.198 1-.441 1-.72-.45-1.059-1c-.34-.55-.14-1 .441-1Zm-8.302-4.306c.352-.352 1.008-.412 1.457-.135 1.009.624.024 3.441-1.203 3.441-1.026 0-1.207-2.353-.254-3.306Zm11.906-17.103c2.842-2.08 5.913-.297 4.204 2.44-1.454 2.327-1.662 2.349-4.19.437-1.916-1.449-1.916-1.486-.014-2.877ZM82.44 6C83.298 6 84 6.45 84 7s-.423 1-.941 1-1.22-.45-1.559-1c-.34-.55.084-1 .941-1ZM86 0c.55 0 1 .45 1 1s-.45 1-1 1-1-.45-1-1 .45-1 1-1Z" fill="#C98039" id="a" data-figma-scatter-ref="stroke0_1294_274_ref" data-figma-scatter="f0.45_w0_aj180_sj0_r179_s1942350984903767335_sw4"/></defs></svg>