<svg width="76" height="32" viewBox="0 0 76 32" fill="none" xmlns="http://www.w3.org/2000/svg">
<path d="M57.3985 10.0882C57.3985 10.0882 57.3475 9.76971 61.2093 9.65949C65.071 9.54927 67.5398 9.28669 67.6713 9.8602C67.8027 10.4337 62.8099 13.5815 60.6026 12.3464C58.3953 11.1112 57.3985 10.0882 57.3985 10.0882Z" fill="#16294C"/>
<path d="M70.7155 28.1953L66.4845 28.9897C66.4845 28.9897 65.2599 20.5485 63.157 20.0741C61.0541 19.5995 60.961 28.847 60.961 28.847L55.8926 28.5933C55.8953 28.558 56.2405 13.5841 57.4013 10.0869C57.6363 10.1094 59.313 10.388 62.187 10.5445C64.4572 10.6526 66.8507 10.5714 67.6738 9.85938C68.1291 11.8591 69.9168 19.6978 70.1467 21.7441C70.4024 24.0119 70.7155 28.1953 70.7155 28.1953Z" fill="#4BA9B4"/>
<path d="M55.8912 28.5924C55.8808 27.0418 55.9031 25.4913 55.9514 23.9417C56.0366 21.0632 56.4058 12.7888 57.3999 10.0859C56.7206 12.5342 56.3375 20.6581 56.1524 23.9503L55.8912 28.5924Z" fill="#0B2B52"/>
<path d="M63.1569 20.0736C63.0585 20.0577 62.9582 20.0601 62.864 20.085C61.8929 20.333 61.5383 23.0983 61.4098 24.104C61.1142 26.5549 61.0833 28.8462 61.076 28.9721C60.9467 28.9628 57.8958 28.7882 55.8926 28.5927C57.8972 28.5982 60.8307 28.7243 60.967 28.7281L60.8427 28.8452C60.8509 27.0569 61.1083 21.1855 62.5793 20.1792C62.7538 20.0631 62.9332 20.0177 63.1569 20.0736Z" fill="#0B2B52"/>
<path d="M66.4856 28.9908C66.0184 26.8215 65.3647 23.8531 64.58 21.9423C64.2943 21.2643 63.8286 20.2853 63.1582 20.0752C64.8069 20.3747 65.8413 24.8955 66.1474 26.5646C66.2973 27.3677 66.4124 28.1773 66.4856 28.9908Z" fill="#0B2B52"/>
<path d="M66.0742 27.7836L70.6181 26.9395L70.7773 28.504L66.3394 29.128L66.0742 27.7836Z" fill="#B7F7FF"/>
<path d="M55.5918 27.4824L61.1967 27.6723L61.0763 28.9736L55.7521 28.8173L55.5918 27.4824Z" fill="#B7F7FF"/>
<path d="M68.0907 11.6998C67.8022 11.8349 67.4926 11.9747 67.161 12.1189C66.026 12.6122 64.6462 12.7632 63.2396 12.7219C60.9345 12.6542 58.5542 12.0706 57.0469 11.624C57.0625 11.5339 57.078 11.4463 57.0947 11.3601C58.289 11.7109 60.0487 12.1533 61.8737 12.3532L61.9271 10.5342L62.1856 10.5418L62.1316 12.3802C63.885 12.5494 65.6752 12.4816 67.0578 11.8818C67.4078 11.7303 67.7317 11.5833 68.0322 11.4407C68.0519 11.5239 68.0713 11.6112 68.0907 11.6998Z" fill="#B7F7FF"/>
<path d="M63.6403 11.7778C63.6315 12.0797 63.3796 12.3172 63.0776 12.3084C62.7758 12.2996 62.5382 12.0476 62.5471 11.7457C62.556 11.4439 62.808 11.2063 63.1098 11.2151C63.4116 11.224 63.6492 11.4758 63.6403 11.7778Z" fill="#B7F7FF"/>
<path d="M67.2384 11.9726L66.9844 12.0225L67.0465 12.3392L67.3005 12.2893L67.2384 11.9726Z" fill="#B7F7FF"/>
<path d="M69.6871 26.628C69.6564 26.4345 69.6216 26.216 69.5828 25.9764L69.8383 25.9351C69.8769 26.175 69.9117 26.3937 69.9426 26.5875L69.6871 26.628ZM69.4767 25.3249C69.4425 25.1177 69.4063 24.9002 69.3685 24.6741L69.6234 24.6313C69.6615 24.8578 69.6976 25.0755 69.7319 25.283L69.4767 25.3249ZM69.2582 24.0234C69.222 23.8117 69.1845 23.5947 69.1458 23.3732L69.4005 23.3287C69.4392 23.5503 69.477 23.7679 69.5132 23.9797L69.2582 24.0234ZM69.031 22.7238C68.9928 22.5099 68.9535 22.293 68.9136 22.0744L69.1682 22.0279C69.2082 22.2468 69.2472 22.4639 69.2856 22.678L69.031 22.7238ZM68.794 21.4249L68.6724 20.7756L68.9265 20.7278L69.0483 21.3776L68.794 21.4249ZM68.5495 20.1267L68.4261 19.4776L68.6802 19.4292L68.8037 20.0786L68.5495 20.1267ZM68.3019 18.8288L68.1775 18.18L68.4314 18.1311L68.5561 18.7802L68.3019 18.8288ZM68.0524 17.5314L67.9271 16.8826L68.181 16.8335L68.3063 17.4821L68.0524 17.5314ZM67.8014 16.2341L67.6757 15.5855L67.9296 15.5364L68.0553 16.1851L67.8014 16.2341ZM67.5498 14.9369L67.4233 14.2884L67.6772 14.239L67.8037 14.8875L67.5498 14.9369ZM67.2968 13.6398L67.1699 12.9911L67.4239 12.9414L67.5507 13.5902L67.2968 13.6398Z" fill="#B7F7FF"/>
<path d="M69.8397 27.5865L69.791 27.268L70.0467 27.2285L70.0956 27.5479L69.8397 27.5865Z" fill="#B7F7FF"/>
<path d="M57.8424 11.9418L57.5859 11.9088C57.6126 11.7009 57.6278 11.5879 57.6278 11.5879L57.8843 11.6222C57.8841 11.6224 57.8691 11.7349 57.8424 11.9418Z" fill="#B7F7FF"/>
<path d="M56.568 27.2023C56.5464 27.0062 56.5288 26.7901 56.5154 26.5602L56.7736 26.545C56.7869 26.7709 56.8042 26.9824 56.825 27.1742L56.568 27.2023ZM56.489 25.9188C56.4837 25.713 56.4809 25.499 56.4805 25.2777L56.739 25.2772C56.7395 25.4962 56.7424 25.7082 56.7475 25.9121L56.489 25.9188ZM56.4848 24.6374C56.488 24.4291 56.4928 24.2156 56.4992 23.998L56.7578 24.0056C56.7514 24.2219 56.7467 24.434 56.7434 24.6415L56.4848 24.6374ZM56.7801 23.3693L56.5216 23.3586C56.5302 23.1484 56.5401 22.9352 56.5509 22.7196L56.8093 22.7328C56.7984 22.9474 56.7887 23.1598 56.7801 23.3693ZM56.8442 22.0964L56.5858 22.0812C56.5983 21.8701 56.6116 21.6573 56.6257 21.4434L56.8837 21.4603C56.8698 21.6737 56.8564 21.8858 56.8442 22.0964ZM56.9281 20.8244L56.6701 20.8057C56.6855 20.5935 56.7016 20.3808 56.7182 20.1681L56.976 20.1882C56.9595 20.4005 56.9434 20.6126 56.9281 20.8244ZM57.0274 19.5526L56.7695 19.5312C56.7873 19.3186 56.8056 19.1064 56.8242 18.8952L57.0818 18.9179C57.0632 19.1287 57.045 19.3406 57.0274 19.5526ZM57.1394 18.2825L56.8819 18.2588C56.9016 18.0449 56.9218 17.8327 56.942 17.6227L57.1995 17.6477C57.1792 17.8573 57.1592 18.0693 57.1394 18.2825ZM57.262 17.0128L57.0048 16.9871C57.0263 16.7718 57.048 16.5598 57.0697 16.3515L57.327 16.3783C57.3052 16.5863 57.2835 16.7981 57.262 17.0128ZM57.394 15.7437L57.1368 15.7161C57.1601 15.4989 57.1833 15.2869 57.206 15.0811L57.4632 15.1096C57.4405 15.3151 57.4172 15.5269 57.394 15.7437ZM57.5343 14.4756L57.2774 14.4463C57.3025 14.225 57.3272 14.0132 57.3508 13.8118L57.6077 13.8418C57.5841 14.0429 57.5595 14.2546 57.5343 14.4756ZM57.6831 13.2083L57.4262 13.1774C57.4542 12.9434 57.4803 12.7309 57.5039 12.543L57.7605 12.5747C57.7372 12.7624 57.7111 12.9744 57.6831 13.2083Z" fill="#B7F7FF"/>
<path d="M56.7471 28.1619C56.7177 28.0651 56.6905 27.9558 56.666 27.837L56.9195 27.7852C56.9422 27.8961 56.9674 27.9977 56.9946 28.0867L56.7471 28.1619Z" fill="#B7F7FF"/>
<path d="M59.1494 10.3037C59.1494 10.3037 58.831 11.4204 59.0949 12.158L59.5436 12.255L59.5996 10.3506L59.1494 10.3037Z" fill="#B7F7FF"/>
<path d="M65.5478 10.5023L65.4863 12.5934L66.012 12.4911L66.0724 10.4344C66.0724 10.4344 65.7272 10.333 65.5478 10.5023Z" fill="#B7F7FF"/>
<path d="M62.2983 12.6455C62.1488 15.4979 61.8855 18.2714 62.1829 18.9747C62.5115 19.5968 63.2877 19.713 63.9903 19.6496C63.644 19.7391 63.277 19.7544 62.9141 19.6914C62.7338 19.6531 62.5566 19.586 62.3954 19.4842C62.2296 19.3848 62.1041 19.2346 62.0023 19.0651C61.9113 18.88 61.8833 18.6983 61.8553 18.5167C61.6519 17.0084 62.0033 14.1593 62.2983 12.6455Z" fill="#0B2B52"/>
<path d="M49.33 27.6208L49.4924 25.3467L46.0547 25.4274L45.584 26.4455L45.9715 28.114L49.33 27.6208Z" fill="#B0CCCF"/>
<path d="M37.3942 27.7859L38.1436 26.1611L37.1154 24.453L35.3914 24.3574L34.5901 24.8388L34.4102 27.0109L37.3942 27.7859Z" fill="#B0CCCF"/>
<path d="M34.5898 24.8399C36.2897 24.2775 38.1433 26.1621 38.1433 26.1621C41.0138 24.1653 42.2471 18.8146 42.2471 18.8146C43.2887 25.4866 45.5824 26.4457 45.5824 26.4457C46.3835 25.0367 49.4799 25.5919 49.4799 25.5919C49.8431 18.0537 48.3239 10.3287 48.1012 10.4071C44.7266 11.5724 37.9575 10.2441 37.9575 10.2441C36.6082 12.9794 34.5924 24.8287 34.5898 24.8399Z" fill="#2D5186"/>
<path d="M45.584 26.4444C46.2746 25.4047 48.2416 25.4723 49.4814 25.5906C48.2549 25.3071 46.1378 25.3088 45.584 26.4444Z" fill="#84CCAF"/>
<path d="M34.5898 24.8402C35.8368 24.5262 37.166 25.3309 38.1433 26.1624C37.3086 25.2265 35.7889 24.3618 34.5898 24.8402Z" fill="#84CCAF"/>
<path d="M37.9575 10.2441C36.3844 14.3668 35.2657 20.4615 34.5898 24.8399C35.1842 21.7085 36.798 12.9822 37.9575 10.2441Z" fill="#84CCAF"/>
<path d="M48.5645 21.9805C48.8017 22.9916 49.1576 24.6787 48.5678 25.4553C49.2959 24.7695 48.9499 22.9326 48.5645 21.9805Z" fill="#84CCAF"/>
<path d="M47.6562 24.0752C47.6722 24.483 47.8067 25.1015 47.967 25.4853C47.9514 25.079 47.8168 24.4607 47.6562 24.0752Z" fill="#84CCAF"/>
<path d="M45.0918 23.2529C45.1426 24.0609 45.5745 25.9581 46.3204 25.8505C45.6426 25.8113 45.2581 23.9617 45.0918 23.2529Z" fill="#84CCAF"/>
<path d="M35.8452 22.1582C35.6003 22.7772 35.1959 24.38 35.6341 24.7236C35.3572 24.3793 35.6616 23.1601 35.8452 22.1582Z" fill="#84CCAF"/>
<path d="M37.9957 23.3271C37.6199 24.1832 37.3282 25.1424 37.0586 25.3258C37.4781 25.1817 37.9034 23.825 37.9957 23.3271Z" fill="#84CCAF"/>
<path d="M38.5376 24.916C38.2186 25.1773 37.8723 25.5628 37.5977 25.643C37.9262 25.6966 38.3834 25.2368 38.5376 24.916Z" fill="#84CCAF"/>
<path d="M37.3965 11.732C37.924 12.028 38.666 12.3788 39.707 12.7814C42.6374 13.9145 46.8552 12.5639 48.5082 11.9424C48.3165 10.9524 48.1561 10.3867 48.0979 10.4071C44.7233 11.5724 37.9542 10.2441 37.9542 10.2441C37.7771 10.6032 37.5901 11.1142 37.3965 11.732Z" fill="#B0CCCF"/>
<path d="M37.3965 11.7324C38.0521 12.1444 38.9425 12.5546 39.6672 12.8509C40.0249 12.9516 40.1791 13.1088 41.4409 13.2795C43.2514 13.4476 45.7552 13.114 48.5083 11.9428C42.0736 13.9957 39.9514 12.7052 39.7241 12.7038C39.5506 12.6384 39.2132 12.5185 38.7149 12.3175C38.2674 12.1416 37.8286 11.9456 37.3965 11.7324Z" fill="#84CCAF"/>
<path opacity="0.49" d="M46.0303 13.6523C46.9975 13.6532 47.8189 14.3643 48.0152 15.3114C48.4018 17.176 49.0218 20.7249 48.38 21.7146C47.4969 23.0762 44.1243 18.7823 44.1884 16.8002C44.2377 15.2785 44.5243 13.651 46.0303 13.6523Z" fill="#84CCAF"/>
<path d="M18.0479 9.98991L19.0818 6.98633C19.0818 6.98633 15.7705 9.14603 12.0469 7.80582L12.2901 11.1895L15.5062 11.8808L18.0479 9.98991Z" fill="#4A9E8E"/>
<path d="M8.62412 9.88758C8.63184 9.91118 8.64694 10.3675 9.05747 10.6749C9.71555 11.1674 9.44339 10.8262 21.2447 9.20903C21.8319 9.12289 22.2423 8.57477 22.1598 7.98706C22.0846 7.45191 21.6378 7.05995 21.0975 7.05492C14.9013 7.00771 15.2373 6.97807 15.0065 7.02281L14.7367 5.45843C15.4633 5.35664 16.0073 4.77519 15.9734 4.10525C15.8949 2.5553 13.3716 2.45698 13.0983 3.98657C13.0684 4.15402 13.3215 4.1991 13.3514 4.03176C13.5714 2.80061 15.6536 2.87265 15.7168 4.11834C15.7459 4.69006 15.2359 5.18225 14.5802 5.21547L14.4354 5.22274L14.7574 7.08903L9.38578 8.69961C8.86943 8.85431 8.54917 9.354 8.62412 9.88758ZM9.00601 9.83388C8.95758 9.49036 9.16385 9.16864 9.4963 9.06898L15.0115 7.41522C15.2162 7.35381 14.869 7.39777 21.094 7.44039C21.4418 7.44363 21.7297 7.69611 21.778 8.04064C21.8313 8.41906 21.5669 8.77221 21.1888 8.82758C8.7899 10.5693 9.35222 10.9291 9.00601 9.83388Z" fill="#CC8B84"/>
<path d="M31.0437 22.9982C31.0437 22.9982 28.462 26.2784 21.9061 27.8799C15.3501 29.4814 6.98355 32.6002 7.09485 30.861C7.20615 29.1218 8.24949 27.5966 14.5494 25.0798C20.8491 22.5629 22.8467 21.8391 26.0061 21.4492C29.1654 21.0595 31.0437 22.9982 31.0437 22.9982Z" fill="#4A9E8E"/>
<path d="M21.0753 13.0771C21.0753 13.0771 23.5109 14.3998 27.1478 18.5403C30.7085 22.5944 31.0426 22.9978 31.0426 22.9978C31.0426 22.9978 30.4203 22.8819 23.3747 25.2564C14.579 28.2206 7.63874 28.3254 7.09375 30.8606C7.09375 30.8606 7.69825 17.5136 10.7379 14.511L21.0753 13.0771Z" fill="#61DBC4"/>
<path d="M21.2703 6.65137C21.2703 6.65137 19.703 11.9233 21.0724 13.0778C21.0724 13.0778 15.927 16.8464 10.735 14.5115C10.735 14.5115 10.175 9.22798 9.38281 8.69921L12.0469 7.80622C12.0469 7.80622 13.1417 11.1415 15.3914 11.0598C17.6413 10.9782 19.0817 6.98661 19.0817 6.98661L21.2703 6.65137Z" fill="#78EAD4"/>
<path d="M12.2837 15.0943C11.8069 15.7596 10.5918 17.3014 10.2793 17.7746C10.6024 17.0078 11.6101 15.7534 12.2578 15.0872C11.738 14.9482 11.2288 14.7585 10.738 14.5109C12.0658 14.9721 11.9562 14.8687 12.3665 14.9772C12.4505 14.9701 16.2493 16.0204 21.0756 13.0771C19.0862 14.6199 16.4196 15.5376 13.8481 15.3521C12.6231 17.1066 11.5591 18.7669 11.0467 20.5985C11.2586 18.949 12.6977 16.6943 13.8195 15.3502C13.3013 15.3109 12.7875 15.2272 12.2837 15.0943Z" fill="#399986"/>
<path d="M24.2844 16.1252C23.389 15.1725 21.8539 13.6137 20.5781 13.4414C21.8877 13.4369 23.5271 15.0553 24.2844 16.1252Z" fill="#399986"/>
<path d="M22.312 18.4964L21.9639 17.9371C21.3996 16.9742 19.7706 14.1566 19.4453 14.1211C19.9278 14.1158 21.7314 17.2756 22.312 18.4964Z" fill="#399986"/>
<path d="M18.7262 20.2092C18.0294 19.3398 17.793 15.9515 17.7832 14.8291C18.0356 16.7949 18.2588 19.444 18.7262 20.2092Z" fill="#399986"/>
<path d="M15.2057 15.3545C15.0053 17.4023 14.482 20.8809 14.0117 22.8929C14.0905 22.3828 13.7041 24.8185 15.2057 15.3545Z" fill="#399986"/>
<path d="M18.3094 12.0423C18.326 12.3721 18.6069 12.626 18.9368 12.6092C19.2666 12.5925 19.5204 12.3115 19.5036 11.9818C19.4868 11.652 19.206 11.3982 18.8762 11.4148C18.5464 11.4315 18.2927 11.7124 18.3094 12.0423Z" fill="#FDFFFF"/>
<path d="M15.9928 14.0791C16.0065 14.3494 16.2368 14.5573 16.5069 14.5437C16.7772 14.53 16.9851 14.2998 16.9715 14.0295C16.9577 13.7593 16.7275 13.5513 16.4573 13.5651C16.1872 13.5786 15.9792 13.8088 15.9928 14.0791Z" fill="#FDFFFF"/>
<path d="M12.4733 12.2118C12.489 12.5219 12.8034 12.7579 13.1754 12.7391C13.5475 12.7202 13.8364 12.4537 13.8208 12.1436C13.805 11.8335 13.4907 11.5975 13.1186 11.6163C12.7464 11.6352 12.4575 11.9019 12.4733 12.2118Z" fill="#FDFFFF"/>
<path d="M10.6959 9.32231C10.7083 9.56796 10.9176 9.7569 11.1631 9.74448C11.4087 9.73206 11.5978 9.52288 11.5853 9.27723C11.5729 9.0317 11.3636 8.84265 11.1181 8.85507C10.8724 8.86749 10.6835 9.07678 10.6959 9.32231Z" fill="#FDFFFF"/>
<path d="M18.8738 9.0401C18.89 9.35902 19.1616 9.60444 19.4806 9.58833C19.7996 9.57211 20.045 9.30051 20.0288 8.9816C20.0126 8.66268 19.7409 8.41726 19.422 8.43337C19.1031 8.44947 18.8577 8.72119 18.8738 9.0401Z" fill="#FDFFFF"/>
<path d="M13.432 14.025C13.4406 14.194 13.5845 14.324 13.7535 14.3155C13.9225 14.307 14.0526 14.163 14.0441 13.994C14.0355 13.825 13.8917 13.695 13.7225 13.7035C13.5535 13.712 13.4235 13.856 13.432 14.025Z" fill="#FDFFFF"/>
<path d="M11.1415 23.7238C11.1606 24.1007 11.4816 24.3907 11.8585 24.3717C12.2354 24.3525 12.5255 24.0316 12.5063 23.6546C12.4872 23.2778 12.1662 22.9877 11.7893 23.0067C11.4124 23.0258 11.1224 23.3469 11.1415 23.7238Z" fill="#FDFFFF"/>
<path d="M12.1374 20.5368C12.1525 20.8344 12.406 21.0635 12.7038 21.0484C13.0015 21.0333 13.2305 20.7799 13.2154 20.4821C13.2003 20.1844 12.9469 19.9553 12.6491 19.9704C12.3514 19.9855 12.1223 20.2391 12.1374 20.5368Z" fill="#FDFFFF"/>
<path d="M15.8739 18.5121C15.8924 18.8763 16.2026 19.1565 16.5668 19.1381C16.931 19.1196 17.2112 18.8094 17.1928 18.4452C17.1743 18.081 16.8641 17.8008 16.5 17.8192C16.1358 17.8377 15.8555 18.1479 15.8739 18.5121Z" fill="#FDFFFF"/>
<path d="M17.7977 22.8635C17.8158 23.2199 18.1194 23.4943 18.4759 23.4762C18.8323 23.4581 19.1067 23.1546 19.0886 22.7981C19.0706 22.4417 18.767 22.1674 18.4105 22.1854C18.054 22.2034 17.7797 22.507 17.7977 22.8635Z" fill="#FDFFFF"/>
<path d="M20.7038 20.0883C20.7185 20.3775 20.965 20.6004 21.2544 20.5856C21.5437 20.571 21.7664 20.3245 21.7517 20.0351C21.7369 19.7458 21.4905 19.523 21.2011 19.5378C20.9119 19.5525 20.6893 19.7989 20.7038 20.0883Z" fill="#FDFFFF"/>
<path d="M22.6198 17.3557C22.6339 17.6343 22.8712 17.8486 23.1496 17.8345C23.4281 17.8204 23.6424 17.5832 23.6283 17.3046C23.6143 17.0261 23.377 16.8118 23.0985 16.8259C22.8199 16.8401 22.6056 17.0773 22.6198 17.3557Z" fill="#FDFFFF"/>
<path d="M26.7488 20.6851C26.7648 21.0001 27.0331 21.2426 27.3482 21.2266C27.6632 21.2106 27.9057 20.9422 27.8898 20.6272C27.8737 20.3122 27.6054 20.0697 27.2903 20.0857C26.9752 20.1017 26.7328 20.3701 26.7488 20.6851Z" fill="#FDFFFF"/>
<path d="M23.9793 23.1539C23.9961 23.4859 24.2791 23.7416 24.611 23.7248C24.9431 23.708 25.1986 23.4251 25.1818 23.0931C25.165 22.761 24.8821 22.5055 24.5501 22.5223C24.218 22.539 23.9624 22.8219 23.9793 23.1539Z" fill="#FDFFFF"/>
<path d="M9.84462 27.0286C9.85995 27.3297 10.0734 27.5637 10.3215 27.5512C10.5695 27.5387 10.7582 27.2843 10.743 26.9831C10.7277 26.6819 10.5142 26.4479 10.2662 26.4604C10.0181 26.473 9.8293 26.7273 9.84462 27.0286Z" fill="#FDFFFF"/>
<path d="M13.8661 26.3891C13.8845 26.7523 14.194 27.0319 14.5572 27.0135C14.9204 26.9952 15.1999 26.6858 15.1815 26.3224C15.1631 25.9592 14.8536 25.6797 14.4905 25.6981C14.1272 25.7165 13.8477 26.0259 13.8661 26.3891Z" fill="#FDFFFF"/>
<path d="M10.3387 17.3151C10.3556 17.6483 10.6394 17.9047 10.9724 17.8878C11.3056 17.8709 11.562 17.5871 11.545 17.2541C11.5281 16.9209 11.2443 16.6646 10.9113 16.6815C10.5781 16.6982 10.3218 16.982 10.3387 17.3151Z" fill="#FDFFFF"/>
<path opacity="0.41" d="M20.6113 14.0908C20.6113 14.0908 29.2363 21.8016 29.2649 22.3683C29.2937 22.9349 27.7688 23.945 26.7466 23.45C25.7244 22.955 20.6113 14.0908 20.6113 14.0908Z" fill="#78EAD4"/>
<path opacity="0.41" d="M19.498 15.1357C19.498 15.1357 23.5311 22.2166 22.8335 23.6831C22.136 25.1496 21.0513 24.4671 20.837 24.2735C20.6227 24.0797 19.498 15.1357 19.498 15.1357Z" fill="#78EAD4"/>
<path opacity="0.41" d="M17.1305 15.8564C17.1305 15.8564 19.399 24.76 18.4397 25.8218C17.4803 26.8836 16.4112 27.0504 15.9774 26.1075C15.5437 25.1645 17.1305 15.8564 17.1305 15.8564Z" fill="#78EAD4"/>
<path d="M14.4379 5.93676C14.4464 6.10511 14.5897 6.23465 14.758 6.22615C14.9264 6.21754 15.0559 6.07424 15.0474 5.90589C15.0389 5.73754 14.8955 5.608 14.7272 5.61662C14.5589 5.62512 14.4294 5.76852 14.4379 5.93676Z" fill="#F92515"/>
<path d="M14.557 6.76111C14.5655 6.92801 14.7077 7.05642 14.8745 7.04792C15.0413 7.03942 15.1698 6.89735 15.1612 6.73057C15.1528 6.56367 15.0106 6.43526 14.8438 6.44376C14.677 6.45226 14.5485 6.59432 14.557 6.76111Z" fill="#F72FB4"/>
<path d="M14.7592 5.81228C14.7874 5.85568 14.8879 5.94025 14.9314 5.91217C14.9748 5.88409 14.9447 5.754 14.9166 5.71048C14.8884 5.66708 14.7555 5.6324 14.7122 5.66059C14.6687 5.68867 14.7311 5.76876 14.7592 5.81228Z" fill="#FF8B88"/>
<path d="M14.8438 6.69134C14.8843 6.77401 14.9548 6.82244 15.0012 6.79973C15.0477 6.77703 15.1084 6.67244 15.0679 6.58988C15.0274 6.50733 14.9012 6.4778 14.8547 6.50062C14.8083 6.52321 14.8034 6.60868 14.8438 6.69134Z" fill="#F72FB4"/>
<path d="M42.4569 8.48207C37.8156 8.34578 32.8822 8.02143 27.7095 7.51147C13.8904 6.149 3.01444 3.90223 2.90625 3.87968L2.94256 3.70508C3.05075 3.72756 13.919 5.9727 27.7289 7.33421C40.4709 8.59048 58.3931 9.32984 71.4155 5.71861L71.4631 5.89054C65.6996 7.48876 58.5083 8.37736 50.089 8.53169C47.6467 8.57628 45.0989 8.55965 42.4569 8.48207Z" fill="#CC8B84"/>
<path d="M71.4414 6.07517C71.4574 4.96421 71.6762 2.85809 72.5967 2.23668C74.2765 1.10383 78.7012 5.95781 71.4414 6.07517ZM72.6966 2.38473C71.768 3.01146 71.6399 5.39209 71.6232 5.89318C78.3103 5.65202 74.0916 1.44267 72.6966 2.38473Z" fill="#CC8B84"/>
<path d="M71.5703 6.24633L71.7014 6.21941C74.5692 5.62936 76.7356 8.52823 75.2817 9.11096C74.1 9.58446 72.2936 7.2982 71.5703 6.24633ZM71.8725 6.36894C72.2755 6.93097 74.1164 9.38509 75.2153 8.94538C76.3736 8.48142 74.4927 5.93174 71.8725 6.36894Z" fill="#CC8B84"/>
<path d="M72.1137 6.00187C72.1042 6.32444 71.8351 6.57824 71.5125 6.56877C71.1899 6.55931 70.936 6.29013 70.9456 5.96755C70.955 5.64498 71.2242 5.39118 71.5468 5.40065C71.8694 5.41011 72.1232 5.67929 72.1137 6.00187Z" fill="#463954"/>
<path d="M71.7322 5.85058C71.7272 6.01882 71.5768 6.15089 71.3963 6.14564C71.2157 6.14032 71.0734 5.99959 71.0782 5.83135C71.0832 5.66312 71.2336 5.53096 71.4142 5.53629C71.5947 5.54169 71.7371 5.68234 71.7322 5.85058Z" fill="#E1DAE8"/>
<path d="M0.57625 2.95049C-0.097145 2.39001 -0.120366 1.40018 0.199619 0.753336C0.842621 -0.545904 2.82694 -0.500276 3.3761 3.61479C3.36678 3.61464 1.72922 3.91015 0.57625 2.95049ZM0.359501 0.832464C0.0698358 1.41815 0.087288 2.3114 0.690356 2.81338C1.57754 3.55171 2.83367 3.49328 3.1748 3.46141C2.6005 -0.256683 0.91635 -0.292918 0.359501 0.832464Z" fill="#CC8B84"/>
<path d="M0.588459 5.72069C0.317356 5.29762 0.275277 4.82271 0.481156 4.511C0.85054 3.95164 2.37666 3.92302 3.04784 3.95023C3.28581 6.93067 1.27923 6.79926 0.588459 5.72069ZM2.88152 4.12224C2.28526 4.10575 0.924861 4.16292 0.630019 4.60936C0.269657 5.15511 0.92989 6.38898 1.99522 6.22525C2.91939 6.0832 2.89935 4.49666 2.88152 4.12224Z" fill="#CC8B84"/>
<path d="M2.61281 3.59776C2.51986 3.9068 2.69497 4.23263 3.00401 4.32558C3.31305 4.41854 3.63888 4.24342 3.73184 3.93438C3.82479 3.62534 3.64968 3.29951 3.34056 3.20656C3.03167 3.1136 2.70577 3.28879 2.61281 3.59776Z" fill="#463954"/>
<path d="M3.02584 3.5758C2.97732 3.73701 3.07827 3.90984 3.25124 3.9619C3.42421 4.01396 3.60376 3.92544 3.65227 3.7643C3.70071 3.60309 3.59984 3.43027 3.42687 3.3782C3.2539 3.32614 3.07435 3.41466 3.02584 3.5758Z" fill="#E1DAE8"/>
<path d="M42.9478 6.83296L43.2333 8.50993L44.8263 6.9894L44.9314 7.07195L42.618 11.0459L42.2734 10.8788L42.8237 6.83008L42.9478 6.83296Z" fill="#2D5186"/>
<path d="M44.3839 7.69043L42.869 10.1816L42.7324 10.0744L42.9945 8.89792L44.3839 7.69043Z" fill="#2D5186"/>
<path d="M42.2476 8.54014C42.5965 8.09558 43.2418 8.01779 43.6863 8.36669C44.1307 8.7156 44.2085 9.36098 43.8597 9.80554C43.5108 10.25 42.8654 10.3277 42.4209 9.97898C41.9764 9.63008 41.8987 8.9847 42.2476 8.54014ZM42.3498 8.62052C42.0453 9.00861 42.1132 9.57202 42.5013 9.87656C42.8893 10.1811 43.4528 10.1132 43.7573 9.72515C44.0618 9.33706 43.994 8.77365 43.6059 8.46912C43.2179 8.16458 42.6544 8.23243 42.3498 8.62052Z" fill="#2D5186"/>
<path d="M63.1152 6.04358L63.3787 7.75966L64.8762 6.199L64.9747 6.28318L62.7953 10.3575L62.4727 10.1874L62.9988 6.04102L63.1152 6.04358Z" fill="#4BA9B4"/>
<path d="M64.4648 6.91895L63.0379 9.47315L62.9102 9.36374L63.1587 8.15851L64.4648 6.91895Z" fill="#4BA9B4"/>
<path d="M62.4562 7.79658C62.7846 7.34061 63.3899 7.25935 63.8058 7.61536C64.2218 7.97137 64.2931 8.63202 63.9648 9.08787C63.6365 9.54383 63.0311 9.6251 62.6152 9.26908C62.1992 8.91307 62.128 8.25242 62.4562 7.79658ZM62.5521 7.87854C62.2656 8.27659 62.3277 8.85329 62.6908 9.16411C63.0538 9.47494 63.5824 9.40406 63.8691 9.00602C64.1556 8.60797 64.0934 8.03127 63.7304 7.72045C63.3671 7.4095 62.8386 7.4805 62.5521 7.87854Z" fill="#4BA9B4"/>
</svg>
