<svg width="10" height="10" fill="none" xmlns="http://www.w3.org/2000/svg"><circle cx="5" cy="5" r="5" transform="matrix(-1 0 0 1 10 0)" fill="#FED7AA"/><path d="M5 4.822c0 .296.16.536.357.536.197 0 .357-.24.357-.536 0-.296-.16-.536-.357-.536-.197 0-.357.24-.357.536ZM1.429 4.822c0 .296.16.536.357.536.197 0 .357-.24.357-.536 0-.296-.16-.536-.357-.536-.197 0-.357.24-.357.536ZM3.754 6.581c0-.083-.061-.151-.137-.151-.076 0-.137.068-.137.151v1.446c-.207.116-.494.218-.758.202a.662.662 0 0 1-.39-.147c-.112-.092-.212-.24-.278-.475-.022-.08-.1-.125-.172-.1-.072.025-.113.11-.09.19.08.286.21.491.375.628a.92.92 0 0 0 .539.207c.33.02.666-.104.9-.237.202.15.496.292.805.276a.859.859 0 0 0 .524-.212c.164-.14.305-.353.412-.651.028-.078-.006-.166-.077-.197-.07-.031-.15.007-.178.085-.094.26-.209.424-.325.524a.6.6 0 0 1-.369.148c-.234.012-.475-.102-.644-.228V6.58Z" fill="#2F2F2F"/><path d="M3.374 7.018c.1.168.295.168.395 0l.464-.783c.126-.212.01-.52-.197-.52h-.93c-.206 0-.323.308-.197.52l.465.783Z" fill="#2F2F2F"/><path d="M9.406 2.148c-.266-.025-.626.03-1.1.182-.074.023-.11.09-.082.151.029.06.111.09.185.067.46-.146.767-.185.965-.167a.493.493 0 0 1 .208.059.245.245 0 0 1 .099.107c.045.095.043.231-.001.392a1.842 1.842 0 0 1-.211.462c-.036.057-.008.128.062.157.07.03.156.007.192-.05a2.05 2.05 0 0 0 .236-.517c.049-.178.065-.37-.012-.53a.491.491 0 0 0-.197-.211.816.816 0 0 0-.344-.102ZM.594 2.15c.266-.031.626.038 1.1.226.074.03.11.114.082.19a.142.142 0 0 1-.185.083c-.46-.182-.767-.231-.965-.208a.423.423 0 0 0-.208.073.291.291 0 0 0-.099.134c-.045.119-.043.29.001.49.044.196.124.402.211.577a.148.148 0 0 1-.062.197.141.141 0 0 1-.192-.064 2.905 2.905 0 0 1-.236-.645c-.049-.222-.065-.462.012-.662a.583.583 0 0 1 .197-.264.702.702 0 0 1 .344-.127Z" fill="#000"/></svg>