<svg width="19" height="19" viewBox="0 0 19 19" fill="none" xmlns="http://www.w3.org/2000/svg">
<g id="Group 4115">
<circle id="Ellipse 161" cx="9.5" cy="9.5" r="9.5" transform="matrix(-1 0 0 1 19 0)" fill="#FED7AA"/>
<g id="Group 4112">
<g id="ENM-anti">
<path id="Ellipse 167" d="M9.78568 9.01786C9.78568 9.58 10.0895 10.0357 10.4643 10.0357C10.839 10.0357 11.1428 9.58 11.1428 9.01786C11.1428 8.45571 10.839 8 10.4643 8C10.0895 8 9.78568 8.45571 9.78568 9.01786Z" fill="#2F2F2F"/>
<path id="Ellipse 168" d="M3.00003 9.01786C3.00003 9.58 3.30384 10.0357 3.67861 10.0357C4.05337 10.0357 4.35718 9.58 4.35718 9.01786C4.35718 8.45571 4.05337 8 3.67861 8C3.30384 8 3.00003 8.45571 3.00003 9.01786Z" fill="#2F2F2F"/>
<g id="Group 4111">
<path id="Vector 1910 (Stroke)" d="M7.41875 12.3614C7.41875 12.2023 7.3019 12.0732 7.15776 12.0732C7.01363 12.0732 6.89678 12.2023 6.89678 12.3614V15.1073C6.50424 15.3277 5.95935 15.5233 5.45678 15.4915C5.18113 15.4741 4.92752 15.3893 4.71512 15.2133C4.50393 15.0383 4.31393 14.7572 4.18822 14.3099C4.14548 14.1579 3.99929 14.0731 3.86165 14.1202C3.72399 14.1674 3.64698 14.3288 3.6897 14.4808C3.84236 15.024 4.08886 15.4149 4.40197 15.6743C4.71388 15.9327 5.07255 16.0446 5.42688 16.067C6.05208 16.1065 6.69155 15.8697 7.13822 15.6182C7.51983 15.9015 8.07996 16.1723 8.66607 16.1424C9.00356 16.1252 9.34798 16.0079 9.66158 15.7396C9.97346 15.4727 10.2406 15.0687 10.445 14.502C10.4984 14.3542 10.433 14.1866 10.2991 14.1277C10.1652 14.0689 10.0135 14.1409 9.96011 14.2887C9.78174 14.7832 9.56385 15.094 9.3418 15.284C9.1215 15.4726 8.88309 15.5543 8.64211 15.5666C8.19687 15.5893 7.73925 15.3731 7.41875 15.1321V12.3614Z" fill="#2F2F2F"/>
<path id="Polygon 1" d="M6.69569 13.1913C6.88516 13.5104 7.25637 13.5104 7.44584 13.1913L8.3288 11.7042C8.56836 11.3007 8.34648 10.7164 7.95373 10.7164L6.18781 10.7164C5.79505 10.7164 5.57317 11.3007 5.81273 11.7042L6.69569 13.1913Z" fill="#2F2F2F"/>
</g>
</g>
<path id="Vector 1911 (Stroke)" d="M17.8718 4.08114C17.3656 4.03406 16.6824 4.13903 15.7806 4.42556C15.6408 4.47 15.5714 4.59902 15.6256 4.71362C15.6798 4.82818 15.8371 4.88498 15.9769 4.84055C16.8495 4.56328 17.4344 4.48838 17.8106 4.52337C17.9945 4.54047 18.1199 4.58306 18.2063 4.63451C18.2916 4.68525 18.3527 4.75268 18.3937 4.83853C18.4801 5.01895 18.4764 5.27837 18.3918 5.58317C18.3089 5.88189 18.1567 6.19443 17.9906 6.46068C17.9224 6.57013 17.9753 6.70424 18.1089 6.76019C18.2425 6.81611 18.4061 6.77269 18.4744 6.66325C18.6553 6.3731 18.826 6.02529 18.9214 5.68184C19.015 5.34448 19.0447 4.97973 18.8994 4.67609C18.8247 4.51995 18.7036 4.3803 18.5255 4.27429C18.3485 4.16899 18.1291 4.10506 17.8718 4.08114Z" fill="black"/>
<path id="Vector 1912 (Stroke)" d="M1.1282 4.08384C1.63443 4.025 2.31764 4.15621 3.21936 4.51437C3.3592 4.56992 3.42865 4.73119 3.37442 4.87445C3.32016 5.01764 3.16291 5.08865 3.02309 5.03312C2.15053 4.68652 1.56558 4.5929 1.18938 4.63663C1.00551 4.65801 0.880142 4.71125 0.793672 4.77556C0.708404 4.83899 0.647339 4.92327 0.606251 5.03058C0.519932 5.25611 0.523611 5.58038 0.608196 5.96138C0.6911 6.33479 0.84333 6.72546 1.00938 7.05827C1.07765 7.19509 1.02465 7.36273 0.891095 7.43265C0.757543 7.50256 0.593882 7.44829 0.525625 7.31148C0.344669 6.94879 0.17396 6.51403 0.0786441 6.08473C-0.0149742 5.66302 -0.0446999 5.20708 0.100569 4.82754C0.175282 4.63235 0.29638 4.4578 0.474526 4.32528C0.651488 4.19366 0.870919 4.11375 1.1282 4.08384Z" fill="black"/>
</g>
</g>
</svg>
