<svg width="50" height="43" viewBox="0 0 50 43" fill="none" xmlns="http://www.w3.org/2000/svg">
<path d="M46.1016 40.1422V11" stroke="#F7F7F7" stroke-width="5" stroke-linecap="round" stroke-linejoin="bevel"/>
<path d="M39.7773 0H43.8437L48.5878 7.00317C48.8137 9.26226 48.136 11.0695 46.3287 11.5214C44.8829 11.8828 43.7684 10.7683 43.3919 10.1659V7.22908L39.7773 0Z" fill="#AD7D4D"/>
<path d="M35.4844 0H39.7766L43.3912 7.22908V9.71408C43.2406 10.3918 42.5327 11.7473 40.9062 11.7473C39.2796 11.7473 38.2706 10.0906 37.9694 9.26226V7.22908L35.4844 0Z" fill="#F7F7F7"/>
<path d="M37.9674 9.94072V7.00391H32.7715V9.71481C33.0727 10.3172 34.0366 11.5673 35.4824 11.748C36.9282 11.9287 37.7415 10.6184 37.9674 9.94072Z" fill="#AD7D4D"/>
<path d="M35.4824 0H31.416L32.7715 7.00318H38.1933L35.4824 0Z" fill="#AD7D4D"/>
<path d="M27.127 0H31.4192L32.7747 7.00317V9.93999C32.6241 10.5424 31.9162 11.7473 30.2897 11.7473C28.2565 11.7473 27.127 9.93999 27.5788 7.00317L27.127 0Z" fill="#F7F7F7"/>
<path d="M22.6068 0H27.1249L27.5768 7.00317C27.8027 8.50923 27.7123 11.5214 25.5436 11.5214C23.3749 11.5214 22.5315 10.4671 22.3809 9.93999V7.00317L22.6068 0Z" fill="#AD7D4D"/>
<path d="M4.30664 40.1422V11" stroke="#F7F7F7" stroke-width="5" stroke-linecap="round" stroke-linejoin="bevel"/>
<path d="M16.9608 7.22908C17.1867 8.73514 17.006 11.7473 14.4758 11.7473C11.9456 11.7473 11.6143 8.73514 11.7649 7.22908L14.2498 0H18.5421L16.9608 7.22908Z" fill="#AD7D4D"/>
<path d="M9.05328 11.7473C6.70383 11.7473 6.41767 8.58454 6.56828 7.00317L9.95688 0H14.2491L11.7642 7.00317C11.8395 8.50923 11.4027 11.7473 9.05328 11.7473Z" fill="#F7F7F7"/>
<path d="M1.37109 7.00317L5.88927 0H10.1815L6.567 7.00317V9.71408C6.34109 10.3918 5.48264 11.7473 3.85609 11.7473C2.22955 11.7473 1.5217 10.3918 1.37109 9.71408V7.00317Z" fill="#AD7D4D"/>
<path d="M18.5423 0H22.8346L22.3827 7.00317V10.1659C22.0815 10.7683 21.1177 11.928 19.6718 11.7473C18.226 11.5665 17.2621 10.3165 16.9609 9.71408V7.00317L18.5423 0Z" fill="#F7F7F7"/>
<rect y="28.1426" width="50" height="1.79817" fill="#CF945A"/>
<rect x="0.916016" y="29.9414" width="48.1651" height="12.5872" fill="#AD7D4D"/>
<path d="M22.5889 17.7028C25.2759 17.5666 28.1298 17.3179 31.12 16.9587C39.1084 15.999 45.3811 14.5633 45.4434 14.5489L45.4203 14.4482C45.3579 14.4626 39.0897 15.8972 31.1065 16.8562C23.7406 17.7411 13.3676 18.3904 5.77933 16.459L5.75391 16.5592C9.11229 17.4139 13.2891 17.84 18.1683 17.8256C19.5837 17.8214 21.0594 17.7804 22.5889 17.7028Z" fill="#EF8A25"/>
<path d="M19.6807 24.5808L19.746 23.666L18.3632 23.6985L18.1738 24.108L18.3297 24.7792L19.6807 24.5808Z" fill="#F4D982"/>
<path d="M14.8781 24.6477L15.1796 23.9941L14.7659 23.307L14.0724 23.2686L13.7501 23.4622L13.6777 24.3359L14.8781 24.6477Z" fill="#F4D982"/>
<path d="M13.75 23.463C14.4338 23.2368 15.1794 23.9949 15.1794 23.9949C16.3341 23.1917 16.8302 21.0393 16.8302 21.0393C17.2492 23.7232 18.1718 24.109 18.1718 24.109C18.4941 23.5422 19.7396 23.7655 19.7396 23.7655C19.8857 20.7333 19.2746 17.6258 19.185 17.6574C17.8276 18.1261 15.1047 17.5918 15.1047 17.5918C14.5619 18.6921 13.751 23.4585 13.75 23.463Z" fill="#F4D982"/>
<path d="M18.1738 24.1078C18.4516 23.6896 19.2429 23.7167 19.7416 23.7643C19.2482 23.6503 18.3966 23.651 18.1738 24.1078Z" fill="#F4D982"/>
<path d="M13.75 23.463C14.2516 23.3366 14.7863 23.6604 15.1794 23.9948C14.8436 23.6183 14.2323 23.2705 13.75 23.463Z" fill="#F4D982"/>
<path d="M15.1047 17.5918C14.4719 19.2502 14.0219 21.7018 13.75 23.463C13.9891 22.2034 14.6382 18.6932 15.1047 17.5918Z" fill="#F4D982"/>
<path d="M19.373 22.3115C19.4685 22.7183 19.6117 23.3969 19.3744 23.7093C19.6673 23.4334 19.5281 22.6945 19.373 22.3115Z" fill="#F4D982"/>
<path d="M19.0078 23.1543C19.0142 23.3184 19.0683 23.5671 19.1328 23.7215C19.1266 23.5581 19.0724 23.3094 19.0078 23.1543Z" fill="#F4D982"/>
<path d="M17.9766 22.8242C17.997 23.1492 18.1707 23.9124 18.4708 23.8691C18.1981 23.8533 18.0435 23.1093 17.9766 22.8242Z" fill="#F4D982"/>
<path d="M14.255 22.3838C14.1565 22.6328 13.9938 23.2775 14.1701 23.4157C14.0587 23.2772 14.1812 22.7868 14.255 22.3838Z" fill="#F4D982"/>
<path d="M15.123 22.8525C14.9719 23.1969 14.8545 23.5827 14.7461 23.6565C14.9148 23.5985 15.0859 23.0528 15.123 22.8525Z" fill="#F4D982"/>
<path d="M15.339 23.4932C15.2107 23.5983 15.0714 23.7533 14.9609 23.7856C15.0931 23.8072 15.277 23.6222 15.339 23.4932Z" fill="#F4D982"/>
<path d="M14.8828 18.1903C15.095 18.3094 15.3935 18.4505 15.8122 18.6124C16.991 19.0682 18.6877 18.5249 19.3526 18.2749C19.2755 17.8767 19.2109 17.6491 19.1875 17.6574C17.8301 18.1261 15.1072 17.5918 15.1072 17.5918C15.0359 17.7362 14.9607 17.9418 14.8828 18.1903Z" fill="#F4D982"/>
<path d="M14.8828 18.1895C15.1465 18.3552 15.5047 18.5202 15.7962 18.6394C15.9401 18.6799 16.0022 18.7431 16.5097 18.8118C17.238 18.8794 18.2452 18.7452 19.3526 18.2741C16.7642 19.0999 15.9105 18.5807 15.8191 18.5802C15.7493 18.5539 15.6136 18.5056 15.4131 18.4248C15.2332 18.3541 15.0566 18.2752 14.8828 18.1895Z" fill="#F4D982"/>
<path opacity="0.49" d="M18.3546 18.9619C18.7436 18.9623 19.074 19.2483 19.153 19.6293C19.3085 20.3793 19.5579 21.8069 19.2997 22.205C18.9445 22.7527 17.5879 21.0255 17.6136 20.2282C17.6335 19.616 17.7488 18.9614 18.3546 18.9619Z" fill="#F4D982"/>
<path d="M14.8279 20.6537L15.2867 20.3322L15.7343 20.6692L15.5703 20.1335L16.0291 19.8119L15.4689 19.8024L15.3049 19.2666L15.1227 19.7964L14.5625 19.7869L15.0101 20.1239L14.8279 20.6537Z" fill="#F4D982"/>
<path d="M14.9199 20.515C15.0182 20.4435 15.0311 20.4433 15.025 20.4347C15.0191 20.4262 15.0113 20.4402 14.9413 20.4867L14.9715 20.3988C14.9738 20.392 14.9635 20.3884 14.9611 20.3953L14.9199 20.515Z" fill="#F4D982"/>
<path d="M15.3796 20.3206C15.386 20.3124 15.373 20.3115 15.2873 20.2441L15.1938 20.3097C15.1879 20.3138 15.1941 20.3229 15.2001 20.3187L15.2871 20.2578C15.3668 20.315 15.3734 20.329 15.3796 20.3206Z" fill="#F4D982"/>
<path d="M15.6464 20.5276C15.609 20.4134 15.6123 20.3992 15.6025 20.4028C15.5924 20.4058 15.6033 20.4173 15.626 20.4985L15.5518 20.4427C15.546 20.4383 15.5394 20.4471 15.5452 20.4514L15.6464 20.5276Z" fill="#F4D982"/>
<path d="M15.5423 20.2069C15.5521 20.2039 15.5422 20.1953 15.5149 20.0984L15.6018 20.0375C15.6078 20.0333 15.6015 20.0243 15.5955 20.0284L15.502 20.094L15.5354 20.2032C15.5363 20.2063 15.5397 20.2078 15.5423 20.2069Z" fill="#F4D982"/>
<path d="M15.8803 19.8413C15.7585 19.8415 15.7483 19.834 15.748 19.8445C15.748 19.8548 15.7608 19.8481 15.8463 19.8517C15.7782 19.902 15.7629 19.9041 15.7689 19.9126C15.7706 19.9151 15.7809 19.9082 15.8803 19.8413Z" fill="#F4D982"/>
<path d="M15.4325 19.834L15.4014 19.7325C15.3994 19.7253 15.3888 19.7288 15.3909 19.7357L15.4244 19.8449L15.5385 19.8469C15.5732 19.8314 15.4828 19.836 15.4325 19.834Z" fill="#F4D982"/>
<path d="M15.3364 19.5313C15.3465 19.5282 15.3362 19.5197 15.303 19.4033C15.2657 19.519 15.2554 19.5267 15.2652 19.5301C15.2751 19.5331 15.2721 19.5202 15.3024 19.4389L15.3296 19.5276C15.3305 19.5307 15.3338 19.5322 15.3364 19.5313Z" fill="#F4D982"/>
<path d="M15.1606 19.8401C15.1934 19.7378 15.2043 19.7285 15.1944 19.725C15.1845 19.7219 15.1876 19.7345 15.1528 19.8289C15.0516 19.8294 15.0412 19.8219 15.041 19.8325C15.041 19.8356 15.0434 19.8381 15.0464 19.8381L15.1606 19.8401Z" fill="#F4D982"/>
<path d="M14.8178 19.8964C14.8242 19.8881 14.8084 19.885 14.7426 19.8328L14.8354 19.8344C14.842 19.8353 14.8435 19.8235 14.8356 19.8234L14.709 19.8213L14.8102 19.8975C14.8126 19.8993 14.8161 19.8987 14.8178 19.8964Z" fill="#F4D982"/>
<path d="M15.0769 20.0864C14.9913 20.0247 14.9841 20.0104 14.9779 20.0188C14.9717 20.0269 14.9848 20.0281 15.0639 20.0904C15.0337 20.1849 15.0228 20.1944 15.0328 20.1978C15.0442 20.2015 15.0468 20.1636 15.0769 20.0864Z" fill="#F4D982"/>
<path d="M14.457 21.3391L14.7761 21.2979L14.914 21.5886L14.9733 21.2724L15.2924 21.2311L15.01 21.0769L15.0694 20.7607L14.8355 20.9817L14.5531 20.8275L14.6909 21.1182L14.457 21.3391Z" fill="#F4D982"/>
<path d="M14.6758 22.3869L14.9949 22.3457L15.1327 22.6364L15.192 22.3202L15.5111 22.2789L15.2287 22.1248L15.2881 21.8086L15.0542 22.0295L14.7718 21.8753L14.9097 22.166L14.6758 22.3869Z" fill="#F4D982"/>
<path d="M42.0917 17.9846L42.5076 16.7764C42.5076 16.7764 41.1756 17.6451 39.6777 17.106L39.7756 18.4671L41.0693 18.7452L42.0917 17.9846Z" fill="#7B5936"/>
<path d="M38.2973 17.9439C38.3004 17.9534 38.3065 18.1369 38.4716 18.2606C38.7364 18.4587 38.6269 18.3214 43.3741 17.6709C43.6102 17.6363 43.7753 17.4158 43.7421 17.1794C43.7119 16.9641 43.5322 16.8064 43.3148 16.8044C40.8224 16.7854 40.9575 16.7735 40.8647 16.7915L40.7561 16.1622C41.0484 16.1213 41.2673 15.8874 41.2536 15.6179C41.222 14.9944 40.207 14.9549 40.0971 15.5701C40.0851 15.6375 40.1869 15.6556 40.1989 15.5883C40.2874 15.0931 41.125 15.1221 41.1504 15.6232C41.1621 15.8531 40.957 16.0511 40.6932 16.0645L40.635 16.0674L40.7645 16.8181L38.6037 17.466C38.396 17.5282 38.2672 17.7292 38.2973 17.9439ZM38.4509 17.9223C38.4315 17.7841 38.5144 17.6547 38.6482 17.6146L40.8667 16.9493C40.949 16.9246 40.8094 16.9423 43.3134 16.9595C43.4533 16.9608 43.5691 17.0623 43.5886 17.2009C43.61 17.3531 43.5036 17.4952 43.3516 17.5175C38.364 18.2181 38.5902 18.3628 38.4509 17.9223Z" fill="#FCBE7F"/>
<path d="M47.3196 23.2181C47.3196 23.2181 46.2811 24.5376 43.6439 25.1818C41.0067 25.826 37.6412 27.0806 37.686 26.381C37.7308 25.6814 38.1504 25.0678 40.6846 24.0555C43.2187 23.043 44.0223 22.7519 45.2932 22.595C46.564 22.4383 47.3196 23.2181 47.3196 23.2181Z" fill="#7D5226"/>
<path d="M43.3097 19.2266C43.3097 19.2266 44.2895 19.7586 45.7524 21.4242C47.1848 23.0549 47.3191 23.2172 47.3191 23.2172C47.3191 23.2172 47.0688 23.1706 44.2347 24.1257C40.6966 25.3181 37.9048 25.3603 37.6855 26.3801C37.6855 26.3801 37.9287 21.0111 39.1514 19.8033L43.3097 19.2266Z" fill="#C3803C"/>
<path d="M43.3892 16.6416C43.3892 16.6416 42.7588 18.7623 43.3096 19.2267C43.3096 19.2267 41.2399 20.7426 39.1513 19.8034C39.1513 19.8034 38.9261 17.6781 38.6074 17.4654L39.6791 17.1061C39.6791 17.1061 40.1195 18.4478 41.0244 18.4149C41.9295 18.3821 42.5089 16.7765 42.5089 16.7765L43.3892 16.6416Z" fill="#D89857"/>
<path d="M39.7711 20.038C39.5793 20.3056 39.0906 20.9258 38.9648 21.1162C39.0948 20.8077 39.5002 20.3031 39.7607 20.0351C39.5516 19.9792 39.3468 19.9029 39.1494 19.8033C39.6835 19.9888 39.6394 19.9472 39.8044 19.9909C39.8382 19.988 41.3663 20.4105 43.3077 19.2266C42.5075 19.8472 41.4348 20.2163 40.4004 20.1417C39.9077 20.8474 39.4797 21.5153 39.2735 22.2521C39.3588 21.5885 39.9377 20.6816 40.3889 20.1409C40.1805 20.1251 39.9738 20.0914 39.7711 20.038Z" fill="#C3803C"/>
<path d="M44.6003 20.4516C44.2401 20.0684 43.6226 19.4414 43.1094 19.3721C43.6362 19.3703 44.2956 20.0213 44.6003 20.4516Z" fill="#C3803C"/>
<path d="M43.8074 21.4075L43.6674 21.1825C43.4404 20.7952 42.7851 19.6617 42.6543 19.6475C42.8484 19.6453 43.5739 20.9164 43.8074 21.4075Z" fill="#C3803C"/>
<path d="M42.3657 22.0958C42.0854 21.7461 41.9903 20.3831 41.9863 19.9316C42.0878 20.7224 42.1777 21.788 42.3657 22.0958Z" fill="#C3803C"/>
<path d="M40.951 20.1426C40.8704 20.9663 40.6599 22.3656 40.4707 23.175C40.5024 22.9698 40.347 23.9495 40.951 20.1426Z" fill="#C3803C"/>
<path d="M42.1976 18.8103C42.2043 18.943 42.3173 19.0451 42.45 19.0384C42.5826 19.0317 42.6847 18.9186 42.678 18.786C42.6712 18.6533 42.5583 18.5512 42.4256 18.5579C42.2929 18.5646 42.1909 18.6776 42.1976 18.8103Z" fill="#FDFFFF"/>
<path d="M41.2659 19.6299C41.2714 19.7386 41.364 19.8222 41.4727 19.8167C41.5814 19.8113 41.665 19.7187 41.6596 19.6099C41.654 19.5012 41.5614 19.4176 41.4527 19.4231C41.3441 19.4286 41.2604 19.5212 41.2659 19.6299Z" fill="#FDFFFF"/>
<path d="M39.8499 18.8787C39.8562 19.0034 39.9826 19.0983 40.1323 19.0908C40.282 19.0832 40.3982 18.9759 40.3919 18.8512C40.3855 18.7265 40.2591 18.6315 40.1094 18.6391C39.9597 18.6467 39.8435 18.754 39.8499 18.8787Z" fill="#FDFFFF"/>
<path d="M39.133 17.7155C39.138 17.8143 39.2222 17.8903 39.321 17.8853C39.4198 17.8804 39.4959 17.7962 39.4908 17.6974C39.4858 17.5986 39.4016 17.5226 39.3029 17.5276C39.204 17.5326 39.1281 17.6168 39.133 17.7155Z" fill="#FDFFFF"/>
<path d="M42.4241 17.6028C42.4307 17.731 42.5399 17.8298 42.6682 17.8233C42.7965 17.8168 42.8953 17.7075 42.8887 17.5792C42.8822 17.4509 42.7729 17.3522 42.6447 17.3587C42.5164 17.3652 42.4177 17.4745 42.4241 17.6028Z" fill="#FDFFFF"/>
<path d="M40.2345 19.609C40.238 19.677 40.2959 19.7292 40.3639 19.7258C40.4318 19.7224 40.4842 19.6645 40.4808 19.5965C40.4773 19.5285 40.4194 19.4762 40.3514 19.4797C40.2834 19.4831 40.2311 19.541 40.2345 19.609Z" fill="#FDFFFF"/>
<path d="M39.3148 23.5085C39.3225 23.6602 39.4516 23.7768 39.6032 23.7691C39.7548 23.7614 39.8715 23.6323 39.8638 23.4807C39.8561 23.3291 39.727 23.2124 39.5754 23.2201C39.4238 23.2277 39.3071 23.3569 39.3148 23.5085Z" fill="#FDFFFF"/>
<path d="M39.7132 22.2271C39.7192 22.3469 39.8212 22.439 39.941 22.4329C40.0607 22.4269 40.1529 22.3249 40.1468 22.2051C40.1407 22.0854 40.0388 21.9932 39.919 21.9993C39.7993 22.0054 39.7071 22.1074 39.7132 22.2271Z" fill="#FDFFFF"/>
<path d="M41.2171 21.4138C41.2246 21.5603 41.3493 21.6731 41.4959 21.6656C41.6424 21.6582 41.7551 21.5334 41.7477 21.3869C41.7402 21.2404 41.6155 21.1277 41.469 21.1351C41.3225 21.1425 41.2097 21.2673 41.2171 21.4138Z" fill="#FDFFFF"/>
<path d="M41.9886 23.1637C41.9959 23.3071 42.118 23.4175 42.2614 23.4102C42.4048 23.4029 42.5152 23.2808 42.5079 23.1374C42.5006 22.994 42.3785 22.8837 42.2351 22.891C42.0917 22.8982 41.9814 23.0203 41.9886 23.1637Z" fill="#FDFFFF"/>
<path d="M43.1604 22.0459C43.1663 22.1623 43.2655 22.2519 43.3819 22.246C43.4983 22.2401 43.5878 22.141 43.582 22.0246C43.576 21.9081 43.4769 21.8186 43.3605 21.8245C43.2441 21.8304 43.1546 21.9295 43.1604 22.0459Z" fill="#FDFFFF"/>
<path d="M43.93 20.9468C43.9356 21.0589 44.0311 21.1451 44.1431 21.1394C44.2551 21.1337 44.3413 21.0383 44.3356 20.9262C44.33 20.8142 44.2345 20.728 44.1225 20.7337C44.0105 20.7394 43.9242 20.8348 43.93 20.9468Z" fill="#FDFFFF"/>
<path d="M45.5882 22.2883C45.5946 22.415 45.7026 22.5125 45.8293 22.5061C45.956 22.4997 46.0536 22.3917 46.0472 22.265C46.0407 22.1383 45.9328 22.0407 45.806 22.0472C45.6793 22.0536 45.5818 22.1616 45.5882 22.2883Z" fill="#FDFFFF"/>
<path d="M44.4788 23.2808C44.4856 23.4143 44.5994 23.5171 44.7329 23.5104C44.8665 23.5036 44.9693 23.3899 44.9626 23.2563C44.9558 23.1227 44.842 23.0199 44.7085 23.0267C44.5749 23.0334 44.472 23.1472 44.4788 23.2808Z" fill="#FDFFFF"/>
<path d="M38.7914 24.8381C38.7975 24.9592 38.8834 25.0534 38.9832 25.0483C39.0829 25.0433 39.1589 24.941 39.1527 24.8198C39.1466 24.6987 39.0607 24.6045 38.961 24.6096C38.8612 24.6146 38.7852 24.7169 38.7914 24.8381Z" fill="#FDFFFF"/>
<path d="M40.4105 24.582C40.4179 24.7281 40.5424 24.8406 40.6885 24.8332C40.8346 24.8258 40.947 24.7013 40.9396 24.5552C40.9322 24.4091 40.8077 24.2966 40.6617 24.3041C40.5155 24.3114 40.4031 24.4359 40.4105 24.582Z" fill="#FDFFFF"/>
<path d="M38.9906 20.932C38.9973 21.066 39.1115 21.1691 39.2455 21.1623C39.3795 21.1555 39.4826 21.0414 39.4758 20.9074C39.469 20.7734 39.3548 20.6703 39.2209 20.6771C39.0868 20.6838 38.9838 20.798 38.9906 20.932Z" fill="#FDFFFF"/>
<path opacity="0.41" d="M43.123 19.6338C43.123 19.6338 46.5925 22.7355 46.604 22.9635C46.6156 23.1914 46.0022 23.5977 45.591 23.3986C45.1798 23.1995 43.123 19.6338 43.123 19.6338Z" fill="#D89857"/>
<path opacity="0.41" d="M42.6738 20.0557C42.6738 20.0557 44.2961 22.904 44.0155 23.4939C43.7349 24.0838 43.2987 23.8093 43.2124 23.7314C43.1262 23.6534 42.6738 20.0557 42.6738 20.0557Z" fill="#D89857"/>
<path opacity="0.41" d="M41.7225 20.3438C41.7225 20.3438 42.6351 23.9253 42.2492 24.3524C41.8632 24.7795 41.4332 24.8466 41.2587 24.4673C41.0843 24.088 41.7225 20.3438 41.7225 20.3438Z" fill="#D89857"/>
<path d="M40.6369 16.3536C40.6403 16.4213 40.6979 16.4734 40.7657 16.47C40.8334 16.4665 40.8855 16.4089 40.8821 16.3411C40.8787 16.2734 40.821 16.2213 40.7532 16.2248C40.6856 16.2282 40.6335 16.2859 40.6369 16.3536Z" fill="#F92515"/>
<path d="M40.6857 16.6864C40.6891 16.7535 40.7463 16.8052 40.8134 16.8018C40.8805 16.7984 40.9322 16.7412 40.9287 16.6741C40.9254 16.607 40.8682 16.5553 40.8011 16.5588C40.7339 16.5622 40.6823 16.6193 40.6857 16.6864Z" fill="#F72FB4"/>
<path d="M40.767 16.3041C40.7783 16.3215 40.8185 16.3554 40.836 16.3441C40.8534 16.3329 40.8413 16.2808 40.8301 16.2633C40.8188 16.2459 40.7655 16.2321 40.7482 16.2433C40.7308 16.2546 40.7558 16.2867 40.767 16.3041Z" fill="#FF8B88"/>
<path d="M40.802 16.6585C40.8182 16.6916 40.8465 16.711 40.8651 16.7019C40.8837 16.6928 40.908 16.6509 40.8918 16.6179C40.8755 16.5848 40.825 16.5729 40.8064 16.5821C40.7878 16.5911 40.7858 16.6254 40.802 16.6585Z" fill="#F72FB4"/>
<path d="M34.5821 18.3676C34.4372 18.2816 34.2578 18.3033 34.1374 18.4089C34.0008 18.3742 33.8518 18.4315 33.7762 18.5587C33.6842 18.7135 33.7354 18.9143 33.8902 19.0063C33.9274 19.0284 33.9682 19.0426 34.0102 19.0486C34.0405 19.1457 34.1057 19.2309 34.1958 19.2844C34.2956 19.3437 34.4127 19.3576 34.5198 19.3283C34.5414 19.3547 34.5677 19.3776 34.5978 19.3956C34.7389 19.4794 34.9219 19.4328 35.0057 19.2917C35.0658 19.1906 35.059 19.0682 34.9985 18.976C35.049 18.8434 34.9984 18.6892 34.8722 18.6143C34.8334 18.5912 34.791 18.5777 34.7481 18.5737C34.7198 18.4892 34.6622 18.4153 34.5821 18.3676Z" fill="#F4D376"/>
<path d="M33.5624 16.7996C33.5624 16.7996 33.7511 17.1404 33.5804 17.7532C33.4096 18.366 33.1761 18.5804 33.1761 18.5804C33.1761 18.5804 32.8052 19.219 32.6092 19.0846C32.4133 18.9502 32.4649 17.8811 32.723 17.309C32.9811 16.7369 33.2333 16.4393 33.5624 16.7996Z" fill="#F4D376"/>
<path d="M31.7083 20.4718C31.7083 20.4718 31.6405 21.7604 31.8147 22.2065C31.9889 22.6526 32.6032 22.7091 32.6232 22.2041C32.6431 21.6991 32.3935 20.9708 32.3649 20.8167C32.3362 20.6626 31.9233 20.1584 31.7083 20.4718Z" fill="#E0A565"/>
<path d="M36.4212 20.1626C36.3684 20.1724 35.2686 20.5067 34.7003 20.5141C34.1321 20.5215 34.5197 19.3262 34.5197 19.3262L35.7718 19.547L36.4212 20.1626Z" fill="#F2BA77"/>
<path d="M34.7916 20.5068L34.3619 22.9407L33.5675 22.3932C33.5675 22.3932 33.7494 21.6534 33.5637 21.2665C33.378 20.8795 34.7916 20.5068 34.7916 20.5068Z" fill="#E0A565"/>
<path d="M29.9959 18.3591L28.9664 18.127L28.75 18.6588L29.8726 18.6663L29.9959 18.3591Z" fill="#FFA9BA"/>
<path d="M29.8235 18.9746L29.2008 19.3091L29.0664 19.6337L29.8055 19.5545L29.8235 18.9746Z" fill="#FFA9BA"/>
<path d="M36.3643 18.6261C36.3643 18.6261 36.1453 18.184 35.7985 18.5241C35.4517 18.8643 35.6009 20.0328 36.2137 20.2036C36.8265 20.3743 36.3643 18.6261 36.3643 18.6261Z" fill="#F4D982"/>
<path d="M34.3394 23.0398C34.3394 23.0398 34.2382 23.3044 33.5281 23.3454C32.818 23.3865 32.2784 23.0777 32.4472 22.5247C32.8313 21.2656 34.6216 22.6284 34.3394 23.0398Z" fill="#F4D982"/>
<path d="M32.0516 18.5848C32.0516 18.5848 32.0673 18.5712 32.0976 18.5502C32.2582 18.4395 32.8304 18.1235 33.6803 18.5209C34.691 18.9935 35.1654 19.3381 35.1329 19.9594C35.1004 20.5806 34.6823 20.9661 34.2208 21.3026C33.7594 21.6391 33.4772 21.5921 32.8027 21.3345C32.1281 21.077 31.8553 20.8354 31.5957 20.4204C31.3363 20.0053 32.0516 18.5848 32.0516 18.5848Z" fill="#EADCA4"/>
<path d="M30.5583 17.9067C30.5583 17.9067 31.2264 17.5788 31.7344 18.1044C32.2423 18.63 32.3236 19.6174 32.0817 19.97C31.8397 20.3227 30.9323 20.819 30.3153 20.3955C29.6982 19.9722 29.5217 18.2136 30.5583 17.9067Z" fill="#F9F0C5"/>
<path d="M30.5566 17.9054C31.8955 17.3874 32.4852 19.2764 32.08 19.9687C32.1596 19.8562 32.1935 19.7179 32.2136 19.5827C32.3558 18.5288 31.5618 17.4064 30.5566 17.9054Z" fill="#DB9D6A"/>
<path d="M31.2613 20.1745C31.3421 20.1799 31.4254 20.1078 31.4209 20.0039C31.4183 19.8832 31.295 19.8151 31.1973 19.7585L31.2181 19.7111C31.2498 19.7216 31.2798 19.7315 31.3125 19.7447C31.855 19.9255 31.8711 19.4101 31.668 19.3308C31.5321 19.279 31.4995 19.3175 31.5124 19.3085C31.3902 19.4155 31.2305 19.1725 31.4612 19.117C31.7164 19.063 32.04 19.2996 31.8877 19.6624C31.8184 19.8216 31.6826 19.9066 31.4958 19.873C31.6662 20.0949 31.4591 20.3976 31.2473 20.3834C31.1092 20.3741 31.123 20.1652 31.2613 20.1745Z" fill="#EADCA4"/>
<path d="M30.8747 19.5824C30.8156 19.7332 30.8497 19.8875 30.9509 19.9272C31.0522 19.9669 31.1822 19.8769 31.2412 19.7262C31.3003 19.5755 31.2663 19.4211 31.165 19.3815C31.0638 19.3417 30.9338 19.4317 30.8747 19.5824Z" fill="#31303D"/>
<path d="M30.9592 19.5706C30.9624 19.6339 31.0076 19.683 31.0601 19.6803C31.1127 19.6777 31.1527 19.6242 31.1495 19.561C31.1463 19.4977 31.1011 19.4486 31.0485 19.4513C30.996 19.4539 30.956 19.5073 30.9592 19.5706Z" fill="#909091"/>
<path d="M30.6917 18.8186C30.6971 18.9249 30.7875 19.0066 30.8938 19.0012C31 18.9958 31.0818 18.9053 31.0764 18.7991C31.071 18.6929 30.9805 18.6111 30.8743 18.6165C30.768 18.6219 30.6863 18.7124 30.6917 18.8186Z" fill="#31303D"/>
<path d="M30.2229 19.7815C30.2277 19.877 30.3091 19.9505 30.4045 19.9456C30.5 19.9408 30.5735 19.8594 30.5687 19.7639C30.5638 19.6685 30.4825 19.595 30.387 19.5998C30.2915 19.6047 30.2181 19.686 30.2229 19.7815Z" fill="#31303D"/>
<path d="M29.4644 19.386C29.4644 19.386 32.0173 21.1051 31.6665 22.4031C31.3157 23.7011 29.2243 21.4017 29.0829 20.152C28.9414 18.9024 29.4644 19.386 29.4644 19.386Z" fill="#F4D376"/>
<path d="M30.3547 19.0873C30.3547 19.0873 31.7731 19.9112 31.695 21.225C31.6168 22.5388 30.4131 22.0907 30.1786 21.2914C29.944 20.4919 29.8674 19.2843 29.1851 18.9855C28.5029 18.6867 28.812 18.5722 28.8701 18.3335C28.9282 18.0949 28.9641 18.104 29.1522 18.1352C29.3402 18.1663 30.3547 19.0873 30.3547 19.0873Z" fill="#F4D982"/>
<path d="M31.6951 21.2252C31.6416 21.7752 31.3844 22.1747 30.8675 21.9997C30.1631 21.7461 30.1491 21.0357 29.9643 20.285C29.5584 18.6618 29.017 19.104 28.7715 18.7129C28.9368 19.0052 29.3906 18.853 29.7188 19.6425C30.1391 20.6872 29.9492 21.7379 30.8549 22.0373C30.9663 22.0724 31.0876 22.087 31.2032 22.0605C31.3565 22.0316 31.4617 21.9154 31.4685 21.9103C31.5226 21.8257 31.6712 21.7153 31.6951 21.2252Z" fill="#DB9D6A"/>
<path opacity="0.43" d="M29.8301 19.1152C29.8301 19.1152 30.2884 21.5082 30.8479 21.572C31.4074 21.6359 31.3514 20.6166 31.0616 20.2173C30.772 19.8179 29.8301 19.1152 29.8301 19.1152Z" fill="#F4D982"/>
<path opacity="0.49" d="M32.3428 20.4651C32.3682 20.9672 32.8915 21.3488 33.5116 21.3173C34.1317 21.2859 34.6137 20.8534 34.5883 20.3512C34.5629 19.849 34.0395 19.4675 33.4194 19.4989C32.7993 19.5303 32.3173 19.9629 32.3428 20.4651Z" fill="#DB5E7D"/>
<path d="M33.1334 22.9062C33.1462 23.1595 33.3604 23.322 33.6138 23.3092C33.8671 23.2963 34.1906 23.2031 34.1777 22.9498C34.1649 22.6964 33.8223 22.4114 33.5689 22.4242C33.3156 22.437 33.1206 22.6528 33.1334 22.9062Z" fill="#FFA9BA"/>
<path d="M32.8543 22.2995C32.8223 22.362 32.8826 22.4569 32.989 22.5113C33.0954 22.5657 33.2076 22.5592 33.2396 22.4967C33.2716 22.4342 33.2112 22.3394 33.1048 22.285C32.9984 22.2305 32.8862 22.237 32.8543 22.2995Z" fill="#FFA9BA"/>
<path d="M32.6374 22.6642C32.6282 22.7205 32.7134 22.7814 32.8279 22.8002C32.9423 22.819 33.0426 22.7886 33.0518 22.7323C33.061 22.6761 32.9758 22.6152 32.8614 22.5964C32.7469 22.5776 32.6467 22.608 32.6374 22.6642Z" fill="#FFA9BA"/>
<path d="M32.5938 23.0144C32.5965 23.0678 32.6802 23.1068 32.7807 23.1017C32.8812 23.0966 32.9605 23.0493 32.9578 22.9959C32.9551 22.9426 32.8714 22.9036 32.7709 22.9086C32.6704 22.9138 32.5911 22.9611 32.5938 23.0144Z" fill="#FFA9BA"/>
<path d="M7.70416 20.2082C7.87915 20.9781 9.91872 22.1916 10.8729 21.3779C11.8272 20.5642 11.5293 19.2485 11.3134 17.8763C11.3134 17.8763 11.1472 17.2076 10.4141 17.5572C9.32643 18.0759 7.53807 19.4777 7.70416 20.2082ZM9.78414 18.199C10.1094 17.6601 11.0896 17.5774 11.0896 17.5774C11.0896 17.5774 11.6203 18.4502 10.9539 19.0185C10.2874 19.5869 9.4589 18.738 9.78414 18.199Z" fill="#FF8F9D"/>
<path d="M11.2873 17.7976C11.2978 17.8236 11.3073 17.8501 11.3141 17.8772L11.314 17.8771C11.4834 19.1363 11.7881 20.4463 10.9249 21.2742C10.5759 21.5677 10.1198 21.7643 9.23621 21.4322C8.47518 21.1448 7.71235 20.494 7.74461 20.1042C7.72206 19.3027 10.0044 17.6388 10.6589 17.4877L10.7056 17.4771C10.7239 17.4796 11.094 17.38 11.2873 17.7976C11.1753 17.5285 10.9647 17.4064 10.6532 17.461C9.98527 17.5942 7.63626 19.2101 7.64953 20.1036C7.59247 20.8403 9.78594 22.3061 10.9121 21.4047C10.93 21.3797 11.4259 21.0291 11.5364 20.1989C11.6424 19.4133 11.3401 17.9138 11.2873 17.7976Z" fill="#FFC392"/>
<path d="M11.0892 17.5781C10.1556 17.6249 9.29953 18.1958 9.81196 18.8996C10.489 19.8509 11.8651 18.7798 11.0892 17.5781C11.6379 18.6998 10.7251 19.4538 10.1082 19.0421C9.4748 18.6384 9.65614 17.8102 11.0892 17.5781Z" fill="#FFC392"/>
<path d="M9.72676 16.7674C9.9742 17.1255 10.5441 17.3362 10.9822 17.4127L11.0439 17.4215L11.0749 17.4256L11.0905 17.4271L11.0984 17.4279L11.1023 17.4282C11.1005 17.4275 11.1109 17.4311 11.1166 17.4297C11.1236 17.4289 11.1299 17.4254 11.1333 17.4222C10.9514 15.9712 10.3011 15.9551 10.3011 15.9551C10.0402 15.9915 9.23855 15.9585 9.72676 16.7674ZM10.0556 16.4757C10.0843 16.4289 10.3142 16.3816 10.3194 16.3803C10.3141 16.3812 10.3738 16.3668 10.4192 16.3712C10.5227 16.3822 10.658 16.4611 10.6969 16.5456C10.8306 16.8035 10.8914 16.986 11.0764 17.3478C11.0991 17.363 9.89901 16.8008 10.0556 16.4757Z" fill="#FFCB97"/>
<path d="M11.1434 17.419C10.7359 17.2276 10.2321 17.1462 9.78096 17.2278C9.49447 17.2715 8.69739 17.6233 8.47979 17.7583C8.47412 17.7627 8.45855 17.7749 8.46422 17.7705C8.45918 17.7752 8.44523 17.7881 8.45032 17.7834L8.75643 18.0811L8.74887 18.0883L8.74644 18.0904L8.74428 18.0921C8.73924 18.0958 8.74698 18.0835 8.84579 18.0153C9.03069 17.8905 9.61385 17.5265 9.83919 17.46C10.2377 17.3284 10.7195 17.3416 11.1232 17.4666L11.1434 17.419Z" fill="#DDAC80"/>
<path d="M11.3184 17.7137C11.5802 18.0701 11.8965 18.6555 11.8458 19.0956L12.0422 19.1112C12.0531 18.6184 11.6842 18.0475 11.3581 17.6807L11.3184 17.7137Z" fill="#DDAC80"/>
<path d="M11.1367 17.4908C11.1452 17.5505 11.6477 18.1887 12.0168 18.32C12.0569 18.3383 12.1067 18.3469 12.1549 18.3559C12.4218 18.3812 12.6068 18.1536 12.6403 17.883C12.7212 17.2053 11.9006 16.7725 11.1897 17.4316C11.1414 17.4745 11.1398 17.48 11.1367 17.4908ZM11.2067 17.4974C11.8124 17.1568 12.1171 17.3359 12.1171 17.3359C12.5919 17.5715 12.427 18.2588 12.086 18.1212C11.8048 18.0377 11.3067 17.5851 11.2067 17.4974Z" fill="#FFCB97"/>
<path d="M11.0238 17.4813C11.0298 17.6 11.1174 17.692 11.2194 17.6868C11.3215 17.6816 11.3993 17.5812 11.3933 17.4625C11.3872 17.3439 11.2997 17.2519 11.1976 17.257C11.0956 17.2622 11.0178 17.3626 11.0238 17.4813Z" fill="#DDAC80"/>
<path d="M9.2881 20.3307L9.73893 20.0148L10.1787 20.3459L10.0175 19.8195L10.4684 19.5036L9.91797 19.4942L9.75679 18.9678L9.57775 19.4884L9.02734 19.479L9.46714 19.8101L9.2881 20.3307Z" fill="#F7E8A1"/>
<path d="M9.66406 20.8416L9.89125 20.9515L9.85692 21.2015L10.0317 21.0194L10.2589 21.1293L10.1397 20.9069L10.3144 20.7247L10.066 20.7693L9.94682 20.5469L9.91249 20.797L9.66406 20.8416Z" fill="#F7E8A1"/>
<path d="M8.59766 19.9513L8.81702 19.9132L8.92096 20.1101L8.95255 19.8897L9.17186 19.8516L8.97207 19.7536L9.00366 19.5332L8.84856 19.6929L8.64877 19.5948L8.75276 19.7916L8.59766 19.9513Z" fill="#F7E8A1"/>
<path d="M9.42207 20.0847L9.38653 20.1881L9.47603 20.1254C9.48314 20.1205 9.49038 20.1311 9.48345 20.1359L9.36133 20.2215L9.40983 20.0806C9.41253 20.0725 9.42482 20.0766 9.42207 20.0847Z" fill="#F7F7F7"/>
<path d="M9.84499 20.0317C9.83982 20.0319 9.84022 20.0293 9.74127 19.9555C9.6457 20.0194 9.63724 20.0355 9.63036 20.0253C9.62329 20.0153 9.63922 20.0144 9.74159 19.9395C9.78474 19.9773 9.87721 20.03 9.84499 20.0317Z" fill="#F7F7F7"/>
<path d="M9.99867 20.1344L10.086 20.2001C10.0595 20.105 10.0466 20.091 10.0583 20.0875C10.0699 20.083 10.0663 20.1005 10.11 20.2344L9.99093 20.1447C9.98413 20.1395 9.99178 20.1292 9.99867 20.1344Z" fill="#F7F7F7"/>
<path d="M9.9741 19.7912C10.0057 19.9032 10.0181 19.9147 10.0063 19.9183C9.99552 19.9221 9.99975 19.9122 9.95898 19.786C10.0618 19.7171 10.0707 19.7006 10.0776 19.7107C10.0847 19.7206 10.0683 19.722 9.9741 19.7912Z" fill="#F7F7F7"/>
<path d="M10.2218 19.6092C10.2147 19.5992 10.2328 19.5967 10.313 19.5375C10.2132 19.5333 10.1972 19.5413 10.1973 19.5291C10.1975 19.5167 10.2079 19.5255 10.353 19.5253L10.2308 19.6109C10.2278 19.6129 10.2238 19.6121 10.2218 19.6092Z" fill="#F7F7F7"/>
<path d="M10.0149 19.5325L9.88104 19.5302C9.84671 19.4094 9.83438 19.3976 9.84612 19.3941C9.85751 19.3898 9.85463 19.4085 9.89063 19.5174C9.9322 19.5191 10.0538 19.515 10.0149 19.5325Z" fill="#F7F7F7"/>
<path d="M9.79525 19.2249C9.79475 19.225 9.79421 19.2251 9.79367 19.2251C9.79079 19.2253 9.788 19.2235 9.78715 19.2205L9.75515 19.1161L9.71961 19.2194C9.71848 19.2228 9.71484 19.2245 9.71137 19.2234C9.70804 19.2223 9.70624 19.2186 9.70737 19.2152L9.75587 19.0742L9.79947 19.2168C9.80055 19.2202 9.79867 19.2238 9.79525 19.2249Z" fill="#F7F7F7"/>
<path d="M9.47461 19.5161C9.47483 19.5039 9.48563 19.5125 9.60573 19.5119C9.646 19.4027 9.64272 19.3864 9.65446 19.3901C9.66648 19.3943 9.65248 19.4079 9.61491 19.525C9.48757 19.5202 9.47456 19.5284 9.47461 19.5161Z" fill="#F7F7F7"/>
<path d="M9.29409 19.513C9.29369 19.5252 9.28019 19.5167 9.17813 19.5175L9.26552 19.5833C9.27231 19.5884 9.26457 19.5987 9.25778 19.5936L9.13867 19.5039C9.28163 19.509 9.29418 19.5007 9.29409 19.513Z" fill="#F7F7F7"/>
<path d="M9.5123 19.7839L9.41281 19.709C9.40593 19.7038 9.41384 19.6935 9.42059 19.6987L9.52751 19.7792C9.4831 19.9009 9.48724 19.9135 9.47576 19.9099C9.47239 19.9087 9.47734 19.8933 9.5123 19.7839Z" fill="#F7F7F7"/>
<path d="M9.692 20.8165L9.58441 20.8359C9.67216 20.881 9.69119 20.881 9.68579 20.8921C9.68048 20.9032 9.67229 20.8899 9.54297 20.8302L9.6897 20.8038C9.69861 20.8027 9.70005 20.815 9.692 20.8165Z" fill="#F7F7F7"/>
<path d="M9.85858 20.97C9.83865 21.0996 9.84454 21.1077 9.83428 21.1083C9.83388 21.1083 9.83347 21.1083 9.83307 21.1082C9.82083 21.1065 9.8314 21.0916 9.8445 20.9776C9.74087 20.9246 9.72404 20.9258 9.72939 20.9148C9.73092 20.9115 9.74537 20.9181 9.85858 20.97Z" fill="#F7F7F7"/>
<path d="M9.8319 21.1635L9.81701 21.2719L9.89274 21.193C9.89863 21.1869 9.90799 21.1957 9.9021 21.2019L9.79883 21.3095L9.81908 21.1618C9.82034 21.1533 9.83307 21.1551 9.8319 21.1635Z" fill="#F7F7F7"/>
<path d="M10.0303 21.0518C10.1438 21.1096 10.1591 21.1077 10.1538 21.1187C10.1484 21.1298 10.1389 21.1158 10.0331 21.0675C9.94609 21.1572 9.94496 21.1644 9.93776 21.1575C9.92894 21.1491 9.94384 21.1457 10.0303 21.0518Z" fill="#F7F7F7"/>
<path d="M10.3048 21.1848C10.2605 21.0971 10.2451 21.0858 10.2559 21.0801C10.2669 21.0745 10.2649 21.0887 10.3348 21.2136C10.2077 21.1492 10.1928 21.1515 10.1982 21.1403C10.2035 21.1293 10.215 21.1441 10.3048 21.1848Z" fill="#F7F7F7"/>
<path d="M10.2623 20.8274L10.1761 20.9173C10.2286 21.0207 10.2431 21.03 10.2323 21.0358C10.2291 21.0375 10.2252 21.0362 10.2235 21.0331C10.2208 21.0281 10.1563 20.9076 10.1603 20.915L10.253 20.8185C10.2587 20.8124 10.2683 20.8211 10.2623 20.8274Z" fill="#F7F7F7"/>
<path d="M10.2955 20.7836C10.2866 20.7751 10.3038 20.7692 10.371 20.6955L10.2634 20.7149C10.2551 20.7163 10.2527 20.7037 10.2611 20.7021L10.4079 20.6758L10.3046 20.7834C10.3021 20.786 10.298 20.786 10.2955 20.7836Z" fill="#F7F7F7"/>
<path d="M10.0717 20.7488C10.0155 20.6386 10.0003 20.6278 10.0111 20.6221C10.022 20.6164 10.0216 20.6335 10.0786 20.7344C10.1915 20.7167 10.2065 20.7055 10.2086 20.7177C10.2109 20.7298 10.1951 20.724 10.0717 20.7488Z" fill="#F7F7F7"/>
<path d="M9.9205 20.4385C9.98575 20.5658 9.99911 20.5729 9.98836 20.5786C9.97765 20.5845 9.97742 20.5669 9.92797 20.4796C9.91191 20.5813 9.91717 20.593 9.907 20.5935C9.9066 20.5936 9.90619 20.5936 9.90579 20.5935C9.8935 20.5917 9.90381 20.5801 9.9205 20.4385Z" fill="#F7F7F7"/>
<path d="M9.87244 20.7707C9.89057 20.6579 9.8845 20.6397 9.89665 20.6417C9.90016 20.6422 9.90263 20.6455 9.90218 20.6491C9.90146 20.6543 9.88274 20.7902 9.88391 20.7817L9.75207 20.8054C9.7051 20.7919 9.83896 20.7795 9.87244 20.7707Z" fill="#F7F7F7"/>
<path d="M8.62089 19.8956C8.62957 19.904 8.61329 19.9091 8.54484 19.9832L8.65257 19.9645C8.66112 19.9633 8.6631 19.9758 8.65473 19.9772L8.50781 20.0027C8.61036 19.9009 8.61203 19.8872 8.62089 19.8956Z" fill="#F7F7F7"/>
<path d="M8.80344 19.9395C8.85892 20.0501 8.87409 20.0609 8.86324 20.0666C8.85258 20.072 8.85424 20.0582 8.79638 19.9539C8.68222 19.971 8.66836 19.982 8.6662 19.9699C8.66404 19.9578 8.67894 19.9637 8.80344 19.9395Z" fill="#F7F7F7"/>
<path d="M8.92651 20.1705C8.94307 20.0707 8.9374 20.0551 8.94937 20.0568C8.96156 20.0585 8.9513 20.0701 8.93366 20.2116C8.86918 20.0839 8.85577 20.0769 8.86671 20.0711C8.87755 20.0654 8.87796 20.084 8.92651 20.1705Z" fill="#F7F7F7"/>
<path d="M8.9488 20.0522C8.93625 20.0504 8.94736 20.0346 8.96235 19.9123C9.08465 19.8937 9.09959 19.8826 9.10175 19.8947C9.10386 19.9065 9.08847 19.9009 8.97382 19.9234C8.95438 20.044 8.96014 20.0517 8.95011 20.0522C8.94966 20.0523 8.94925 20.0523 8.9488 20.0522Z" fill="#F7F7F7"/>
<path d="M9.22248 19.8662L9.12434 19.818C9.11678 19.8143 9.12218 19.8027 9.13001 19.8064L9.26392 19.8721C9.11165 19.8985 9.1112 19.902 9.10954 19.8923C9.10738 19.8803 9.12551 19.8855 9.22248 19.8662Z" fill="#F7F7F7"/>
<path d="M8.98438 19.7503L9.00332 19.6178C9.00462 19.6093 9.01731 19.6113 9.01614 19.6196L8.99841 19.7429C9.10173 19.7965 9.1186 19.7954 9.1132 19.8065C9.10744 19.8179 9.09147 19.7992 8.98438 19.7503Z" fill="#F7F7F7"/>
<path d="M9.01427 19.6062C9.00617 19.5588 9.00842 19.6149 9.02304 19.4907C8.95186 19.5604 8.94646 19.5778 8.93773 19.5692C8.92891 19.5607 8.94367 19.5577 9.04149 19.4531C9.01868 19.5975 9.02448 19.6058 9.01427 19.6062Z" fill="#F7F7F7"/>
<path d="M8.84085 19.6785C8.72876 19.6205 8.71229 19.6218 8.71769 19.6108C8.72318 19.5998 8.73249 19.6137 8.83815 19.6627C8.9218 19.5803 8.92513 19.565 8.93403 19.5733C8.94285 19.5818 8.92692 19.5861 8.84085 19.6785Z" fill="#F7F7F7"/>
<path d="M8.60407 19.5622C8.64834 19.6512 8.663 19.6615 8.65229 19.6672C8.64135 19.673 8.6422 19.6561 8.57422 19.5332C8.70091 19.5984 8.71579 19.5963 8.71046 19.6072C8.70512 19.6183 8.69392 19.6036 8.60407 19.5622Z" fill="#F7F7F7"/>
<path d="M8.66706 19.6773L8.72956 19.7957C8.64307 19.8791 8.63686 19.9012 8.62715 19.8919C8.61833 19.8833 8.63471 19.8785 8.71377 19.7934L8.65563 19.6833C8.65162 19.6758 8.66292 19.6698 8.66706 19.6773Z" fill="#F7F7F7"/>
<path d="M11.3754 15.8337L11.4794 16.4902L12.1087 15.9032L12.1494 15.9359L11.2276 17.4783L11.0938 17.4116L11.3268 15.832L11.3754 15.8337Z" fill="#2D5A9B"/>
<path d="M11.9334 16.1758L11.3302 17.1424L11.2773 17.0999L11.385 16.6414L11.9334 16.1758Z" fill="#2D5A9B"/>
<path d="M11.092 16.4991C11.2304 16.327 11.4829 16.2994 11.655 16.4377C11.8271 16.5761 11.8546 16.8286 11.7163 17.0007C11.578 17.1728 11.3254 17.2003 11.1533 17.062C10.9812 16.9237 10.9537 16.6712 11.092 16.4991ZM11.1317 16.5309C11.0109 16.6812 11.0349 16.9017 11.1852 17.0224C11.3354 17.1432 11.5559 17.1192 11.6766 16.9689C11.7974 16.8187 11.7734 16.5982 11.6231 16.4774C11.4729 16.3566 11.2525 16.3806 11.1317 16.5309Z" fill="#8E8796"/>
<path d="M19.2799 16.4683L19.3726 17.0527L19.9327 16.5302L19.9689 16.5593L19.1484 17.9323L19.0293 17.8728L19.2368 16.4668L19.2799 16.4683Z" fill="#662121"/>
<path d="M19.7753 16.7725L19.2385 17.6328L19.1914 17.595L19.2872 17.1868L19.7753 16.7725Z" fill="#662121"/>
<path d="M19.0277 17.0598C19.1508 16.9066 19.3756 16.8821 19.5288 17.0052C19.682 17.1284 19.7064 17.3532 19.5833 17.5063C19.4602 17.6595 19.2354 17.684 19.0822 17.5609C18.929 17.4378 18.9046 17.2129 19.0277 17.0598ZM19.0629 17.0881C18.9554 17.2219 18.9768 17.4181 19.1106 17.5256C19.2443 17.6331 19.4406 17.6117 19.5481 17.4779C19.6556 17.3442 19.6342 17.1479 19.5004 17.0404C19.3667 16.933 19.1704 16.9543 19.0629 17.0881Z" fill="#8E8796"/>
<path d="M25.8659 16.4913L25.9332 16.9163L26.3405 16.5363L26.3669 16.5575L25.7702 17.5559L25.6836 17.5127L25.8345 16.4902L25.8659 16.4913Z" fill="#662121"/>
<path d="M26.2273 16.7119L25.8369 17.3376L25.8027 17.3101L25.8723 17.0132L26.2273 16.7119Z" fill="#662121"/>
<path d="M25.684 16.9209C25.7735 16.8095 25.937 16.7918 26.0484 16.8813C26.1598 16.9708 26.1776 17.1343 26.0881 17.2456C25.9986 17.357 25.8351 17.3749 25.7237 17.2853C25.6123 17.1958 25.5945 17.0324 25.684 16.9209ZM25.7096 16.9416C25.6315 17.0388 25.647 17.1816 25.7442 17.2597C25.8415 17.3379 25.9842 17.3224 26.0624 17.2251C26.1405 17.1278 26.125 16.9851 26.0277 16.9069C25.9305 16.8288 25.7878 16.8443 25.7096 16.9416Z" fill="#8E8796"/>
<path d="M14.9974 16.5494L14.9245 17.0407L14.4501 16.6068L14.4199 16.6315L15.1198 17.777L15.2194 17.7261L15.0336 16.5479L14.9974 16.5494Z" fill="#662121"/>
<path d="M14.582 16.8096L15.0397 17.5273L15.0789 17.4951L14.9951 17.1533L14.582 16.8096Z" fill="#662121"/>
<path d="M15.1704 17.464C15.0428 17.5686 14.854 17.5499 14.7493 17.4223C14.6447 17.2947 14.6634 17.1059 14.791 17.0013C14.9186 16.8967 15.1075 16.9154 15.212 17.0429C15.3166 17.1706 15.2979 17.3594 15.1704 17.464ZM14.8151 17.0307C14.7038 17.122 14.6874 17.2869 14.7787 17.3982C14.87 17.5096 15.0349 17.5259 15.1463 17.4346C15.2576 17.3433 15.274 17.1784 15.1827 17.0671C15.0914 16.9557 14.9265 16.9394 14.8151 17.0307Z" fill="#8E8796"/>
<path d="M33.1233 15.1466L33.0263 15.7998L32.3956 15.2229L32.3555 15.2558L33.286 16.7788L33.4184 16.7111L33.1714 15.1445L33.1233 15.1466Z" fill="#FFEA50"/>
<path d="M32.5723 15.4912L33.1808 16.4455L33.2329 16.4027L33.1215 15.9482L32.5723 15.4912Z" fill="#FFEA50"/>
<path d="M33.3548 16.3643C33.1853 16.5034 32.9341 16.4785 32.7951 16.3089C32.656 16.1393 32.6809 15.8882 32.8505 15.7492C33.0201 15.6101 33.2712 15.635 33.4102 15.8046C33.5493 15.9742 33.5244 16.2253 33.3548 16.3643ZM32.8825 15.7882C32.7344 15.9096 32.7127 16.1288 32.8341 16.2769C32.9555 16.4249 33.1747 16.4466 33.3228 16.3252C33.4709 16.2038 33.4926 15.9846 33.3712 15.8365C33.2498 15.6885 33.0306 15.6668 32.8825 15.7882Z" fill="#8E8796"/>
<path d="M28.4584 22.4263C28.4584 22.4263 27.9621 21.5658 27.7436 20.7502C27.5251 19.9346 26.8829 18.1367 26.8829 18.1367L26.3438 19.1482L27.5016 22.77C27.5016 22.77 28.4833 22.9171 28.4584 22.4263Z" fill="#F4C082"/>
<path d="M22.6253 18.4316C22.6253 18.4316 21.964 21.693 21.9057 22.4832C21.9057 22.4832 21.6986 22.6709 21.7812 22.7454C21.8636 22.82 22.3249 23.165 22.5633 22.9011C22.8017 22.6373 23.1632 19.7231 23.1632 19.7231L22.6253 18.4316Z" fill="#F4C082"/>
<path d="M25.7625 17.4268C25.7625 17.4268 24.5919 18.0175 23.6031 17.5362L22.625 18.4321L23.1628 19.7236L22.8445 23.5383C22.8445 23.5383 25.618 24.2834 27.3793 23.3085L26.9113 20.6751L25.7625 17.4268Z" fill="#7D5226"/>
<path d="M25.7625 17.4268L26.881 18.1377C26.881 18.1377 26.4186 19.4995 26.9112 20.6751C27.4038 21.8508 27.6122 23.0506 27.3792 23.3085C27.3792 23.3085 24.418 22.3564 22.8444 23.5383C22.8444 23.5383 22.7972 23.5262 22.7431 23.4875C22.7061 23.4611 22.6846 23.4356 22.6587 23.4011C22.573 23.2872 22.4452 22.6532 22.7866 20.8448C23.1279 19.0364 22.6249 18.4321 22.6249 18.4321L23.603 17.5362C23.603 17.5362 23.6348 18.1644 24.643 18.2511C25.6512 18.3378 25.7625 17.4268 25.7625 17.4268Z" fill="#F4D982"/>
<path d="M24.8499 18.3311C25.7251 18.2867 25.8324 17.4799 25.8335 17.4708L25.7642 17.4268C25.76 17.4608 25.5729 18.2545 24.6513 18.1754C23.7274 18.096 23.6062 17.5592 23.6048 17.5362L23.5371 17.5982C23.5385 17.6265 23.5763 18.2355 24.6383 18.3268C24.7133 18.3332 24.7838 18.3344 24.8499 18.3311Z" fill="#7D5226"/>
<path d="M22.8441 23.5374C22.7824 23.5147 22.674 23.4497 22.6437 23.3836C22.435 22.8378 22.8318 20.8378 22.8698 20.5245C22.9154 20.1753 22.9319 19.8207 22.8995 19.4707C22.9023 19.8221 22.8661 20.1709 22.8111 20.516C22.6362 21.593 22.2498 23.3758 22.8441 23.5374Z" fill="#D89857"/>
<path d="M27.3806 23.3086C26.0035 22.861 24.0023 22.6484 22.8457 23.5384C24.0199 22.7072 26.0039 22.9164 27.3806 23.3086Z" fill="#7D5226"/>
<path d="M26.7285 20.0166C26.7907 20.65 27.7733 22.7803 27.3804 23.3088C27.43 23.2563 27.4547 23.1847 27.4693 23.1147C27.676 22.1348 26.8807 20.7047 26.7285 20.0166Z" fill="#D89857"/>
<path opacity="0.49" d="M26.1231 18.7966C26.1231 18.7966 26.1527 20.1481 26.489 20.8969C26.8252 21.6458 26.8582 22.5569 26.8582 22.5569C26.8582 22.5569 25.352 22.2873 24.6011 22.5046C23.8501 22.722 23.8485 19.1876 24.3673 18.9193C24.8861 18.651 26.3028 17.8423 26.1231 18.7966Z" fill="#DB5E7D"/>
<path opacity="0.54" d="M26.9053 18.7546C26.9053 18.7546 26.8198 19.5678 26.9686 20.0038C27.1175 20.4398 27.8026 21.7008 27.8201 22.0471C27.8377 22.3935 27.8941 22.1589 28.1139 22.1792C28.3337 22.1994 27.4472 20.6919 27.4285 20.3239C27.4099 19.956 27.1141 18.5235 26.9053 18.7546Z" fill="#F4C082"/>
<path d="M23.9025 19.6969L24.2977 19.4199L24.6833 19.7103L24.542 19.2487L24.9373 18.9717L24.4547 18.9635L24.3134 18.502L24.1564 18.9584L23.6738 18.9502L24.0594 19.2405L23.9025 19.6969Z" fill="#F7E8A1"/>
<path d="M23.9824 19.5771C24.067 19.5154 24.0782 19.5153 24.073 19.5079C24.0679 19.5005 24.0612 19.5126 24.0009 19.5526L24.0269 19.4769C24.0289 19.471 24.0201 19.468 24.018 19.4739L23.9824 19.5771Z" fill="#F7F7F7"/>
<path d="M24.379 19.4096C24.3844 19.4025 24.3732 19.4017 24.2994 19.3438L24.2189 19.4002C24.2138 19.4038 24.2191 19.4116 24.2243 19.408L24.2992 19.3555C24.3679 19.4048 24.3736 19.4168 24.379 19.4096Z" fill="#F7F7F7"/>
<path d="M24.6067 19.5883C24.5745 19.49 24.5773 19.4777 24.5688 19.4809C24.5602 19.4835 24.5696 19.4933 24.5892 19.5633L24.5252 19.5152C24.5202 19.5115 24.5145 19.519 24.5195 19.5228L24.6067 19.5883Z" fill="#F7F7F7"/>
<path d="M24.5171 19.3129C24.5256 19.3103 24.5171 19.3029 24.4935 19.2195L24.5685 19.1669C24.5736 19.1633 24.5681 19.1556 24.563 19.1591L24.4824 19.2156L24.5112 19.3097C24.512 19.3124 24.5149 19.3136 24.5171 19.3129Z" fill="#F7F7F7"/>
<path d="M24.8092 18.9972C24.7043 18.9974 24.6955 18.9909 24.6953 19C24.6952 19.0089 24.7063 19.0031 24.78 19.0062C24.7213 19.0495 24.7081 19.0513 24.7133 19.0586C24.7148 19.0608 24.7236 19.0548 24.8092 18.9972Z" fill="#F7F7F7"/>
<path d="M24.4227 18.9909L24.396 18.9038C24.3942 18.8976 24.3852 18.9006 24.387 18.9065L24.4157 19.0002L24.5136 19.0019C24.5434 18.9886 24.4658 18.9926 24.4227 18.9909Z" fill="#F7F7F7"/>
<path d="M24.3378 18.7313C24.3465 18.7287 24.3377 18.7213 24.309 18.6211C24.2768 18.7207 24.268 18.7274 24.2764 18.7303C24.285 18.7329 24.2824 18.7218 24.3085 18.6517L24.3319 18.7282C24.3327 18.7308 24.3356 18.7321 24.3378 18.7313Z" fill="#F7F7F7"/>
<path d="M24.1905 18.9946C24.2187 18.9068 24.2279 18.8989 24.2195 18.8959C24.211 18.8932 24.2137 18.904 24.1838 18.985C24.097 18.9854 24.0881 18.979 24.0879 18.9881C24.0879 18.9907 24.09 18.9928 24.0926 18.9929L24.1905 18.9946Z" fill="#F7F7F7"/>
<path d="M23.8907 19.0443C23.8961 19.0372 23.8825 19.0344 23.8258 18.9895L23.9058 18.9908C23.9114 18.9916 23.9127 18.9815 23.906 18.9814L23.7969 18.9795L23.884 19.0451C23.8862 19.0468 23.8892 19.0463 23.8907 19.0443Z" fill="#F7F7F7"/>
<path d="M24.1177 19.2096C24.0439 19.1564 24.0378 19.1441 24.0324 19.1513C24.027 19.1583 24.0384 19.1593 24.1065 19.213C24.0805 19.2944 24.0711 19.3026 24.0797 19.3055C24.0896 19.3087 24.0918 19.2761 24.1177 19.2096Z" fill="#F7F7F7"/>
<path d="M23.1152 18.6828L23.3901 18.6473L23.5088 18.8977L23.56 18.6253L23.8349 18.5898L23.5916 18.457L23.6427 18.1846L23.4412 18.3749L23.198 18.2421L23.3167 18.4925L23.1152 18.6828Z" fill="#D89857"/>
<path d="M23.123 19.9475L23.3979 19.912L23.5167 20.1624L23.5678 19.89L23.8427 19.8545L23.5994 19.7216L23.6506 19.4492L23.4491 19.6396L23.2058 19.5067L23.3245 19.7572L23.123 19.9475Z" fill="#F7E8A1"/>
<path d="M3.06892 19.763C3.43969 20.1729 5.1529 19.8818 5.34477 19.0445C5.56719 18.0741 4.33621 17.5573 4.759 16.9528C4.89872 16.7531 5.08806 16.5886 5.33037 16.603C5.51783 16.6784 5.66114 16.7197 5.70348 16.7338C5.50541 14.726 3.70144 14.2433 3.87094 15.2207C3.94226 15.6324 4.36024 16.157 5.14129 16.5209C4.9708 16.569 4.81399 16.6938 4.67432 16.8935C4.19514 17.5784 5.45416 18.1045 5.24402 19.0214C5.07164 19.7734 3.46345 20.0452 3.14555 19.6937C2.97046 19.5002 3.32576 18.9571 3.96427 18.9733C4.13156 18.9773 4.20855 19.0249 4.21778 19.0539C4.24415 19.1369 3.74032 19.4421 3.64281 19.293L3.55583 19.3488C3.55983 19.3553 3.5979 19.4126 3.69158 19.4303C3.82468 19.4556 3.99819 19.3897 4.20702 19.2346C4.4145 19.0806 4.34332 18.879 3.96674 18.87C3.22438 18.8527 2.83192 19.5011 3.06892 19.763ZM5.57929 16.5643C5.52345 16.5369 5.44669 16.509 5.3553 16.5008C4.49869 16.1528 4.04427 15.6159 3.97277 15.203C3.83629 14.4151 5.30243 14.8821 5.57929 16.5643Z" fill="#EF8A25"/>
<path d="M5.37739 16.632C5.38684 16.8188 5.54591 16.9625 5.73264 16.953C5.91938 16.9436 6.0631 16.7845 6.05365 16.5978C6.04416 16.411 5.88514 16.2673 5.69836 16.2768C5.51166 16.2862 5.36794 16.4453 5.37739 16.632Z" fill="#463954"/>
<path d="M5.59983 16.5398C5.60477 16.6372 5.69351 16.7118 5.79804 16.7065C5.90256 16.7012 5.98329 16.618 5.97838 16.5205C5.97343 16.4231 5.8847 16.3485 5.78017 16.3538C5.67564 16.3591 5.59488 16.4424 5.59983 16.5398Z" fill="#E1DAE8"/>
<path d="M47.7241 15.9709C47.3755 16.1134 47.3807 16.3273 47.6294 16.3973C47.8798 16.4678 48.0654 16.4676 48.1808 16.3966C48.262 16.3466 48.2772 16.2795 48.2786 16.272L48.1774 16.2508C48.1395 16.4249 47.56 16.3192 47.555 16.2322C47.5533 16.2018 47.6083 16.1299 47.7632 16.0666C48.3541 15.824 48.8795 16.205 48.7848 16.4482C48.6129 16.8899 47.0134 17.2086 46.5845 16.5673C46.0617 15.7854 47.0507 14.8454 46.359 14.376C46.1574 14.2392 45.9664 14.1783 45.7899 14.1942C46.3902 13.576 46.5939 12.9369 46.5139 12.5268C46.3243 11.5531 44.8105 12.6466 45.3404 14.5933C45.375 14.565 45.4942 14.4754 45.6425 14.3382C45.8638 14.2385 46.0993 14.3247 46.301 14.4616C46.9113 14.8759 45.9452 15.7972 46.4986 16.6248C46.9761 17.3389 48.6807 17.0007 48.8812 16.4857C49.0093 16.1565 48.4116 15.6904 47.7241 15.9709ZM46.4124 12.5466C46.4927 12.9579 46.2593 13.6214 45.5828 14.2516C45.5004 14.2919 45.4386 14.3453 45.3962 14.3907C45.0558 12.7203 46.2594 11.7617 46.4124 12.5466Z" fill="#EF8A25"/>
<path d="M45.61 14.3817C45.6676 14.5596 45.5702 14.7505 45.3923 14.8082C45.2144 14.8658 45.0235 14.7684 44.9658 14.5905C44.9081 14.4127 45.0056 14.2217 45.1835 14.164C45.3614 14.1064 45.5523 14.2038 45.61 14.3817Z" fill="#463954"/>
<path d="M45.3686 14.3734C45.3987 14.4662 45.3424 14.5675 45.2428 14.5998C45.1433 14.6321 45.0382 14.583 45.0081 14.4902C44.978 14.3974 45.0344 14.2961 45.1339 14.2638C45.2335 14.2316 45.3386 14.2806 45.3686 14.3734Z" fill="#E1DAE8"/>
<path d="M23.4533 16.4507L23.3859 16.9044L22.9478 16.5036L22.9199 16.5265L23.5663 17.5845L23.6583 17.5375L23.4867 16.4492L23.4533 16.4507Z" fill="#662121"/>
<path d="M23.0723 16.6914L23.495 17.3543L23.5311 17.3246L23.4538 17.0089L23.0723 16.6914Z" fill="#662121"/>
<path d="M23.6135 17.2965C23.4957 17.393 23.3212 17.3758 23.2246 17.258C23.128 17.1402 23.1453 16.9658 23.2631 16.8691C23.381 16.7726 23.5554 16.7898 23.652 16.9076C23.7486 17.0255 23.7313 17.1999 23.6135 17.2965ZM23.2854 16.8963C23.1825 16.9806 23.1674 17.1329 23.2518 17.2358C23.3361 17.3386 23.4884 17.3537 23.5912 17.2694C23.6941 17.1851 23.7092 17.0328 23.6248 16.9299C23.5405 16.827 23.3882 16.812 23.2854 16.8963Z" fill="#8E8796"/>
</svg>
