<svg width="51" height="44" viewBox="0 0 51 44" fill="none" xmlns="http://www.w3.org/2000/svg">
<path d="M46.1328 38.4059V9.26367" stroke="#F7F7F7" stroke-width="5" stroke-linecap="round" stroke-linejoin="bevel"/>
<path d="M39.8086 0H43.875L48.619 7.00317C48.8449 9.26226 48.1672 11.0695 46.36 11.5214C44.9141 11.8828 43.7996 10.7683 43.4231 10.1659V7.22908L39.8086 0Z" fill="#AD7D4D"/>
<path d="M35.5156 0H39.8079L43.4224 7.22908V9.71408C43.2718 10.3918 42.564 11.7473 40.9374 11.7473C39.3109 11.7473 38.3018 10.0906 38.0006 9.26226V7.22908L35.5156 0Z" fill="#F7F7F7"/>
<path d="M37.9986 9.94072V7.00391H32.8027V9.71481C33.1039 10.3172 34.0678 11.5673 35.5136 11.748C36.9595 11.9287 37.7727 10.6184 37.9986 9.94072Z" fill="#AD7D4D"/>
<path d="M35.5136 0H31.4473L32.8027 7.00318H38.2245L35.5136 0Z" fill="#AD7D4D"/>
<path d="M27.1582 0H31.4505L32.8059 7.00317V9.93999C32.6553 10.5424 31.9475 11.7473 30.3209 11.7473C28.2877 11.7473 27.1582 9.93999 27.61 7.00317L27.1582 0Z" fill="#F7F7F7"/>
<path d="M22.638 0H27.1562L27.608 7.00317C27.8339 8.50923 27.7436 11.5214 25.5748 11.5214C23.4061 11.5214 22.5627 10.4671 22.4121 9.93999V7.00317L22.638 0Z" fill="#AD7D4D"/>
<path d="M4.33789 41.1159V11.9736" stroke="#F7F7F7" stroke-width="5" stroke-linecap="round" stroke-linejoin="bevel"/>
<path d="M16.9921 7.22908C17.218 8.73514 17.0373 11.7473 14.5071 11.7473C11.9769 11.7473 11.6456 8.73514 11.7962 7.22908L14.2811 0H18.5733L16.9921 7.22908Z" fill="#AD7D4D"/>
<path d="M9.08453 11.7473C6.73508 11.7473 6.44892 8.58454 6.59953 7.00317L9.98813 0H14.2804L11.7954 7.00317C11.8707 8.50923 11.434 11.7473 9.08453 11.7473Z" fill="#F7F7F7"/>
<path d="M1.40234 7.00317L5.92052 0H10.2128L6.59825 7.00317V9.71408C6.37234 10.3918 5.51389 11.7473 3.88734 11.7473C2.2608 11.7473 1.55295 10.3918 1.40234 9.71408V7.00317Z" fill="#AD7D4D"/>
<path d="M18.5735 0H22.8658L22.414 7.00317V10.1659C22.1128 10.7683 21.1489 11.928 19.7031 11.7473C18.2573 11.5665 17.2934 10.3165 16.9922 9.71408V7.00317L18.5735 0Z" fill="#F7F7F7"/>
<path d="M21.9268 17.7028C24.6138 17.5666 27.4677 17.3179 30.4578 16.9587C38.4463 15.999 44.719 14.5633 44.7813 14.5489L44.7582 14.4482C44.6958 14.4626 38.4276 15.8972 30.4443 16.8562C23.0785 17.7411 12.7055 18.3904 5.11722 16.459L5.0918 16.5592C8.45018 17.4139 12.627 17.84 17.5062 17.8256C18.9215 17.8214 20.3973 17.7804 21.9268 17.7028Z" fill="#EF8A25"/>
<path d="M19.0186 24.5808L19.0839 23.666L17.7011 23.6985L17.5117 24.108L17.6676 24.7792L19.0186 24.5808Z" fill="#F4D982"/>
<path d="M14.216 24.6477L14.5174 23.9941L14.1038 23.307L13.4103 23.2686L13.088 23.4622L13.0156 24.3359L14.216 24.6477Z" fill="#F4D982"/>
<path d="M13.0879 23.463C13.7717 23.2368 14.5173 23.9949 14.5173 23.9949C15.672 23.1917 16.1681 21.0393 16.1681 21.0393C16.5871 23.7232 17.5097 24.109 17.5097 24.109C17.832 23.5422 19.0775 23.7655 19.0775 23.7655C19.2236 20.7333 18.6125 17.6258 18.5229 17.6574C17.1655 18.1261 14.4426 17.5918 14.4426 17.5918C13.8998 18.6921 13.0889 23.4585 13.0879 23.463Z" fill="#F4D982"/>
<path d="M17.5117 24.1078C17.7895 23.6896 18.5808 23.7167 19.0795 23.7643C18.5861 23.6503 17.7345 23.651 17.5117 24.1078Z" fill="#F4D982"/>
<path d="M13.0879 23.463C13.5895 23.3366 14.1242 23.6604 14.5173 23.9948C14.1815 23.6183 13.5702 23.2705 13.0879 23.463Z" fill="#F4D982"/>
<path d="M14.4426 17.5918C13.8098 19.2502 13.3598 21.7018 13.0879 23.463C13.327 22.2034 13.9761 18.6932 14.4426 17.5918Z" fill="#F4D982"/>
<path d="M18.7109 22.3115C18.8064 22.7183 18.9496 23.3969 18.7123 23.7093C19.0052 23.4334 18.866 22.6945 18.7109 22.3115Z" fill="#F4D982"/>
<path d="M18.3457 23.1543C18.3521 23.3184 18.4062 23.5671 18.4707 23.7215C18.4644 23.5581 18.4103 23.3094 18.3457 23.1543Z" fill="#F4D982"/>
<path d="M17.3145 22.8242C17.3349 23.1492 17.5086 23.9124 17.8087 23.8691C17.536 23.8533 17.3814 23.1093 17.3145 22.8242Z" fill="#F4D982"/>
<path d="M13.5929 22.3838C13.4944 22.6328 13.3317 23.2775 13.508 23.4157C13.3966 23.2772 13.5191 22.7868 13.5929 22.3838Z" fill="#F4D982"/>
<path d="M14.4609 22.8525C14.3098 23.1969 14.1924 23.5827 14.084 23.6565C14.2527 23.5985 14.4238 23.0528 14.4609 22.8525Z" fill="#F4D982"/>
<path d="M14.6769 23.4932C14.5486 23.5983 14.4093 23.7533 14.2988 23.7856C14.431 23.8072 14.6149 23.6222 14.6769 23.4932Z" fill="#F4D982"/>
<path d="M14.2207 18.1903C14.4329 18.3094 14.7314 18.4505 15.1501 18.6124C16.3289 19.0682 18.0256 18.5249 18.6905 18.2749C18.6133 17.8767 18.5488 17.6491 18.5254 17.6574C17.168 18.1261 14.4451 17.5918 14.4451 17.5918C14.3738 17.7362 14.2986 17.9418 14.2207 18.1903Z" fill="#F4D982"/>
<path d="M14.2207 18.1895C14.4844 18.3552 14.8426 18.5202 15.1341 18.6394C15.278 18.6799 15.34 18.7431 15.8476 18.8118C16.5759 18.8794 17.5831 18.7452 18.6905 18.2741C16.1021 19.0999 15.2484 18.5807 15.157 18.5802C15.0872 18.5539 14.9515 18.5056 14.751 18.4248C14.571 18.3541 14.3945 18.2752 14.2207 18.1895Z" fill="#F4D982"/>
<path opacity="0.49" d="M17.6925 18.9619C18.0815 18.9623 18.4119 19.2483 18.4909 19.6293C18.6464 20.3793 18.8958 21.8069 18.6376 22.205C18.2824 22.7527 16.9258 21.0255 16.9515 20.2282C16.9714 19.616 17.0867 18.9614 17.6925 18.9619Z" fill="#F4D982"/>
<path d="M14.1658 20.6537L14.6246 20.3322L15.0722 20.6692L14.9082 20.1335L15.367 19.8119L14.8068 19.8024L14.6428 19.2666L14.4606 19.7964L13.9004 19.7869L14.348 20.1239L14.1658 20.6537Z" fill="#F4D982"/>
<path d="M14.2578 20.515C14.356 20.4435 14.369 20.4433 14.3629 20.4347C14.357 20.4262 14.3491 20.4402 14.2792 20.4867L14.3094 20.3988C14.3117 20.392 14.3014 20.3884 14.299 20.3953L14.2578 20.515Z" fill="#F4D982"/>
<path d="M14.7175 20.3206C14.7239 20.3124 14.7109 20.3115 14.6252 20.2441L14.5317 20.3097C14.5258 20.3138 14.532 20.3229 14.538 20.3187L14.625 20.2578C14.7047 20.315 14.7113 20.329 14.7175 20.3206Z" fill="#F4D982"/>
<path d="M14.9843 20.5276C14.9469 20.4134 14.9502 20.3992 14.9404 20.4028C14.9303 20.4058 14.9412 20.4173 14.9639 20.4985L14.8897 20.4427C14.8839 20.4383 14.8773 20.4471 14.8831 20.4514L14.9843 20.5276Z" fill="#F4D982"/>
<path d="M14.8802 20.2069C14.89 20.2039 14.8801 20.1953 14.8528 20.0984L14.9397 20.0375C14.9457 20.0333 14.9394 20.0243 14.9334 20.0284L14.8398 20.094L14.8733 20.2032C14.8742 20.2063 14.8776 20.2078 14.8802 20.2069Z" fill="#F4D982"/>
<path d="M15.2182 19.8413C15.0964 19.8415 15.0862 19.834 15.0859 19.8445C15.0859 19.8548 15.0987 19.8481 15.1842 19.8517C15.1161 19.902 15.1008 19.9041 15.1068 19.9126C15.1085 19.9151 15.1188 19.9082 15.2182 19.8413Z" fill="#F4D982"/>
<path d="M14.7704 19.834L14.7393 19.7325C14.7372 19.7253 14.7267 19.7288 14.7288 19.7357L14.7623 19.8449L14.8764 19.8469C14.9111 19.8314 14.8207 19.836 14.7704 19.834Z" fill="#F4D982"/>
<path d="M14.6743 19.5313C14.6844 19.5282 14.6741 19.5197 14.6409 19.4033C14.6035 19.519 14.5933 19.5267 14.6031 19.5301C14.613 19.5331 14.61 19.5202 14.6403 19.4389L14.6674 19.5276C14.6683 19.5307 14.6717 19.5322 14.6743 19.5313Z" fill="#F4D982"/>
<path d="M14.4985 19.8401C14.5313 19.7378 14.5422 19.7285 14.5323 19.725C14.5224 19.7219 14.5255 19.7345 14.4907 19.8289C14.3895 19.8294 14.3791 19.8219 14.3789 19.8325C14.3789 19.8356 14.3813 19.8381 14.3843 19.8381L14.4985 19.8401Z" fill="#F4D982"/>
<path d="M14.1557 19.8964C14.162 19.8881 14.1463 19.885 14.0804 19.8328L14.1733 19.8344C14.1798 19.8353 14.1814 19.8235 14.1735 19.8234L14.0469 19.8213L14.1481 19.8975C14.1505 19.8993 14.154 19.8987 14.1557 19.8964Z" fill="#F4D982"/>
<path d="M14.4148 20.0864C14.3292 20.0247 14.322 20.0104 14.3158 20.0188C14.3096 20.0269 14.3227 20.0281 14.4018 20.0904C14.3716 20.1849 14.3607 20.1944 14.3707 20.1978C14.3821 20.2015 14.3847 20.1636 14.4148 20.0864Z" fill="#F4D982"/>
<path d="M13.7949 21.3391L14.114 21.2979L14.2519 21.5886L14.3112 21.2724L14.6303 21.2311L14.3479 21.0769L14.4073 20.7607L14.1734 20.9817L13.891 20.8275L14.0288 21.1182L13.7949 21.3391Z" fill="#F4D982"/>
<path d="M14.0137 22.3869L14.3327 22.3457L14.4706 22.6364L14.5299 22.3202L14.849 22.2789L14.5666 22.1248L14.626 21.8086L14.3921 22.0295L14.1097 21.8753L14.2476 22.166L14.0137 22.3869Z" fill="#F4D982"/>
<path d="M41.4296 17.9846L41.8455 16.7764C41.8455 16.7764 40.5135 17.6451 39.0156 17.106L39.1135 18.4671L40.4072 18.7452L41.4296 17.9846Z" fill="#7B5936"/>
<path d="M37.6352 17.9439C37.6383 17.9534 37.6444 18.1369 37.8095 18.2606C38.0743 18.4587 37.9648 18.3214 42.7119 17.6709C42.9481 17.6363 43.1132 17.4158 43.08 17.1794C43.0498 16.9641 42.8701 16.8064 42.6527 16.8044C40.1603 16.7854 40.2954 16.7735 40.2026 16.7915L40.094 16.1622C40.3863 16.1213 40.6051 15.8874 40.5915 15.6179C40.5599 14.9944 39.5449 14.9549 39.435 15.5701C39.4229 15.6375 39.5248 15.6556 39.5368 15.5883C39.6253 15.0931 40.4629 15.1221 40.4883 15.6232C40.5 15.8531 40.2949 16.0511 40.0311 16.0645L39.9729 16.0674L40.1024 16.8181L37.9416 17.466C37.7339 17.5282 37.6051 17.7292 37.6352 17.9439ZM37.7888 17.9223C37.7694 17.7841 37.8523 17.6547 37.9861 17.6146L40.2046 16.9493C40.2869 16.9246 40.1473 16.9423 42.6513 16.9595C42.7912 16.9608 42.907 17.0623 42.9264 17.2009C42.9479 17.3531 42.8415 17.4952 42.6894 17.5175C37.7019 18.2181 37.9281 18.3628 37.7888 17.9223Z" fill="#FCBE7F"/>
<path d="M46.6574 23.2181C46.6574 23.2181 45.619 24.5376 42.9818 25.1818C40.3446 25.826 36.9791 27.0806 37.0239 26.381C37.0687 25.6814 37.4883 25.0678 40.0225 24.0555C42.5566 23.043 43.3602 22.7519 44.6311 22.595C45.9019 22.4383 46.6574 23.2181 46.6574 23.2181Z" fill="#7D5226"/>
<path d="M42.6476 19.2266C42.6476 19.2266 43.6274 19.7586 45.0903 21.4242C46.5226 23.0549 46.657 23.2172 46.657 23.2172C46.657 23.2172 46.4067 23.1706 43.5726 24.1257C40.0344 25.3181 37.2427 25.3603 37.0234 26.3801C37.0234 26.3801 37.2666 21.0111 38.4893 19.8033L42.6476 19.2266Z" fill="#C3803C"/>
<path d="M42.7271 16.6416C42.7271 16.6416 42.0967 18.7623 42.6475 19.2267C42.6475 19.2267 40.5778 20.7426 38.4892 19.8034C38.4892 19.8034 38.264 17.6781 37.9453 17.4654L39.017 17.1061C39.017 17.1061 39.4573 18.4478 40.3623 18.4149C41.2673 18.3821 41.8468 16.7765 41.8468 16.7765L42.7271 16.6416Z" fill="#D89857"/>
<path d="M39.109 20.038C38.9172 20.3056 38.4285 20.9258 38.3027 21.1162C38.4327 20.8077 38.8381 20.3031 39.0986 20.0351C38.8895 19.9792 38.6847 19.9029 38.4873 19.8033C39.0214 19.9888 38.9773 19.9472 39.1423 19.9909C39.1761 19.988 40.7042 20.4105 42.6456 19.2266C41.8454 19.8472 40.7727 20.2163 39.7383 20.1417C39.2456 20.8474 38.8175 21.5153 38.6114 22.2521C38.6967 21.5885 39.2756 20.6816 39.7268 20.1409C39.5184 20.1251 39.3117 20.0914 39.109 20.038Z" fill="#C3803C"/>
<path d="M43.9381 20.4516C43.5779 20.0684 42.9605 19.4414 42.4473 19.3721C42.974 19.3703 43.6335 20.0213 43.9381 20.4516Z" fill="#C3803C"/>
<path d="M43.1453 21.4075L43.0053 21.1825C42.7783 20.7952 42.123 19.6617 41.9922 19.6475C42.1863 19.6453 42.9118 20.9164 43.1453 21.4075Z" fill="#C3803C"/>
<path d="M41.7035 22.0958C41.4233 21.7461 41.3282 20.3831 41.3242 19.9316C41.4257 20.7224 41.5155 21.788 41.7035 22.0958Z" fill="#C3803C"/>
<path d="M40.2889 20.1426C40.2083 20.9663 39.9978 22.3656 39.8086 23.175C39.8403 22.9698 39.6849 23.9495 40.2889 20.1426Z" fill="#C3803C"/>
<path d="M41.5355 18.8103C41.5422 18.943 41.6552 19.0451 41.7879 19.0384C41.9205 19.0317 42.0226 18.9186 42.0159 18.786C42.0091 18.6533 41.8962 18.5512 41.7635 18.5579C41.6308 18.5646 41.5288 18.6776 41.5355 18.8103Z" fill="#FDFFFF"/>
<path d="M40.6038 19.6299C40.6093 19.7386 40.7019 19.8222 40.8106 19.8167C40.9193 19.8113 41.0029 19.7187 40.9974 19.6099C40.9919 19.5012 40.8993 19.4176 40.7906 19.4231C40.682 19.4286 40.5983 19.5212 40.6038 19.6299Z" fill="#FDFFFF"/>
<path d="M39.1877 18.8787C39.1941 19.0034 39.3205 19.0983 39.4702 19.0908C39.6199 19.0832 39.7361 18.9759 39.7298 18.8512C39.7234 18.7265 39.597 18.6315 39.4473 18.6391C39.2976 18.6467 39.1814 18.754 39.1877 18.8787Z" fill="#FDFFFF"/>
<path d="M38.4709 17.7155C38.4759 17.8143 38.5601 17.8903 38.6589 17.8853C38.7577 17.8804 38.8337 17.7962 38.8287 17.6974C38.8237 17.5986 38.7395 17.5226 38.6408 17.5276C38.5419 17.5326 38.4659 17.6168 38.4709 17.7155Z" fill="#FDFFFF"/>
<path d="M41.762 17.6028C41.7685 17.731 41.8778 17.8298 42.0061 17.8233C42.1344 17.8168 42.2331 17.7075 42.2266 17.5792C42.2201 17.4509 42.1108 17.3522 41.9826 17.3587C41.8543 17.3652 41.7555 17.4745 41.762 17.6028Z" fill="#FDFFFF"/>
<path d="M39.5724 19.609C39.5759 19.677 39.6338 19.7292 39.7017 19.7258C39.7697 19.7224 39.8221 19.6645 39.8186 19.5965C39.8152 19.5285 39.7573 19.4762 39.6893 19.4797C39.6213 19.4831 39.569 19.541 39.5724 19.609Z" fill="#FDFFFF"/>
<path d="M38.6527 23.5085C38.6604 23.6602 38.7895 23.7768 38.9411 23.7691C39.0927 23.7614 39.2094 23.6323 39.2017 23.4807C39.194 23.3291 39.0649 23.2124 38.9133 23.2201C38.7617 23.2277 38.645 23.3569 38.6527 23.5085Z" fill="#FDFFFF"/>
<path d="M39.0511 22.2271C39.0571 22.3469 39.1591 22.439 39.2789 22.4329C39.3986 22.4269 39.4908 22.3249 39.4847 22.2051C39.4786 22.0854 39.3767 21.9932 39.2569 21.9993C39.1371 22.0054 39.045 22.1074 39.0511 22.2271Z" fill="#FDFFFF"/>
<path d="M40.555 21.4138C40.5625 21.5603 40.6872 21.6731 40.8337 21.6656C40.9803 21.6582 41.093 21.5334 41.0855 21.3869C41.0781 21.2404 40.9533 21.1277 40.8069 21.1351C40.6604 21.1425 40.5476 21.2673 40.555 21.4138Z" fill="#FDFFFF"/>
<path d="M41.3265 23.1637C41.3338 23.3071 41.4559 23.4175 41.5993 23.4102C41.7427 23.4029 41.8531 23.2808 41.8458 23.1374C41.8385 22.994 41.7164 22.8837 41.573 22.891C41.4296 22.8982 41.3193 23.0203 41.3265 23.1637Z" fill="#FDFFFF"/>
<path d="M42.4983 22.0459C42.5042 22.1623 42.6034 22.2519 42.7198 22.246C42.8362 22.2401 42.9257 22.141 42.9198 22.0246C42.9139 21.9081 42.8148 21.8186 42.6984 21.8245C42.582 21.8304 42.4925 21.9295 42.4983 22.0459Z" fill="#FDFFFF"/>
<path d="M43.2678 20.9468C43.2735 21.0589 43.369 21.1451 43.481 21.1394C43.593 21.1337 43.6792 21.0383 43.6735 20.9262C43.6679 20.8142 43.5724 20.728 43.4604 20.7337C43.3483 20.7394 43.2621 20.8348 43.2678 20.9468Z" fill="#FDFFFF"/>
<path d="M44.9261 22.2883C44.9325 22.415 45.0405 22.5125 45.1672 22.5061C45.2939 22.4997 45.3914 22.3917 45.3851 22.265C45.3786 22.1383 45.2707 22.0407 45.1439 22.0472C45.0172 22.0536 44.9196 22.1616 44.9261 22.2883Z" fill="#FDFFFF"/>
<path d="M43.8167 23.2808C43.8235 23.4143 43.9373 23.5171 44.0708 23.5104C44.2044 23.5036 44.3072 23.3899 44.3004 23.2563C44.2937 23.1227 44.1799 23.0199 44.0463 23.0267C43.9127 23.0334 43.8099 23.1472 43.8167 23.2808Z" fill="#FDFFFF"/>
<path d="M38.1293 24.8381C38.1354 24.9592 38.2213 25.0534 38.3211 25.0483C38.4208 25.0433 38.4967 24.941 38.4906 24.8198C38.4845 24.6987 38.3986 24.6045 38.2988 24.6096C38.199 24.6146 38.1231 24.7169 38.1293 24.8381Z" fill="#FDFFFF"/>
<path d="M39.7484 24.582C39.7558 24.7281 39.8803 24.8406 40.0264 24.8332C40.1725 24.8258 40.2849 24.7013 40.2775 24.5552C40.2701 24.4091 40.1456 24.2966 39.9996 24.3041C39.8534 24.3114 39.741 24.4359 39.7484 24.582Z" fill="#FDFFFF"/>
<path d="M38.3284 20.932C38.3352 21.066 38.4494 21.1691 38.5833 21.1623C38.7174 21.1555 38.8205 21.0414 38.8137 20.9074C38.8069 20.7734 38.6927 20.6703 38.5588 20.6771C38.4247 20.6838 38.3216 20.798 38.3284 20.932Z" fill="#FDFFFF"/>
<path opacity="0.41" d="M42.4609 19.6338C42.4609 19.6338 45.9304 22.7355 45.9419 22.9635C45.9535 23.1914 45.3401 23.5977 44.9289 23.3986C44.5177 23.1995 42.4609 19.6338 42.4609 19.6338Z" fill="#D89857"/>
<path opacity="0.41" d="M42.0117 20.0557C42.0117 20.0557 43.634 22.904 43.3534 23.4939C43.0728 24.0838 42.6365 23.8093 42.5503 23.7314C42.4641 23.6534 42.0117 20.0557 42.0117 20.0557Z" fill="#D89857"/>
<path opacity="0.41" d="M41.0604 20.3438C41.0604 20.3438 41.973 23.9253 41.5871 24.3524C41.2011 24.7795 40.7711 24.8466 40.5966 24.4673C40.4222 24.088 41.0604 20.3438 41.0604 20.3438Z" fill="#D89857"/>
<path d="M39.9748 16.3536C39.9782 16.4213 40.0358 16.4734 40.1036 16.47C40.1713 16.4665 40.2234 16.4089 40.22 16.3411C40.2165 16.2734 40.1589 16.2213 40.0911 16.2248C40.0235 16.2282 39.9713 16.2859 39.9748 16.3536Z" fill="#F92515"/>
<path d="M40.0236 16.6864C40.027 16.7535 40.0842 16.8052 40.1513 16.8018C40.2184 16.7984 40.2701 16.7412 40.2666 16.6741C40.2633 16.607 40.2061 16.5553 40.139 16.5588C40.0718 16.5622 40.0202 16.6193 40.0236 16.6864Z" fill="#F72FB4"/>
<path d="M40.1049 16.3041C40.1162 16.3215 40.1564 16.3554 40.1739 16.3441C40.1913 16.3329 40.1792 16.2808 40.168 16.2633C40.1567 16.2459 40.1034 16.2321 40.0861 16.2433C40.0686 16.2546 40.0937 16.2867 40.1049 16.3041Z" fill="#FF8B88"/>
<path d="M40.1399 16.6585C40.1561 16.6916 40.1844 16.711 40.203 16.7019C40.2216 16.6928 40.2459 16.6509 40.2297 16.6179C40.2134 16.5848 40.1629 16.5729 40.1442 16.5821C40.1256 16.5911 40.1237 16.6254 40.1399 16.6585Z" fill="#F72FB4"/>
<path d="M33.9199 18.3676C33.7751 18.2816 33.5957 18.3033 33.4753 18.4089C33.3387 18.3742 33.1896 18.4315 33.1141 18.5587C33.0221 18.7135 33.0732 18.9143 33.2281 19.0063C33.2652 19.0284 33.3061 19.0426 33.3481 19.0486C33.3784 19.1457 33.4436 19.2309 33.5337 19.2844C33.6335 19.3437 33.7506 19.3576 33.8577 19.3283C33.8793 19.3547 33.9056 19.3776 33.9357 19.3956C34.0768 19.4794 34.2598 19.4328 34.3436 19.2917C34.4037 19.1906 34.3969 19.0682 34.3364 18.976C34.3869 18.8434 34.3363 18.6892 34.2101 18.6143C34.1713 18.5912 34.1289 18.5777 34.0859 18.5737C34.0577 18.4892 34.0001 18.4153 33.9199 18.3676Z" fill="#F4D376"/>
<path d="M32.9003 16.7996C32.9003 16.7996 33.089 17.1404 32.9183 17.7532C32.7475 18.366 32.514 18.5804 32.514 18.5804C32.514 18.5804 32.1431 19.219 31.9471 19.0846C31.7512 18.9502 31.8028 17.8811 32.0609 17.309C32.319 16.7369 32.5712 16.4393 32.9003 16.7996Z" fill="#F4D376"/>
<path d="M31.0462 20.4718C31.0462 20.4718 30.9784 21.7604 31.1526 22.2065C31.3268 22.6526 31.9411 22.7091 31.9611 22.2041C31.9809 21.6991 31.7314 20.9708 31.7028 20.8167C31.6741 20.6626 31.2612 20.1584 31.0462 20.4718Z" fill="#E0A565"/>
<path d="M35.7591 20.1626C35.7063 20.1724 34.6065 20.5067 34.0382 20.5141C33.4699 20.5215 33.8576 19.3262 33.8576 19.3262L35.1097 19.547L35.7591 20.1626Z" fill="#F2BA77"/>
<path d="M34.1295 20.5068L33.6998 22.9407L32.9054 22.3932C32.9054 22.3932 33.0873 21.6534 32.9016 21.2665C32.7158 20.8795 34.1295 20.5068 34.1295 20.5068Z" fill="#E0A565"/>
<path d="M29.3338 18.3591L28.3043 18.127L28.0879 18.6588L29.2105 18.6663L29.3338 18.3591Z" fill="#FFA9BA"/>
<path d="M29.1614 18.9746L28.5387 19.3091L28.4043 19.6337L29.1434 19.5545L29.1614 18.9746Z" fill="#FFA9BA"/>
<path d="M35.7022 18.6261C35.7022 18.6261 35.4832 18.184 35.1364 18.5241C34.7896 18.8643 34.9388 20.0328 35.5516 20.2036C36.1644 20.3743 35.7022 18.6261 35.7022 18.6261Z" fill="#F4D982"/>
<path d="M33.6773 23.0398C33.6773 23.0398 33.5761 23.3044 32.866 23.3454C32.1559 23.3865 31.6163 23.0777 31.785 22.5247C32.1692 21.2656 33.9595 22.6284 33.6773 23.0398Z" fill="#F4D982"/>
<path d="M31.3895 18.5848C31.3895 18.5848 31.4052 18.5712 31.4355 18.5502C31.5961 18.4395 32.1683 18.1235 33.0182 18.5209C34.0289 18.9935 34.5032 19.3381 34.4708 19.9594C34.4383 20.5806 34.0202 20.9661 33.5587 21.3026C33.0973 21.6391 32.8151 21.5921 32.1405 21.3345C31.466 21.077 31.1932 20.8354 30.9336 20.4204C30.6742 20.0053 31.3895 18.5848 31.3895 18.5848Z" fill="#EADCA4"/>
<path d="M29.8962 17.9067C29.8962 17.9067 30.5643 17.5788 31.0723 18.1044C31.5802 18.63 31.6615 19.6174 31.4195 19.97C31.1776 20.3227 30.2702 20.819 29.6531 20.3955C29.0361 19.9722 28.8596 18.2136 29.8962 17.9067Z" fill="#F9F0C5"/>
<path d="M29.8945 17.9054C31.2334 17.3874 31.8231 19.2764 31.4179 19.9687C31.4975 19.8562 31.5314 19.7179 31.5515 19.5827C31.6936 18.5288 30.8997 17.4064 29.8945 17.9054Z" fill="#DB9D6A"/>
<path d="M30.5991 20.1745C30.68 20.1799 30.7632 20.1078 30.7588 20.0039C30.7562 19.8832 30.6329 19.8151 30.5352 19.7585L30.5559 19.7111C30.5877 19.7216 30.6177 19.7315 30.6504 19.7447C31.1929 19.9255 31.209 19.4101 31.0059 19.3308C30.87 19.279 30.8374 19.3175 30.8503 19.3085C30.7281 19.4155 30.5684 19.1725 30.7991 19.117C31.0543 19.063 31.3779 19.2996 31.2256 19.6624C31.1563 19.8216 31.0205 19.9066 30.8337 19.873C31.0041 20.0949 30.797 20.3976 30.5852 20.3834C30.4471 20.3741 30.4609 20.1652 30.5991 20.1745Z" fill="#EADCA4"/>
<path d="M30.2126 19.5824C30.1535 19.7332 30.1876 19.8875 30.2888 19.9272C30.3901 19.9669 30.5201 19.8769 30.5791 19.7262C30.6382 19.5755 30.6042 19.4211 30.5029 19.3815C30.4017 19.3417 30.2717 19.4317 30.2126 19.5824Z" fill="#31303D"/>
<path d="M30.2971 19.5706C30.3002 19.6339 30.3455 19.683 30.398 19.6803C30.4506 19.6777 30.4906 19.6242 30.4874 19.561C30.4842 19.4977 30.439 19.4486 30.3864 19.4513C30.3339 19.4539 30.2939 19.5073 30.2971 19.5706Z" fill="#909091"/>
<path d="M30.0295 18.8186C30.0349 18.9249 30.1254 19.0066 30.2317 19.0012C30.3379 18.9958 30.4197 18.9053 30.4143 18.7991C30.4089 18.6929 30.3184 18.6111 30.2122 18.6165C30.1059 18.6219 30.0242 18.7124 30.0295 18.8186Z" fill="#31303D"/>
<path d="M29.5608 19.7815C29.5656 19.877 29.6469 19.9505 29.7424 19.9456C29.8379 19.9408 29.9114 19.8594 29.9066 19.7639C29.9017 19.6685 29.8204 19.595 29.7249 19.5998C29.6294 19.6047 29.556 19.686 29.5608 19.7815Z" fill="#31303D"/>
<path d="M28.8022 19.386C28.8022 19.386 31.3552 21.1051 31.0044 22.4031C30.6536 23.7011 28.5622 21.4017 28.4208 20.152C28.2793 18.9024 28.8022 19.386 28.8022 19.386Z" fill="#F4D376"/>
<path d="M29.6926 19.0873C29.6926 19.0873 31.111 19.9112 31.0329 21.225C30.9547 22.5388 29.751 22.0907 29.5165 21.2914C29.2819 20.4919 29.2053 19.2843 28.523 18.9855C27.8408 18.6867 28.1499 18.5722 28.208 18.3335C28.2661 18.0949 28.302 18.104 28.4901 18.1352C28.6781 18.1663 29.6926 19.0873 29.6926 19.0873Z" fill="#F4D982"/>
<path d="M31.033 21.2252C30.9795 21.7752 30.7223 22.1747 30.2054 21.9997C29.501 21.7461 29.487 21.0357 29.3022 20.285C28.8963 18.6618 28.3549 19.104 28.1094 18.7129C28.2747 19.0052 28.7285 18.853 29.0566 19.6425C29.477 20.6872 29.2871 21.7379 30.1928 22.0373C30.3041 22.0724 30.4255 22.087 30.5411 22.0605C30.6944 22.0316 30.7996 21.9154 30.8064 21.9103C30.8605 21.8257 31.0091 21.7153 31.033 21.2252Z" fill="#DB9D6A"/>
<path opacity="0.43" d="M29.168 19.1152C29.168 19.1152 29.6263 21.5082 30.1858 21.572C30.7453 21.6359 30.6893 20.6166 30.3995 20.2173C30.1098 19.8179 29.168 19.1152 29.168 19.1152Z" fill="#F4D982"/>
<path opacity="0.49" d="M31.6806 20.4651C31.7061 20.9672 32.2294 21.3488 32.8495 21.3173C33.4695 21.2859 33.9516 20.8534 33.9262 20.3512C33.9007 19.849 33.3774 19.4675 32.7573 19.4989C32.1372 19.5303 31.6552 19.9629 31.6806 20.4651Z" fill="#DB5E7D"/>
<path d="M32.4713 22.9062C32.4841 23.1595 32.6983 23.322 32.9516 23.3092C33.205 23.2963 33.5285 23.2031 33.5156 22.9498C33.5028 22.6964 33.1602 22.4114 32.9068 22.4242C32.6535 22.437 32.4585 22.6528 32.4713 22.9062Z" fill="#FFA9BA"/>
<path d="M32.1922 22.2995C32.1602 22.362 32.2205 22.4569 32.3269 22.5113C32.4333 22.5657 32.5455 22.5592 32.5775 22.4967C32.6095 22.4342 32.5491 22.3394 32.4427 22.285C32.3363 22.2305 32.2241 22.237 32.1922 22.2995Z" fill="#FFA9BA"/>
<path d="M31.9753 22.6642C31.9661 22.7205 32.0513 22.7814 32.1658 22.8002C32.2802 22.819 32.3804 22.7886 32.3897 22.7323C32.3989 22.6761 32.3137 22.6152 32.1993 22.5964C32.0848 22.5776 31.9846 22.608 31.9753 22.6642Z" fill="#FFA9BA"/>
<path d="M31.9317 23.0144C31.9344 23.0678 32.0181 23.1068 32.1186 23.1017C32.2191 23.0966 32.2984 23.0493 32.2957 22.9959C32.293 22.9426 32.2093 22.9036 32.1088 22.9086C32.0083 22.9138 31.929 22.9611 31.9317 23.0144Z" fill="#FFA9BA"/>
<path d="M7.04205 20.2082C7.21704 20.9781 9.25661 22.1916 10.2108 21.3779C11.1651 20.5642 10.8672 19.2485 10.6512 17.8763C10.6512 17.8763 10.4851 17.2076 9.75199 17.5572C8.66432 18.0759 6.87596 19.4777 7.04205 20.2082ZM9.12203 18.199C9.44727 17.6601 10.4275 17.5774 10.4275 17.5774C10.4275 17.5774 10.9582 18.4502 10.2918 19.0185C9.62532 19.5869 8.79679 18.738 9.12203 18.199Z" fill="#FF8F9D"/>
<path d="M10.6251 17.7976C10.6357 17.8236 10.6452 17.8501 10.652 17.8772L10.6519 17.8771C10.8212 19.1363 11.126 20.4463 10.2628 21.2742C9.91375 21.5677 9.45766 21.7643 8.5741 21.4322C7.81307 21.1448 7.05024 20.494 7.0825 20.1042C7.05996 19.3027 9.34224 17.6388 9.99677 17.4877L10.0435 17.4771C10.0617 17.4796 10.4318 17.38 10.6251 17.7976C10.5132 17.5285 10.3026 17.4064 9.99105 17.461C9.32316 17.5942 6.97415 19.2101 6.98742 20.1036C6.93036 20.8403 9.12383 22.3061 10.25 21.4047C10.2679 21.3797 10.7638 21.0291 10.8743 20.1989C10.9803 19.4133 10.678 17.9138 10.6251 17.7976Z" fill="#FFC392"/>
<path d="M10.4271 17.5781C9.49345 17.6249 8.63743 18.1958 9.14985 18.8996C9.82692 19.8509 11.203 18.7798 10.4271 17.5781C10.9758 18.6998 10.063 19.4538 9.44606 19.0421C8.81269 18.6384 8.99403 17.8102 10.4271 17.5781Z" fill="#FFC392"/>
<path d="M9.06465 16.7674C9.31209 17.1255 9.88198 17.3362 10.3201 17.4127L10.3818 17.4215L10.4128 17.4256L10.4284 17.4271L10.4362 17.4279L10.4402 17.4282C10.4384 17.4275 10.4488 17.4311 10.4545 17.4297C10.4615 17.4289 10.4677 17.4254 10.4712 17.4222C10.2892 15.9712 9.63899 15.9551 9.63899 15.9551C9.3781 15.9915 8.57644 15.9585 9.06465 16.7674ZM9.39354 16.4757C9.4222 16.4289 9.65213 16.3816 9.65726 16.3803C9.652 16.3812 9.71166 16.3668 9.75711 16.3712C9.8606 16.3822 9.99586 16.4611 10.0348 16.5456C10.1685 16.8035 10.2293 16.986 10.4143 17.3478C10.437 17.363 9.2369 16.8008 9.39354 16.4757Z" fill="#FFCB97"/>
<path d="M10.4813 17.419C10.0738 17.2276 9.57004 17.1462 9.11885 17.2278C8.83236 17.2715 8.03528 17.6233 7.81768 17.7583C7.81201 17.7627 7.79644 17.7749 7.80211 17.7705C7.79707 17.7752 7.78312 17.7881 7.78821 17.7834L8.09432 18.0811L8.08676 18.0883L8.08433 18.0904L8.08217 18.0921C8.07713 18.0958 8.08487 18.0835 8.18368 18.0153C8.36858 17.8905 8.95174 17.5265 9.17708 17.46C9.57562 17.3284 10.0574 17.3416 10.4611 17.4666L10.4813 17.419Z" fill="#DDAC80"/>
<path d="M10.6562 17.7137C10.9181 18.0701 11.2344 18.6555 11.1837 19.0956L11.3801 19.1112C11.391 18.6184 11.0221 18.0475 10.696 17.6807L10.6562 17.7137Z" fill="#DDAC80"/>
<path d="M10.4746 17.4908C10.4831 17.5505 10.9855 18.1887 11.3547 18.32C11.3948 18.3383 11.4446 18.3469 11.4928 18.3559C11.7597 18.3812 11.9447 18.1536 11.9782 17.883C12.0591 17.2053 11.2385 16.7725 10.5276 17.4316C10.4793 17.4745 10.4777 17.48 10.4746 17.4908ZM10.5446 17.4974C11.1503 17.1568 11.455 17.3359 11.455 17.3359C11.9298 17.5715 11.7649 18.2588 11.4239 18.1212C11.1427 18.0377 10.6446 17.5851 10.5446 17.4974Z" fill="#FFCB97"/>
<path d="M10.3617 17.4813C10.3677 17.6 10.4553 17.692 10.5573 17.6868C10.6594 17.6816 10.7372 17.5812 10.7312 17.4625C10.7251 17.3439 10.6376 17.2519 10.5355 17.257C10.4335 17.2622 10.3557 17.3626 10.3617 17.4813Z" fill="#DDAC80"/>
<path d="M8.62599 20.3307L9.07682 20.0148L9.51662 20.3459L9.35544 19.8195L9.80626 19.5036L9.25586 19.4942L9.09468 18.9678L8.91564 19.4884L8.36523 19.479L8.80503 19.8101L8.62599 20.3307Z" fill="#F7E8A1"/>
<path d="M9.00195 20.8416L9.22914 20.9515L9.19481 21.2015L9.36958 21.0194L9.59677 21.1293L9.47757 20.9069L9.65234 20.7247L9.40386 20.7693L9.28471 20.5469L9.25038 20.797L9.00195 20.8416Z" fill="#F7E8A1"/>
<path d="M7.93555 19.9513L8.15491 19.9132L8.25885 20.1101L8.29044 19.8897L8.50975 19.8516L8.30997 19.7536L8.34155 19.5332L8.18645 19.6929L7.98666 19.5948L8.09065 19.7916L7.93555 19.9513Z" fill="#F7E8A1"/>
<path d="M8.75996 20.0847L8.72442 20.1881L8.81392 20.1254C8.82103 20.1205 8.82827 20.1311 8.82134 20.1359L8.69922 20.2215L8.74773 20.0806C8.75043 20.0725 8.76271 20.0766 8.75996 20.0847Z" fill="#F7F7F7"/>
<path d="M9.18288 20.0317C9.17771 20.0319 9.17811 20.0293 9.07916 19.9555C8.98359 20.0194 8.97513 20.0355 8.96825 20.0253C8.96118 20.0153 8.97711 20.0144 9.07948 19.9395C9.12263 19.9773 9.2151 20.03 9.18288 20.0317Z" fill="#F7F7F7"/>
<path d="M9.33656 20.1344L9.4239 20.2001C9.39739 20.105 9.38452 20.091 9.39622 20.0875C9.40774 20.083 9.40423 20.1005 9.44788 20.2344L9.32882 20.1447C9.32202 20.1395 9.32967 20.1292 9.33656 20.1344Z" fill="#F7F7F7"/>
<path d="M9.31199 19.7912C9.34363 19.9032 9.35596 19.9147 9.34417 19.9183C9.33341 19.9221 9.33764 19.9122 9.29688 19.786C9.39965 19.7171 9.40856 19.7006 9.41553 19.7107C9.42255 19.7206 9.40617 19.722 9.31199 19.7912Z" fill="#F7F7F7"/>
<path d="M9.55973 19.6092C9.55262 19.5992 9.57066 19.5967 9.65084 19.5375C9.55109 19.5333 9.53507 19.5413 9.53516 19.5291C9.53538 19.5167 9.54578 19.5255 9.69089 19.5253L9.56872 19.6109C9.56571 19.6129 9.56171 19.6121 9.55973 19.6092Z" fill="#F7F7F7"/>
<path d="M9.3528 19.5325L9.21893 19.5302C9.1846 19.4094 9.17227 19.3976 9.18402 19.3941C9.1954 19.3898 9.19252 19.4085 9.22852 19.5174C9.27009 19.5191 9.39172 19.515 9.3528 19.5325Z" fill="#F7F7F7"/>
<path d="M9.13314 19.2249C9.13264 19.225 9.1321 19.2251 9.13156 19.2251C9.12868 19.2253 9.12589 19.2235 9.12504 19.2205L9.09304 19.1161L9.0575 19.2194C9.05637 19.2228 9.05273 19.2245 9.04926 19.2234C9.04593 19.2223 9.04413 19.2186 9.04526 19.2152L9.09376 19.0742L9.13737 19.2168C9.13845 19.2202 9.13656 19.2238 9.13314 19.2249Z" fill="#F7F7F7"/>
<path d="M8.8125 19.5161C8.81273 19.5039 8.82352 19.5125 8.94362 19.5119C8.98389 19.4027 8.98061 19.3864 8.99235 19.3901C9.00437 19.3943 8.99037 19.4079 8.9528 19.525C8.82546 19.5202 8.81246 19.5284 8.8125 19.5161Z" fill="#F7F7F7"/>
<path d="M8.63198 19.513C8.63158 19.5252 8.61808 19.5167 8.51603 19.5175L8.60341 19.5833C8.6102 19.5884 8.60246 19.5987 8.59567 19.5936L8.47656 19.5039C8.61952 19.509 8.63207 19.5007 8.63198 19.513Z" fill="#F7F7F7"/>
<path d="M8.85019 19.7839L8.7507 19.709C8.74382 19.7038 8.75174 19.6935 8.75848 19.6987L8.8654 19.7792C8.82099 19.9009 8.82513 19.9135 8.81365 19.9099C8.81028 19.9087 8.81523 19.8933 8.85019 19.7839Z" fill="#F7F7F7"/>
<path d="M9.02989 20.8165L8.9223 20.8359C9.01005 20.881 9.02908 20.881 9.02368 20.8921C9.01837 20.9032 9.01018 20.8899 8.88086 20.8302L9.02759 20.8038C9.0365 20.8027 9.03794 20.815 9.02989 20.8165Z" fill="#F7F7F7"/>
<path d="M9.19647 20.97C9.17654 21.0996 9.18243 21.1077 9.17217 21.1083C9.17177 21.1083 9.17136 21.1083 9.17096 21.1082C9.15872 21.1065 9.16929 21.0916 9.18239 20.9776C9.07876 20.9246 9.06193 20.9258 9.06728 20.9148C9.06881 20.9115 9.08326 20.9181 9.19647 20.97Z" fill="#F7F7F7"/>
<path d="M9.16979 21.1635L9.1549 21.2719L9.23063 21.193C9.23652 21.1869 9.24588 21.1957 9.23999 21.2019L9.13672 21.3095L9.15697 21.1618C9.15823 21.1533 9.17096 21.1551 9.16979 21.1635Z" fill="#F7F7F7"/>
<path d="M9.36817 21.0518C9.48169 21.1096 9.49704 21.1077 9.49168 21.1187C9.48628 21.1298 9.47679 21.1158 9.37096 21.0675C9.28398 21.1572 9.28285 21.1644 9.27565 21.1575C9.26683 21.1491 9.28173 21.1457 9.36817 21.0518Z" fill="#F7F7F7"/>
<path d="M9.64264 21.1848C9.59837 21.0971 9.58304 21.0858 9.59379 21.0801C9.60482 21.0745 9.60276 21.0887 9.67272 21.2136C9.54562 21.1492 9.53069 21.1515 9.53607 21.1403C9.54136 21.1293 9.55292 21.1441 9.64264 21.1848Z" fill="#F7F7F7"/>
<path d="M9.60024 20.8274L9.51398 20.9173C9.56654 21.0207 9.58102 21.03 9.57018 21.0358C9.56698 21.0375 9.56307 21.0362 9.5614 21.0331C9.55871 21.0281 9.49418 20.9076 9.49823 20.915L9.59092 20.8185C9.59664 20.8124 9.60622 20.8211 9.60024 20.8274Z" fill="#F7F7F7"/>
<path d="M9.63337 20.7836C9.62446 20.7751 9.6417 20.7692 9.70888 20.6955L9.60129 20.7149C9.59296 20.7163 9.59058 20.7037 9.59904 20.7021L9.74577 20.6758L9.6425 20.7834C9.63998 20.786 9.63589 20.786 9.63337 20.7836Z" fill="#F7F7F7"/>
<path d="M9.40955 20.7488C9.35335 20.6386 9.33814 20.6278 9.34894 20.6221C9.35988 20.6164 9.35952 20.6335 9.41648 20.7344C9.52942 20.7167 9.54436 20.7055 9.54652 20.7177C9.54877 20.7298 9.53302 20.724 9.40955 20.7488Z" fill="#F7F7F7"/>
<path d="M9.25839 20.4385C9.32364 20.5658 9.337 20.5729 9.32625 20.5786C9.31554 20.5845 9.31531 20.5669 9.26586 20.4796C9.2498 20.5813 9.25506 20.593 9.24489 20.5935C9.24449 20.5936 9.24408 20.5936 9.24368 20.5935C9.23139 20.5917 9.2417 20.5801 9.25839 20.4385Z" fill="#F7F7F7"/>
<path d="M9.21033 20.7707C9.22846 20.6579 9.22239 20.6397 9.23454 20.6417C9.23805 20.6422 9.24052 20.6455 9.24007 20.6491C9.23935 20.6543 9.22064 20.7902 9.22181 20.7817L9.08996 20.8054C9.04299 20.7919 9.17685 20.7795 9.21033 20.7707Z" fill="#F7F7F7"/>
<path d="M7.95878 19.8956C7.96746 19.904 7.95118 19.9091 7.88274 19.9832L7.99046 19.9645C7.99901 19.9633 8.00099 19.9758 7.99262 19.9772L7.8457 20.0027C7.94825 19.9009 7.94992 19.8872 7.95878 19.8956Z" fill="#F7F7F7"/>
<path d="M8.14133 19.9395C8.19681 20.0501 8.21198 20.0609 8.20113 20.0666C8.19047 20.072 8.19213 20.0582 8.13427 19.9539C8.02011 19.971 8.00625 19.982 8.00409 19.9699C8.00193 19.9578 8.01683 19.9637 8.14133 19.9395Z" fill="#F7F7F7"/>
<path d="M8.2644 20.1705C8.28096 20.0707 8.27529 20.0551 8.28726 20.0568C8.29945 20.0585 8.28919 20.0701 8.27155 20.2116C8.20707 20.0839 8.19366 20.0769 8.2046 20.0711C8.21544 20.0654 8.21585 20.084 8.2644 20.1705Z" fill="#F7F7F7"/>
<path d="M8.28669 20.0522C8.27414 20.0504 8.28525 20.0346 8.30024 19.9123C8.42254 19.8937 8.43748 19.8826 8.43964 19.8947C8.44175 19.9065 8.42636 19.9009 8.31171 19.9234C8.29227 20.044 8.29803 20.0517 8.288 20.0522C8.28755 20.0523 8.28714 20.0523 8.28669 20.0522Z" fill="#F7F7F7"/>
<path d="M8.56037 19.8662L8.46223 19.818C8.45467 19.8143 8.46007 19.8027 8.4679 19.8064L8.60181 19.8721C8.44954 19.8985 8.44909 19.902 8.44743 19.8923C8.44527 19.8803 8.4634 19.8855 8.56037 19.8662Z" fill="#F7F7F7"/>
<path d="M8.32227 19.7503L8.34121 19.6178C8.34251 19.6093 8.3552 19.6113 8.35403 19.6196L8.33631 19.7429C8.43962 19.7965 8.45649 19.7954 8.45109 19.8065C8.44533 19.8179 8.42936 19.7992 8.32227 19.7503Z" fill="#F7F7F7"/>
<path d="M8.35216 19.6062C8.34406 19.5588 8.34631 19.6149 8.36093 19.4907C8.28975 19.5604 8.28435 19.5778 8.27562 19.5692C8.2668 19.5607 8.28156 19.5577 8.37938 19.4531C8.35657 19.5975 8.36237 19.6058 8.35216 19.6062Z" fill="#F7F7F7"/>
<path d="M8.17874 19.6785C8.06665 19.6205 8.05018 19.6218 8.05558 19.6108C8.06107 19.5998 8.07038 19.6137 8.17604 19.6627C8.25969 19.5803 8.26302 19.565 8.27193 19.5733C8.28074 19.5818 8.26482 19.5861 8.17874 19.6785Z" fill="#F7F7F7"/>
<path d="M7.94196 19.5622C7.98623 19.6512 8.00089 19.6615 7.99018 19.6672C7.97924 19.673 7.98009 19.6561 7.91211 19.5332C8.0388 19.5984 8.05368 19.5963 8.04835 19.6072C8.04302 19.6183 8.03181 19.6036 7.94196 19.5622Z" fill="#F7F7F7"/>
<path d="M8.00495 19.6773L8.06745 19.7957C7.98097 19.8791 7.97476 19.9012 7.96504 19.8919C7.95622 19.8833 7.9726 19.8785 8.05166 19.7934L7.99352 19.6833C7.98951 19.6758 8.00081 19.6698 8.00495 19.6773Z" fill="#F7F7F7"/>
<path d="M10.7133 15.8337L10.8173 16.4902L11.4465 15.9032L11.4873 15.9359L10.5655 17.4783L10.4316 17.4116L10.6647 15.832L10.7133 15.8337Z" fill="#2D5A9B"/>
<path d="M11.2712 16.1758L10.6681 17.1424L10.6152 17.0999L10.7229 16.6414L11.2712 16.1758Z" fill="#2D5A9B"/>
<path d="M10.4299 16.4991C10.5683 16.327 10.8208 16.2994 10.9929 16.4377C11.165 16.5761 11.1925 16.8286 11.0542 17.0007C10.9159 17.1728 10.6633 17.2003 10.4912 17.062C10.3191 16.9237 10.2916 16.6712 10.4299 16.4991ZM10.4696 16.5309C10.3488 16.6812 10.3728 16.9017 10.5231 17.0224C10.6733 17.1432 10.8938 17.1192 11.0145 16.9689C11.1353 16.8187 11.1113 16.5982 10.961 16.4774C10.8108 16.3566 10.5904 16.3806 10.4696 16.5309Z" fill="#8E8796"/>
<path d="M18.6178 16.4683L18.7105 17.0527L19.2706 16.5302L19.3068 16.5593L18.4863 17.9323L18.3672 17.8728L18.5747 16.4668L18.6178 16.4683Z" fill="#662121"/>
<path d="M19.1132 16.7725L18.5764 17.6328L18.5293 17.595L18.6251 17.1868L19.1132 16.7725Z" fill="#662121"/>
<path d="M18.3656 17.0598C18.4887 16.9066 18.7135 16.8821 18.8666 17.0052C19.0199 17.1284 19.0443 17.3532 18.9212 17.5063C18.7981 17.6595 18.5733 17.684 18.4201 17.5609C18.2669 17.4378 18.2424 17.2129 18.3656 17.0598ZM18.4008 17.0881C18.2933 17.2219 18.3147 17.4181 18.4485 17.5256C18.5822 17.6331 18.7785 17.6117 18.8859 17.4779C18.9934 17.3442 18.9721 17.1479 18.8383 17.0404C18.7046 16.933 18.5083 16.9543 18.4008 17.0881Z" fill="#8E8796"/>
<path d="M25.2038 16.4913L25.2711 16.9163L25.6784 16.5363L25.7048 16.5575L25.1081 17.5559L25.0215 17.5127L25.1724 16.4902L25.2038 16.4913Z" fill="#662121"/>
<path d="M25.5652 16.7119L25.1748 17.3376L25.1406 17.3101L25.2102 17.0132L25.5652 16.7119Z" fill="#662121"/>
<path d="M25.0219 16.9209C25.1114 16.8095 25.2748 16.7918 25.3863 16.8813C25.4977 16.9708 25.5155 17.1343 25.4259 17.2456C25.3365 17.357 25.173 17.3749 25.0616 17.2853C24.9502 17.1958 24.9324 17.0324 25.0219 16.9209ZM25.0475 16.9416C24.9694 17.0388 24.9849 17.1816 25.0821 17.2597C25.1794 17.3379 25.3221 17.3224 25.4003 17.2251C25.4784 17.1278 25.4629 16.9851 25.3656 16.9069C25.2684 16.8288 25.1257 16.8443 25.0475 16.9416Z" fill="#8E8796"/>
<path d="M14.3353 16.5494L14.2624 17.0407L13.788 16.6068L13.7578 16.6315L14.4577 17.777L14.5573 17.7261L14.3715 16.5479L14.3353 16.5494Z" fill="#662121"/>
<path d="M13.9199 16.8096L14.3776 17.5273L14.4168 17.4951L14.333 17.1533L13.9199 16.8096Z" fill="#662121"/>
<path d="M14.5083 17.464C14.3807 17.5686 14.1919 17.5499 14.0872 17.4223C13.9826 17.2947 14.0013 17.1059 14.1289 17.0013C14.2565 16.8967 14.4454 16.9154 14.5499 17.0429C14.6545 17.1706 14.6358 17.3594 14.5083 17.464ZM14.153 17.0307C14.0417 17.122 14.0253 17.2869 14.1166 17.3982C14.2079 17.5096 14.3728 17.5259 14.4842 17.4346C14.5955 17.3433 14.6119 17.1784 14.5206 17.0671C14.4293 16.9557 14.2644 16.9394 14.153 17.0307Z" fill="#8E8796"/>
<path d="M32.4612 15.1466L32.3642 15.7998L31.7335 15.2229L31.6934 15.2558L32.6239 16.7788L32.7563 16.7111L32.5093 15.1445L32.4612 15.1466Z" fill="#FFEA50"/>
<path d="M31.9102 15.4912L32.5186 16.4455L32.5708 16.4027L32.4594 15.9482L31.9102 15.4912Z" fill="#FFEA50"/>
<path d="M32.6927 16.3643C32.5231 16.5034 32.272 16.4785 32.133 16.3089C31.9939 16.1393 32.0188 15.8882 32.1884 15.7492C32.358 15.6101 32.6091 15.635 32.7481 15.8046C32.8872 15.9742 32.8623 16.2253 32.6927 16.3643ZM32.2204 15.7882C32.0723 15.9096 32.0506 16.1288 32.172 16.2769C32.2934 16.4249 32.5126 16.4466 32.6607 16.3252C32.8088 16.2038 32.8305 15.9846 32.7091 15.8365C32.5877 15.6885 32.3684 15.6668 32.2204 15.7882Z" fill="#8E8796"/>
<path d="M27.7963 22.4263C27.7963 22.4263 27.3 21.5658 27.0815 20.7502C26.863 19.9346 26.2208 18.1367 26.2208 18.1367L25.6816 19.1482L26.8395 22.77C26.8395 22.77 27.8212 22.9171 27.7963 22.4263Z" fill="#F4C082"/>
<path d="M21.9632 18.4316C21.9632 18.4316 21.3019 21.693 21.2435 22.4832C21.2435 22.4832 21.0365 22.6709 21.119 22.7454C21.2015 22.82 21.6628 23.165 21.9012 22.9011C22.1396 22.6373 22.5011 19.7231 22.5011 19.7231L21.9632 18.4316Z" fill="#F4C082"/>
<path d="M25.1004 17.4268C25.1004 17.4268 23.9298 18.0175 22.9409 17.5362L21.9629 18.4321L22.5007 19.7236L22.1823 23.5383C22.1823 23.5383 24.9559 24.2834 26.7172 23.3085L26.2492 20.6751L25.1004 17.4268Z" fill="#7D5226"/>
<path d="M25.1004 17.4268L26.2189 18.1377C26.2189 18.1377 25.7565 19.4995 26.2491 20.6751C26.7417 21.8508 26.9501 23.0506 26.7171 23.3085C26.7171 23.3085 23.7559 22.3564 22.1823 23.5383C22.1823 23.5383 22.1351 23.5262 22.081 23.4875C22.044 23.4611 22.0225 23.4356 21.9966 23.4011C21.9109 23.2872 21.7831 22.6532 22.1245 20.8448C22.4658 19.0364 21.9628 18.4321 21.9628 18.4321L22.9409 17.5362C22.9409 17.5362 22.9727 18.1644 23.9809 18.2511C24.9891 18.3378 25.1004 17.4268 25.1004 17.4268Z" fill="#F4D982"/>
<path d="M24.1878 18.3311C25.063 18.2867 25.1703 17.4799 25.1714 17.4708L25.1021 17.4268C25.0978 17.4608 24.9108 18.2545 23.9892 18.1754C23.0653 18.096 22.9441 17.5592 22.9427 17.5362L22.875 17.5982C22.8764 17.6265 22.9142 18.2355 23.9762 18.3268C24.0512 18.3332 24.1217 18.3344 24.1878 18.3311Z" fill="#7D5226"/>
<path d="M22.182 23.5374C22.1203 23.5147 22.0119 23.4497 21.9816 23.3836C21.7728 22.8378 22.1697 20.8378 22.2077 20.5245C22.2533 20.1753 22.2698 19.8207 22.2373 19.4707C22.2402 19.8221 22.204 20.1709 22.149 20.516C21.9741 21.593 21.5877 23.3758 22.182 23.5374Z" fill="#D89857"/>
<path d="M26.7185 23.3086C25.3414 22.861 23.3402 22.6484 22.1836 23.5384C23.3578 22.7072 25.3418 22.9164 26.7185 23.3086Z" fill="#7D5226"/>
<path d="M26.0664 20.0166C26.1285 20.65 27.1112 22.7803 26.7183 23.3088C26.7679 23.2563 26.7926 23.1847 26.8072 23.1147C27.0139 22.1348 26.2186 20.7047 26.0664 20.0166Z" fill="#D89857"/>
<path opacity="0.49" d="M25.461 18.7966C25.461 18.7966 25.4906 20.1481 25.8269 20.8969C26.1631 21.6458 26.1961 22.5569 26.1961 22.5569C26.1961 22.5569 24.6899 22.2873 23.939 22.5046C23.188 22.722 23.1864 19.1876 23.7052 18.9193C24.2239 18.651 25.6407 17.8423 25.461 18.7966Z" fill="#DB5E7D"/>
<path opacity="0.54" d="M26.2432 18.7546C26.2432 18.7546 26.1577 19.5678 26.3065 20.0038C26.4554 20.4398 27.1404 21.7008 27.158 22.0471C27.1756 22.3935 27.232 22.1589 27.4518 22.1792C27.6715 22.1994 26.7851 20.6919 26.7664 20.3239C26.7478 19.956 26.452 18.5235 26.2432 18.7546Z" fill="#F4C082"/>
<path d="M23.2403 19.6969L23.6356 19.4199L24.0212 19.7103L23.8799 19.2487L24.2752 18.9717L23.7926 18.9635L23.6513 18.502L23.4943 18.9584L23.0117 18.9502L23.3973 19.2405L23.2403 19.6969Z" fill="#F7E8A1"/>
<path d="M23.3203 19.5771C23.4049 19.5154 23.4161 19.5153 23.4109 19.5079C23.4058 19.5005 23.3991 19.5126 23.3388 19.5526L23.3648 19.4769C23.3668 19.471 23.358 19.468 23.3558 19.4739L23.3203 19.5771Z" fill="#F7F7F7"/>
<path d="M23.7168 19.4096C23.7223 19.4025 23.7111 19.4017 23.6373 19.3438L23.5567 19.4002C23.5517 19.4038 23.557 19.4116 23.5622 19.408L23.6371 19.3555C23.7058 19.4048 23.7115 19.4168 23.7168 19.4096Z" fill="#F7F7F7"/>
<path d="M23.9446 19.5883C23.9124 19.49 23.9152 19.4777 23.9067 19.4809C23.8981 19.4835 23.9075 19.4933 23.927 19.5633L23.8631 19.5152C23.8581 19.5115 23.8524 19.519 23.8574 19.5228L23.9446 19.5883Z" fill="#F7F7F7"/>
<path d="M23.855 19.3129C23.8635 19.3103 23.855 19.3029 23.8314 19.2195L23.9063 19.1669C23.9115 19.1633 23.906 19.1556 23.9009 19.1591L23.8203 19.2156L23.8491 19.3097C23.8499 19.3124 23.8528 19.3136 23.855 19.3129Z" fill="#F7F7F7"/>
<path d="M24.1471 18.9972C24.0422 18.9974 24.0334 18.9909 24.0332 19C24.0331 19.0089 24.0442 19.0031 24.1179 19.0062C24.0592 19.0495 24.046 19.0513 24.0512 19.0586C24.0527 19.0608 24.0615 19.0548 24.1471 18.9972Z" fill="#F7F7F7"/>
<path d="M23.7606 18.9909L23.7339 18.9038C23.7321 18.8976 23.7231 18.9006 23.7248 18.9065L23.7536 19.0002L23.8515 19.0019C23.8813 18.9886 23.8037 18.9926 23.7606 18.9909Z" fill="#F7F7F7"/>
<path d="M23.6757 18.7313C23.6844 18.7287 23.6756 18.7213 23.6469 18.6211C23.6147 18.7207 23.6059 18.7274 23.6143 18.7303C23.6229 18.7329 23.6203 18.7218 23.6464 18.6517L23.6698 18.7282C23.6706 18.7308 23.6735 18.7321 23.6757 18.7313Z" fill="#F7F7F7"/>
<path d="M23.5284 18.9946C23.5566 18.9068 23.5658 18.8989 23.5574 18.8959C23.5489 18.8932 23.5516 18.904 23.5217 18.985C23.4349 18.9854 23.426 18.979 23.4258 18.9881C23.4258 18.9907 23.4278 18.9928 23.4304 18.9929L23.5284 18.9946Z" fill="#F7F7F7"/>
<path d="M23.2286 19.0443C23.234 19.0372 23.2204 19.0344 23.1637 18.9895L23.2437 18.9908C23.2493 18.9916 23.2506 18.9815 23.2438 18.9814L23.1348 18.9795L23.2219 19.0451C23.2241 19.0468 23.227 19.0463 23.2286 19.0443Z" fill="#F7F7F7"/>
<path d="M23.4556 19.2096C23.3818 19.1564 23.3757 19.1441 23.3703 19.1513C23.3649 19.1583 23.3763 19.1593 23.4444 19.213C23.4184 19.2944 23.409 19.3026 23.4176 19.3055C23.4275 19.3087 23.4297 19.2761 23.4556 19.2096Z" fill="#F7F7F7"/>
<path d="M22.4531 18.6828L22.728 18.6473L22.8467 18.8977L22.8979 18.6253L23.1728 18.5898L22.9295 18.457L22.9806 18.1846L22.7791 18.3749L22.5359 18.2421L22.6546 18.4925L22.4531 18.6828Z" fill="#D89857"/>
<path d="M22.4609 19.9475L22.7358 19.912L22.8546 20.1624L22.9057 19.89L23.1806 19.8545L22.9373 19.7216L22.9885 19.4492L22.787 19.6396L22.5437 19.5067L22.6624 19.7572L22.4609 19.9475Z" fill="#F7E8A1"/>
<path d="M2.40681 19.763C2.77758 20.1729 4.49079 19.8818 4.68266 19.0445C4.90508 18.0741 3.6741 17.5573 4.09689 16.9528C4.23661 16.7531 4.42595 16.5886 4.66826 16.603C4.85572 16.6784 4.99903 16.7197 5.04137 16.7338C4.8433 14.726 3.03933 14.2433 3.20883 15.2207C3.28015 15.6324 3.69813 16.157 4.47918 16.5209C4.30869 16.569 4.15188 16.6938 4.01221 16.8935C3.53303 17.5784 4.79205 18.1045 4.58191 19.0214C4.40953 19.7734 2.80134 20.0452 2.48344 19.6937C2.30835 19.5002 2.66365 18.9571 3.30216 18.9733C3.46945 18.9773 3.54644 19.0249 3.55567 19.0539C3.58204 19.1369 3.07821 19.4421 2.9807 19.293L2.89372 19.3488C2.89772 19.3553 2.93579 19.4126 3.02947 19.4303C3.16258 19.4556 3.33608 19.3898 3.54491 19.2346C3.75239 19.0806 3.68121 18.879 3.30463 18.87C2.56227 18.8527 2.16981 19.5011 2.40681 19.763ZM4.91718 16.5643C4.86134 16.5369 4.78458 16.509 4.69319 16.5008C3.83658 16.1528 3.38216 15.6159 3.31066 15.203C3.17418 14.4151 4.64032 14.8821 4.91718 16.5643Z" fill="#EF8A25"/>
<path d="M4.71528 16.632C4.72473 16.8188 4.8838 16.9625 5.07053 16.953C5.25727 16.9436 5.40099 16.7845 5.39154 16.5978C5.38205 16.411 5.22303 16.2673 5.03625 16.2768C4.84955 16.2862 4.70583 16.4453 4.71528 16.632Z" fill="#463954"/>
<path d="M4.93772 16.5398C4.94267 16.6372 5.0314 16.7118 5.13593 16.7065C5.24045 16.7012 5.32118 16.618 5.31627 16.5205C5.31132 16.4231 5.22259 16.3485 5.11806 16.3538C5.01354 16.3591 4.93277 16.4424 4.93772 16.5398Z" fill="#E1DAE8"/>
<path d="M47.062 15.9709C46.7134 16.1134 46.7186 16.3273 46.9673 16.3973C47.2177 16.4678 47.4033 16.4676 47.5187 16.3966C47.5999 16.3466 47.6151 16.2795 47.6165 16.272L47.5153 16.2508C47.4774 16.4249 46.8979 16.3192 46.8929 16.2322C46.8912 16.2018 46.9462 16.1299 47.1011 16.0666C47.692 15.824 48.2174 16.205 48.1227 16.4482C47.9508 16.8899 46.3513 17.2086 45.9224 16.5673C45.3995 15.7854 46.3886 14.8454 45.6969 14.376C45.4953 14.2392 45.3042 14.1783 45.1278 14.1942C45.7281 13.576 45.9318 12.9369 45.8518 12.5268C45.6621 11.5531 44.1484 12.6466 44.6783 14.5933C44.7129 14.565 44.8321 14.4754 44.9804 14.3382C45.2016 14.2385 45.4372 14.3247 45.6389 14.4616C46.2492 14.8759 45.283 15.7972 45.8365 16.6248C46.314 17.3389 48.0185 17.0007 48.219 16.4857C48.3472 16.1565 47.7495 15.6904 47.062 15.9709ZM45.7503 12.5466C45.8306 12.9579 45.5972 13.6214 44.9207 14.2516C44.8383 14.2919 44.7765 14.3453 44.734 14.3907C44.3937 12.7203 45.5973 11.7617 45.7503 12.5466Z" fill="#EF8A25"/>
<path d="M44.9478 14.3817C45.0055 14.5596 44.9081 14.7505 44.7302 14.8082C44.5523 14.8658 44.3614 14.7684 44.3037 14.5905C44.246 14.4127 44.3435 14.2217 44.5214 14.164C44.6993 14.1064 44.8902 14.2038 44.9478 14.3817Z" fill="#463954"/>
<path d="M44.7065 14.3734C44.7366 14.4662 44.6803 14.5675 44.5807 14.5998C44.4812 14.6321 44.3761 14.583 44.346 14.4902C44.3159 14.3974 44.3723 14.2961 44.4718 14.2638C44.5714 14.2316 44.6765 14.2806 44.7065 14.3734Z" fill="#E1DAE8"/>
<path d="M22.7912 16.4507L22.7238 16.9044L22.2857 16.5036L22.2578 16.5265L22.9042 17.5845L22.9962 17.5375L22.8246 16.4492L22.7912 16.4507Z" fill="#662121"/>
<path d="M22.4102 16.6914L22.8329 17.3543L22.869 17.3246L22.7917 17.0089L22.4102 16.6914Z" fill="#662121"/>
<path d="M22.9514 17.2965C22.8335 17.393 22.6591 17.3758 22.5625 17.258C22.4659 17.1402 22.4832 16.9658 22.601 16.8691C22.7188 16.7726 22.8933 16.7898 22.9899 16.9076C23.0865 17.0255 23.0692 17.1999 22.9514 17.2965ZM22.6233 16.8963C22.5204 16.9806 22.5053 17.1329 22.5897 17.2358C22.674 17.3386 22.8263 17.3537 22.9291 17.2694C23.032 17.1851 23.047 17.0328 22.9627 16.9299C22.8784 16.827 22.7261 16.812 22.6233 16.8963Z" fill="#8E8796"/>
<rect y="28.542" width="51" height="1.87156" fill="#CF945A"/>
<rect x="0.935547" y="30.4141" width="49.1284" height="13.1009" fill="#AD7D4D"/>
</svg>
