<svg width="50" height="43" fill="none" xmlns="http://www.w3.org/2000/svg"><path d="M46.102 40.142V11" stroke="#F7F7F7" stroke-width="5" stroke-linecap="round" stroke-linejoin="bevel"/><path d="M39.777 0h4.067l4.744 7.003c.226 2.26-.452 4.066-2.26 4.518-1.445.362-2.56-.753-2.936-1.355V7.229L39.777 0Z" fill="#AD7D4D"/><path d="M35.484 0h4.293l3.614 7.23v2.484c-.15.678-.858 2.033-2.485 2.033-1.626 0-2.635-1.656-2.937-2.485V7.23L35.484 0Z" fill="#F7F7F7"/><path d="M37.967 9.94V7.005h-5.195v2.71c.3.603 1.265 1.853 2.71 2.034 1.446.18 2.26-1.13 2.485-1.807ZM35.482 0h-4.066l1.356 7.003h5.421L35.483 0Z" fill="#AD7D4D"/><path d="M27.127 0h4.292l1.356 7.003V9.94c-.15.602-.859 1.807-2.485 1.807-2.034 0-3.163-1.807-2.711-4.744L27.127 0Z" fill="#F7F7F7"/><path d="M22.607 0h4.518l.452 7.003c.226 1.506.135 4.518-2.033 4.518-2.17 0-3.012-1.054-3.163-1.581V7.003L22.607 0Z" fill="#AD7D4D"/><path d="M4.307 40.142V11" stroke="#F7F7F7" stroke-width="5" stroke-linecap="round" stroke-linejoin="bevel"/><path d="M16.96 7.23c.227 1.505.046 4.517-2.484 4.517s-2.862-3.012-2.711-4.518L14.25 0h4.292l-1.581 7.23Z" fill="#AD7D4D"/><path d="M9.053 11.747c-2.35 0-2.635-3.162-2.485-4.744L9.957 0h4.292l-2.485 7.003c.075 1.506-.361 4.744-2.71 4.744Z" fill="#F7F7F7"/><path d="M1.371 7.003 5.89 0h4.292L6.567 7.003v2.711c-.226.678-1.084 2.033-2.71 2.033-1.627 0-2.335-1.355-2.486-2.033v-2.71Z" fill="#AD7D4D"/><path d="M18.542 0h4.293l-.452 7.003v3.163c-.302.602-1.265 1.762-2.711 1.581-1.446-.18-2.41-1.43-2.711-2.033v-2.71L18.542 0Z" fill="#F7F7F7"/><path fill="#CF945A" d="M0 28.143h50v1.798H0z"/><path fill="#AD7D4D" d="M.916 29.941h48.165v12.587H.916z"/><path d="M22.589 17.703c2.687-.136 5.54-.385 8.531-.744 7.988-.96 14.261-2.396 14.323-2.41l-.023-.1c-.062.014-6.33 1.448-14.314 2.407-7.365.885-17.738 1.534-25.327-.397l-.025.1c3.358.855 7.535 1.281 12.414 1.267a92.835 92.835 0 0 0 4.42-.123Z" fill="#EF8A25"/><path d="m19.68 24.58.066-.914-1.383.032-.19.41.157.671 1.35-.198ZM14.878 24.648l.302-.654-.414-.687-.694-.038-.322.193-.072.874 1.2.312Z" fill="#F4D982"/><path d="M13.75 23.463c.684-.226 1.43.532 1.43.532 1.154-.803 1.65-2.956 1.65-2.956.42 2.684 1.342 3.07 1.342 3.07.322-.567 1.568-.344 1.568-.344.146-3.032-.465-6.14-.555-6.108-1.357.47-4.08-.065-4.08-.065-.543 1.1-1.354 5.867-1.355 5.871Z" fill="#F4D982"/><path d="M18.174 24.108c.278-.418 1.069-.391 1.568-.344-.494-.114-1.345-.113-1.568.344ZM13.75 23.463c.502-.126 1.036.197 1.43.532-.336-.377-.948-.725-1.43-.532ZM15.105 17.592c-.633 1.658-1.083 4.11-1.355 5.871.24-1.26.888-4.77 1.355-5.871Z" fill="#F4D982"/><path d="M19.373 22.311c.095.407.239 1.086.001 1.398.293-.276.154-1.014-.001-1.398ZM19.008 23.154c.006.164.06.413.125.567a1.923 1.923 0 0 0-.125-.567ZM17.977 22.824c.02.325.194 1.088.494 1.045-.273-.016-.427-.76-.494-1.045ZM14.255 22.384c-.099.249-.261.893-.085 1.032-.111-.139.011-.63.085-1.032ZM15.123 22.852c-.151.345-.268.73-.377.805.169-.058.34-.604.377-.805ZM15.339 23.493c-.128.105-.268.26-.378.293.132.021.316-.164.378-.293ZM14.883 18.19c.212.12.51.26.93.422 1.178.456 2.875-.087 3.54-.337-.078-.398-.142-.626-.166-.618-1.357.47-4.08-.065-4.08-.065a4.43 4.43 0 0 0-.224.598Z" fill="#F4D982"/><path d="M14.883 18.19c.264.165.622.33.913.45.144.04.206.103.714.172.728.067 1.735-.067 2.843-.538-2.589.826-3.443.307-3.534.306-.07-.026-.205-.074-.406-.155-.18-.07-.356-.15-.53-.236Z" fill="#F4D982"/><path opacity=".49" d="M18.355 18.962c.389 0 .719.286.798.667.155.75.405 2.178.147 2.576-.355.548-1.712-1.18-1.686-1.977.02-.612.135-1.267.74-1.266Z" fill="#F4D982"/><path d="m14.828 20.654.459-.322.447.337-.164-.535.46-.322-.561-.01-.164-.535-.182.53-.56-.01.447.337-.182.53Z" fill="#F4D982"/><path d="M14.92 20.515c.098-.072.111-.072.105-.08-.006-.009-.014.005-.084.052l.03-.088c.003-.007-.008-.01-.01-.004l-.041.12ZM15.38 20.32c.006-.008-.007-.009-.093-.076l-.093.066c-.006.004 0 .013.006.009l.087-.061c.08.057.086.071.093.063ZM15.646 20.528c-.037-.115-.034-.129-.044-.125-.01.003.001.014.024.096l-.074-.056c-.006-.005-.013.004-.007.008l.101.077ZM15.542 20.207c.01-.003 0-.012-.027-.109l.087-.06c.006-.005 0-.014-.007-.01l-.093.066.033.11c.001.002.005.004.007.003ZM15.88 19.841c-.122 0-.132-.007-.132.003s.013.004.098.008c-.068.05-.083.052-.077.06a.547.547 0 0 0 .111-.07ZM15.432 19.834l-.03-.101c-.003-.008-.013-.004-.011.003l.033.109.115.002c.034-.016-.056-.011-.107-.013ZM15.336 19.531c.01-.003 0-.011-.033-.128-.037.116-.048.124-.038.127.01.003.007-.01.037-.091l.028.089c0 .003.004.004.006.003ZM15.16 19.84c.033-.102.044-.111.034-.115-.01-.003-.006.01-.041.104-.101 0-.112-.007-.112.003 0 .004.002.006.005.006l.115.002ZM14.818 19.896c.006-.008-.01-.011-.075-.063l.092.001c.007.001.008-.01 0-.01l-.126-.003.101.076a.006.006 0 0 0 .008 0ZM15.077 20.086c-.086-.061-.093-.076-.1-.067-.005.008.008.01.087.071-.03.095-.041.104-.031.108.011.003.014-.034.044-.112ZM14.457 21.34l.32-.042.137.29.06-.316.318-.04-.282-.155.06-.316-.235.22-.282-.154.138.291-.234.221ZM14.676 22.387l.319-.041.138.29.059-.316.32-.041-.283-.154.06-.316-.235.22-.282-.154.138.291-.234.22Z" fill="#F4D982"/><path d="m42.092 17.985.416-1.209s-1.332.87-2.83.33l.098 1.361 1.293.278 1.023-.76Z" fill="#7B5936"/><path d="M38.297 17.944c.003.01.01.193.175.317.264.198.155.06 4.902-.59a.437.437 0 0 0-.06-.867c-2.492-.019-2.356-.03-2.45-.012l-.108-.63c.292-.04.511-.275.498-.544-.032-.624-1.047-.663-1.157-.048-.012.067.09.086.102.018.088-.495.926-.466.951.035.012.23-.193.428-.457.441l-.058.003.13.751-2.161.648a.433.433 0 0 0-.307.478Zm.154-.022a.279.279 0 0 1 .197-.307l2.219-.666c.082-.024-.058-.007 2.446.01a.281.281 0 0 1 .038.558c-4.987.701-4.76.846-4.9.405Z" fill="#FCBE7F"/><path d="M47.32 23.218s-1.039 1.32-3.676 1.964c-2.637.644-6.003 1.899-5.958 1.199.045-.7.464-1.313 2.999-2.326 2.534-1.012 3.337-1.303 4.608-1.46 1.271-.157 2.027.623 2.027.623Z" fill="#7D5226"/><path d="M43.31 19.227s.98.532 2.442 2.197c1.433 1.63 1.567 1.793 1.567 1.793s-.25-.046-3.084.909c-3.538 1.192-6.33 1.234-6.55 2.254 0 0 .244-5.369 1.466-6.577l4.159-.576Z" fill="#C3803C"/><path d="M43.39 16.642s-.631 2.12-.08 2.585c0 0-2.07 1.516-4.159.576 0 0-.225-2.125-.544-2.338l1.072-.359s.44 1.342 1.345 1.309c.905-.033 1.485-1.639 1.485-1.639l.88-.134Z" fill="#D89857"/><path d="M39.771 20.038c-.192.268-.68.888-.806 1.078.13-.308.535-.813.796-1.08a3.174 3.174 0 0 1-.612-.233c.535.186.49.144.655.188.034-.003 1.562.42 3.504-.764-.8.62-1.873.99-2.908.915-.492.705-.92 1.373-1.127 2.11.086-.663.665-1.57 1.116-2.111a3.446 3.446 0 0 1-.618-.103Z" fill="#C3803C"/><path d="M44.6 20.452c-.36-.384-.977-1.01-1.49-1.08.526-.002 1.186.65 1.49 1.08ZM43.807 21.407l-.14-.224c-.227-.388-.882-1.521-1.013-1.535.194-.003.92 1.268 1.153 1.76ZM42.366 22.096c-.28-.35-.376-1.713-.38-2.164.102.79.192 1.856.38 2.164ZM40.951 20.143c-.08.823-.291 2.223-.48 3.032.031-.205-.124.774.48-3.032Z" fill="#C3803C"/><path d="M42.198 18.81a.24.24 0 1 0 .48-.024.24.24 0 0 0-.48.024ZM41.266 19.63a.197.197 0 1 0 .393-.02.197.197 0 0 0-.393.02ZM39.85 18.879c.006.124.133.22.282.212.15-.008.266-.115.26-.24-.007-.124-.133-.22-.283-.212-.15.008-.266.115-.26.24ZM39.133 17.715a.18.18 0 1 0 .358-.018.18.18 0 0 0-.358.018ZM42.424 17.603a.233.233 0 1 0 .465-.024.233.233 0 0 0-.465.024ZM40.234 19.609a.123.123 0 1 0 .247-.013.123.123 0 0 0-.247.013ZM39.315 23.509a.275.275 0 1 0 .549-.028.275.275 0 0 0-.55.027ZM39.713 22.227a.217.217 0 1 0 .434-.022.217.217 0 0 0-.434.022ZM41.217 21.414a.266.266 0 1 0 .53-.027.266.266 0 0 0-.53.027ZM41.989 23.164a.26.26 0 1 0 .519-.027.26.26 0 0 0-.52.027ZM43.16 22.046a.211.211 0 1 0 .422-.022.211.211 0 0 0-.422.022ZM43.93 20.947a.203.203 0 1 0 .406-.02.203.203 0 0 0-.406.02ZM45.588 22.288a.23.23 0 1 0 .46-.023.23.23 0 0 0-.46.023ZM44.479 23.28a.242.242 0 1 0 .484-.024.242.242 0 0 0-.484.025ZM38.791 24.838c.007.121.092.215.192.21.1-.005.176-.107.17-.228-.006-.121-.092-.215-.192-.21-.1.005-.176.107-.17.228ZM40.41 24.582a.265.265 0 1 0 .53-.027.265.265 0 0 0-.53.027ZM38.99 20.932a.243.243 0 1 0 .486-.024.243.243 0 0 0-.485.024Z" fill="#FDFFFF"/><path opacity=".41" d="M43.123 19.634s3.47 3.101 3.481 3.33c.012.227-.602.634-1.013.435-.411-.2-2.468-3.765-2.468-3.765ZM42.674 20.056s1.622 2.848 1.342 3.438c-.281.59-.717.315-.804.237-.086-.078-.538-3.675-.538-3.675ZM41.722 20.344s.913 3.581.527 4.008c-.386.427-.816.495-.99.115-.175-.379.463-4.123.463-4.123Z" fill="#D89857"/><path d="M40.637 16.354a.123.123 0 1 0 .245-.013.123.123 0 0 0-.245.013Z" fill="#F92515"/><path d="M40.686 16.686a.122.122 0 1 0 .243-.012.122.122 0 0 0-.243.012Z" fill="#F72FB4"/><path d="M40.767 16.304c.011.018.051.051.069.04.017-.011.005-.063-.006-.08-.011-.018-.064-.032-.082-.02-.017.01.008.043.019.06Z" fill="#FF8B88"/><path d="M40.802 16.659c.016.033.044.052.063.043.019-.01.043-.051.027-.084-.017-.033-.067-.045-.086-.036-.018.01-.02.043-.004.076Z" fill="#F72FB4"/><path d="M34.582 18.368a.38.38 0 0 0-.445.04.327.327 0 1 0-.127.64.42.42 0 0 0 .51.28.298.298 0 0 0 .479-.352.298.298 0 0 0-.25-.402.38.38 0 0 0-.167-.206ZM33.562 16.8s.19.34.018.953c-.17.613-.404.827-.404.827s-.37.639-.567.505c-.196-.135-.144-1.204.114-1.776.258-.572.51-.87.84-.51Z" fill="#F4D376"/><path d="M31.708 20.472s-.067 1.288.107 1.734c.174.447.788.503.808-.002.02-.505-.23-1.233-.258-1.387-.029-.154-.442-.659-.657-.345Z" fill="#E0A565"/><path d="M36.421 20.163c-.053.01-1.152.344-1.72.351-.569.008-.181-1.188-.181-1.188l1.252.221.65.616Z" fill="#F2BA77"/><path d="m34.792 20.507-.43 2.434-.794-.548s.181-.74-.004-1.127c-.186-.386 1.228-.76 1.228-.76Z" fill="#E0A565"/><path d="m29.996 18.36-1.03-.233-.216.532 1.123.007.123-.307ZM29.823 18.975l-.622.334-.135.325.74-.08.017-.58Z" fill="#FFA9BA"/><path d="M36.364 18.626s-.219-.442-.566-.102c-.346.34-.197 1.509.416 1.68.613.17.15-1.578.15-1.578ZM34.34 23.04s-.102.264-.812.305c-.71.042-1.25-.267-1.08-.82.383-1.26 2.174.103 1.891.515Z" fill="#F4D982"/><path d="M32.052 18.585s.015-.014.046-.035c.16-.11.732-.427 1.582-.03 1.011.474 1.485.818 1.453 1.44-.033.62-.45 1.006-.912 1.343-.462.336-.744.29-1.418.031-.675-.257-.948-.499-1.207-.914-.26-.415.456-1.835.456-1.835Z" fill="#EADCA4"/><path d="M30.558 17.907s.668-.328 1.176.197c.508.526.59 1.513.348 1.866-.242.353-1.15.849-1.767.425-.617-.423-.793-2.181.243-2.488Z" fill="#F9F0C5"/><path d="M30.557 17.905c1.338-.518 1.928 1.371 1.523 2.064a.886.886 0 0 0 .134-.386c.142-1.054-.652-2.177-1.657-1.678Z" fill="#DB9D6A"/><path d="M31.261 20.174c.081.006.164-.066.16-.17-.003-.12-.126-.189-.224-.245l.021-.048c.032.01.062.02.095.034.542.18.558-.335.355-.414-.136-.052-.168-.014-.156-.023-.122.108-.282-.136-.05-.191.254-.054.578.183.426.545-.07.16-.205.245-.392.211.17.222-.037.525-.249.51-.138-.009-.124-.218.014-.209Z" fill="#EADCA4"/><path d="M30.875 19.582c-.06.151-.025.305.076.345.101.04.231-.05.29-.2.06-.151.025-.306-.076-.346-.101-.04-.231.05-.29.201Z" fill="#31303D"/><path d="M30.96 19.57c.002.064.048.113.1.11.053-.002.093-.056.09-.119-.004-.063-.049-.112-.101-.11-.053.003-.093.056-.09.12Z" fill="#909091"/><path d="M30.692 18.819a.193.193 0 1 0 .384-.02.193.193 0 0 0-.384.02ZM30.223 19.782a.173.173 0 1 0 .346-.018.173.173 0 0 0-.346.018Z" fill="#31303D"/><path d="M29.464 19.386s2.553 1.72 2.203 3.017c-.351 1.298-2.443-1.001-2.584-2.251-.142-1.25.381-.766.381-.766Z" fill="#F4D376"/><path d="M30.355 19.087s1.418.824 1.34 2.138c-.078 1.314-1.282.866-1.516.066-.235-.8-.312-2.007-.994-2.306-.682-.298-.373-.413-.315-.651.058-.24.094-.23.282-.199.188.031 1.203.952 1.203.952Z" fill="#F4D982"/><path d="M31.695 21.225c-.053.55-.31.95-.828.775-.704-.254-.718-.964-.903-1.715-.406-1.623-.947-1.181-1.192-1.572.165.292.619.14.947.93.42 1.044.23 2.095 1.136 2.394a.67.67 0 0 0 .348.024c.154-.03.259-.146.265-.15.055-.085.203-.196.227-.686Z" fill="#DB9D6A"/><path opacity=".43" d="M29.83 19.115s.458 2.393 1.018 2.457c.56.064.503-.955.214-1.355-.29-.4-1.232-1.102-1.232-1.102Z" fill="#F4D982"/><path opacity=".49" d="M32.343 20.465c.025.502.548.884 1.169.852.62-.031 1.102-.464 1.076-.966-.025-.502-.549-.883-1.169-.852-.62.031-1.102.464-1.076.966Z" fill="#DB5E7D"/><path d="M33.133 22.906c.013.254.227.416.48.403.254-.013.578-.106.565-.36-.013-.253-.356-.538-.61-.525a.46.46 0 0 0-.435.482ZM32.854 22.3c-.032.062.029.157.135.211.106.055.219.048.25-.014.033-.063-.028-.158-.134-.212-.107-.055-.219-.048-.25.014ZM32.637 22.664c-.009.056.076.117.19.136.115.019.216-.011.225-.068.009-.056-.076-.117-.19-.136-.115-.018-.215.012-.225.068ZM32.594 23.014c.002.054.086.093.187.088.1-.005.18-.053.177-.106-.003-.053-.087-.092-.187-.087-.1.005-.18.052-.177.105Z" fill="#FFA9BA"/><path d="M7.704 20.208c.175.77 2.215 1.984 3.169 1.17.954-.814.656-2.13.44-3.502 0 0-.166-.668-.899-.319-1.088.519-2.876 1.92-2.71 2.651Zm2.08-2.009c.325-.539 1.306-.622 1.306-.622s.53.873-.136 1.441c-.667.569-1.495-.28-1.17-.819Z" fill="#FF8F9D"/><path d="M11.287 17.798a.61.61 0 0 1 .027.08c.17 1.258.474 2.568-.39 3.396-.348.294-.804.49-1.688.158-.76-.287-1.524-.938-1.491-1.328-.023-.801 2.26-2.465 2.914-2.616l.047-.01c.018.002.388-.098.581.32-.112-.27-.322-.392-.634-.337-.668.133-3.017 1.75-3.003 2.643-.058.736 2.136 2.202 3.262 1.3.018-.024.514-.375.624-1.205.106-.786-.196-2.285-.249-2.401Z" fill="#FFC392"/><path d="M11.09 17.578c-.934.047-1.79.618-1.278 1.322.677.95 2.053-.12 1.277-1.322.549 1.122-.364 1.876-.98 1.464-.634-.404-.453-1.232.98-1.464Z" fill="#FFC392"/><path d="M9.727 16.767c.247.358.817.57 1.255.646l.062.009.03.004.017.001h.007l.004.001a.03.03 0 0 0 .031-.006c-.182-1.45-.832-1.467-.832-1.467-.26.037-1.062.004-.574.812Zm.329-.291c.028-.047.258-.094.263-.096-.005.001.055-.013.1-.009.104.011.239.09.278.175.134.258.194.44.38.802.022.015-1.178-.547-1.021-.872Z" fill="#FFCB97"/><path d="M11.143 17.419a2.334 2.334 0 0 0-1.362-.191c-.287.043-1.084.395-1.301.53a1.363 1.363 0 0 0-.016.012l-.014.013.306.298-.007.007-.003.002-.002.002a.457.457 0 0 1 .102-.077c.185-.125.768-.489.993-.555a2.19 2.19 0 0 1 1.284.007l.02-.048ZM11.318 17.714c.262.356.579.942.528 1.382l.196.015c.011-.493-.358-1.064-.684-1.43l-.04.033Z" fill="#DDAC80"/><path d="M11.137 17.49c.008.06.51.699.88.83.04.018.09.027.138.036.267.025.452-.202.485-.473.081-.678-.74-1.11-1.45-.451-.049.043-.05.048-.053.059Zm.07.007c.605-.34.91-.161.91-.161.475.236.31.923-.031.785-.281-.083-.78-.536-.88-.624Z" fill="#FFCB97"/><path d="M11.024 17.481c.006.119.093.211.195.206.103-.005.18-.106.174-.225-.006-.118-.093-.21-.195-.205-.102.005-.18.106-.174.224Z" fill="#DDAC80"/><path d="m9.288 20.33.45-.315.44.33-.16-.525.45-.316-.55-.01-.161-.526-.18.52-.55-.009.44.331-.179.52ZM9.664 20.842l.227.11-.034.25.175-.183.227.11-.12-.222.175-.182-.248.044-.12-.222-.034.25-.248.045Z" fill="#F7E8A1"/><path d="m8.598 19.951.219-.038.104.197.032-.22.219-.038-.2-.098.032-.22-.155.159-.2-.098.104.197-.155.16Z" fill="#F7E8A1"/><path d="m9.422 20.085-.035.103.089-.063c.007-.005.014.006.007.01l-.122.086.049-.14c.003-.008.015-.004.012.004ZM9.845 20.032c-.005 0-.005-.003-.104-.076-.095.063-.104.08-.11.07-.008-.01.008-.012.11-.087.044.038.136.091.104.093ZM9.999 20.134l.087.066c-.027-.095-.04-.109-.028-.113.012-.004.008.014.052.147l-.12-.09c-.006-.004.002-.015.009-.01ZM9.974 19.791c.032.112.044.124.032.127-.01.004-.006-.006-.047-.132.103-.069.112-.085.119-.075.007.01-.01.011-.104.08ZM10.222 19.61c-.007-.01.01-.013.091-.072-.1-.005-.116.003-.116-.009s.01-.003.156-.004l-.122.086a.007.007 0 0 1-.01-.002ZM10.015 19.532l-.134-.002c-.034-.12-.047-.132-.035-.136.012-.004.009.015.045.123.041.002.163-.002.124.015ZM9.795 19.225h-.001a.006.006 0 0 1-.007-.005l-.032-.104-.035.103a.006.006 0 0 1-.013-.004l.049-.14.043.142a.006.006 0 0 1-.004.008ZM9.475 19.516c0-.012.01-.003.13-.004.041-.11.038-.126.05-.122.011.004-.003.018-.04.135-.127-.005-.14.003-.14-.009ZM9.294 19.513c0 .012-.014.004-.116.004l.088.066c.006.005-.001.016-.008.01l-.12-.09c.144.006.156-.002.156.01ZM9.512 19.784l-.1-.075c-.006-.005.002-.015.009-.01l.107.08c-.045.122-.04.134-.052.13-.004 0 .001-.016.036-.125ZM9.692 20.817l-.108.019c.088.045.107.045.102.056-.006.011-.014-.002-.143-.062l.147-.026c.009-.001.01.011.002.013ZM9.859 20.97c-.02.13-.014.138-.025.138-.013-.002-.003-.016.01-.13-.103-.053-.12-.052-.115-.063.002-.003.016.003.13.055ZM9.832 21.163l-.015.109.076-.079c.006-.006.015.003.01.009l-.104.107.02-.147c.001-.009.014-.007.013.002ZM10.03 21.052c.114.058.13.056.124.067-.006.01-.015-.003-.12-.052-.088.09-.089.097-.096.09-.01-.008.006-.011.092-.105ZM10.305 21.185c-.044-.088-.06-.1-.05-.105.012-.005.01.009.08.134-.127-.065-.142-.063-.137-.074.005-.01.017.004.107.045ZM10.262 20.827l-.086.09c.053.104.067.113.056.119a.007.007 0 0 1-.008-.003l-.064-.118.093-.096c.006-.007.015.002.01.008ZM10.296 20.784c-.01-.009.008-.015.075-.088l-.108.019c-.008.001-.01-.011-.002-.013l.147-.026-.103.107a.006.006 0 0 1-.01 0ZM10.072 20.749c-.056-.11-.072-.121-.06-.127.01-.006.01.012.067.112.112-.017.127-.029.13-.016.002.012-.014.006-.137.03ZM9.92 20.439c.066.127.08.134.068.14-.01.005-.01-.012-.06-.1-.016.102-.01.114-.021.114h-.001c-.013-.001-.002-.013.014-.154ZM9.872 20.77c.019-.112.012-.13.025-.128.003 0 .006.003.005.007l-.018.133-.132.023c-.047-.013.087-.026.12-.034ZM8.62 19.896c.01.008-.007.013-.075.087l.108-.018c.008-.002.01.01.002.012l-.147.026c.102-.102.104-.116.113-.107ZM8.803 19.94c.056.11.071.12.06.127-.01.005-.009-.009-.067-.113-.114.017-.128.028-.13.016-.002-.012.013-.006.137-.03ZM8.927 20.17c.016-.1.01-.115.022-.113.013.002.002.013-.015.155-.065-.128-.078-.135-.067-.14.01-.007.011.012.06.099ZM8.949 20.052c-.013-.002-.002-.017.013-.14.123-.018.138-.03.14-.017.002.012-.014.006-.128.028-.02.121-.014.129-.024.13H8.95ZM9.222 19.866l-.098-.048c-.007-.004-.002-.015.006-.012l.134.066c-.152.026-.153.03-.154.02-.003-.012.016-.006.112-.026ZM8.984 19.75l.02-.132c0-.009.013-.007.012.002l-.018.123c.104.054.12.052.115.064-.006.01-.022-.008-.129-.057ZM9.014 19.606c-.008-.047-.006.009.009-.115-.071.07-.077.087-.085.078-.01-.008.006-.011.103-.116-.022.145-.017.153-.027.153ZM8.84 19.678c-.111-.058-.128-.056-.122-.067.005-.011.014.003.12.052.084-.083.087-.098.096-.09.009.009-.007.013-.093.105ZM8.604 19.562c.044.09.059.1.048.105-.01.006-.01-.01-.078-.134.127.065.142.063.136.074-.005.011-.016-.003-.106-.045ZM8.667 19.677l.063.119c-.087.083-.093.105-.103.096-.009-.009.008-.014.087-.099l-.058-.11c-.004-.007.007-.013.011-.006Z" fill="#F7F7F7"/><path d="m11.375 15.834.104.656.63-.587.04.033-.921 1.542-.134-.066.233-1.58.048.002Z" fill="#2D5A9B"/><path d="m11.933 16.176-.603.966-.053-.042.108-.459.548-.465Z" fill="#2D5A9B"/><path d="M11.092 16.5a.401.401 0 1 1 .625.502.401.401 0 0 1-.625-.503Zm.04.03a.35.35 0 1 0 .546.439.35.35 0 0 0-.546-.438Z" fill="#8E8796"/><path d="m19.28 16.468.093.585.56-.523.036.03-.82 1.372-.12-.06.208-1.405.043.001Z" fill="#662121"/><path d="m19.775 16.773-.537.86-.047-.038.096-.408.488-.415Z" fill="#662121"/><path d="M19.028 17.06a.357.357 0 1 1 .556.447.357.357 0 0 1-.556-.447Zm.035.028a.311.311 0 1 0 .486.39.311.311 0 0 0-.486-.39Z" fill="#8E8796"/><path d="m25.866 16.491.067.425.407-.38.027.021-.597.999-.086-.043.15-1.023.032.001Z" fill="#662121"/><path d="m26.227 16.712-.39.626-.034-.028.07-.297.354-.301Z" fill="#662121"/><path d="M25.684 16.92a.26.26 0 1 1 .404.327.26.26 0 0 1-.404-.326Zm.026.022a.227.227 0 1 0 .353.283.227.227 0 0 0-.353-.283Z" fill="#8E8796"/><path d="m14.997 16.55-.072.49-.475-.433-.03.024.7 1.146.1-.05-.186-1.18-.037.002Z" fill="#662121"/><path d="m14.582 16.81.458.717.039-.032-.084-.342-.413-.343Z" fill="#662121"/><path d="M15.17 17.464a.3.3 0 1 1-.379-.464.3.3 0 0 1 .38.464Zm-.355-.433a.261.261 0 1 0 .332.404.261.261 0 0 0-.332-.404Z" fill="#8E8796"/><path d="m33.123 15.147-.097.653-.63-.577-.04.033.93 1.523.132-.068-.247-1.566-.048.002Z" fill="#FFEA50"/><path d="m32.572 15.491.609.954.052-.042-.111-.455-.55-.457Z" fill="#FFEA50"/><path d="M33.355 16.364a.398.398 0 1 1-.504-.616.398.398 0 0 1 .504.616Zm-.472-.576a.348.348 0 1 0 .44.537.348.348 0 0 0-.44-.537Z" fill="#8E8796"/><path d="M28.458 22.426s-.496-.86-.714-1.676c-.219-.815-.861-2.613-.861-2.613l-.54 1.011 1.159 3.622s.981.147.956-.344ZM22.625 18.432s-.661 3.261-.72 4.051c0 0-.206.188-.124.262.083.075.544.42.782.156.239-.264.6-3.178.6-3.178l-.538-1.291Z" fill="#F4C082"/><path d="M25.762 17.427s-1.17.59-2.159.11l-.978.895.538 1.292-.319 3.814s2.774.745 4.535-.23l-.468-2.633-1.149-3.248Z" fill="#7D5226"/><path d="m25.762 17.427 1.119.71s-.462 1.363.03 2.538c.493 1.176.701 2.376.468 2.633 0 0-2.961-.952-4.535.23 0 0-.047-.012-.1-.05a.36.36 0 0 1-.085-.087c-.086-.114-.214-.748.128-2.556.34-1.809-.162-2.413-.162-2.413l.978-.896s.032.628 1.04.715c1.008.087 1.12-.824 1.12-.824Z" fill="#F4D982"/><path d="M24.85 18.331c.875-.044.982-.851.983-.86l-.069-.044a.988.988 0 0 1-1.113.748c-.924-.079-1.045-.616-1.046-.639l-.068.062c.002.029.04.637 1.101.729.075.006.146.007.212.004Z" fill="#7D5226"/><path d="M22.844 23.537c-.062-.022-.17-.087-.2-.153-.209-.546.188-2.546.226-2.86.045-.349.062-.703.03-1.053.002.351-.034.7-.089 1.045-.175 1.077-.561 2.86.033 3.021Z" fill="#D89857"/><path d="M27.38 23.309c-1.377-.448-3.378-.66-4.534.23 1.174-.832 3.158-.623 4.535-.23Z" fill="#7D5226"/><path d="M26.729 20.017c.062.633 1.044 2.763.651 3.292a.396.396 0 0 0 .09-.194c.206-.98-.59-2.41-.741-3.098Z" fill="#D89857"/><path opacity=".49" d="M26.123 18.797s.03 1.351.366 2.1c.336.749.37 1.66.37 1.66s-1.507-.27-2.258-.052c-.75.217-.752-3.317-.234-3.586.52-.268 1.936-1.077 1.756-.122Z" fill="#DB5E7D"/><path opacity=".54" d="M26.905 18.755s-.085.813.064 1.249c.148.436.834 1.697.851 2.043.018.346.074.112.294.132.22.02-.667-1.487-.686-1.855-.018-.368-.314-1.8-.523-1.57Z" fill="#F4C082"/><path d="m23.902 19.697.396-.277.385.29-.141-.461.395-.277-.482-.009-.142-.461-.157.456-.482-.008.385.29-.157.457Z" fill="#F7E8A1"/><path d="M23.982 19.577c.085-.062.096-.062.091-.07-.005-.007-.012.006-.072.046l.026-.076c.002-.006-.007-.009-.009-.003l-.036.103ZM24.379 19.41c.005-.008-.006-.008-.08-.066l-.08.056c-.005.004 0 .012.005.008l.075-.053c.069.05.075.062.08.055ZM24.607 19.588c-.032-.098-.03-.11-.038-.107-.009.002 0 .012.02.082l-.064-.048c-.005-.003-.01.004-.005.008l.087.065ZM24.517 19.313c.009-.003 0-.01-.023-.093l.075-.053c.005-.004 0-.011-.006-.008l-.08.057.028.094c.001.002.004.004.006.003ZM24.81 18.997c-.106 0-.114-.006-.115.003 0 .009.011.003.085.006-.059.043-.072.045-.067.053.002.002.01-.004.096-.062ZM24.423 18.99l-.027-.086c-.002-.006-.01-.003-.009.003l.029.093.098.002c.03-.013-.048-.01-.091-.011ZM24.338 18.731c.008-.002 0-.01-.029-.11-.032.1-.041.106-.033.11.009.002.006-.01.032-.08l.024.077c0 .003.004.004.006.003ZM24.19 18.995c.029-.088.038-.096.03-.1-.009-.002-.006.009-.036.09-.087 0-.096-.006-.096.003 0 .003.002.005.005.005l.098.002ZM23.89 19.044c.006-.007-.008-.01-.064-.055l.08.002c.005 0 .007-.01 0-.01l-.11-.002.088.066a.005.005 0 0 0 .007 0ZM24.118 19.21c-.074-.054-.08-.066-.086-.059-.005.007.006.008.075.062-.026.081-.036.09-.027.092.01.004.012-.029.038-.095Z" fill="#F7F7F7"/><path d="m23.115 18.683.275-.036.119.25.051-.272.275-.035-.243-.133.05-.272-.2.19-.244-.133.119.25-.202.19Z" fill="#D89857"/><path d="m23.123 19.948.275-.036.119.25.05-.272.276-.035-.244-.133.052-.273-.202.19-.243-.132.119.25-.202.19Z" fill="#F7E8A1"/><path d="M3.069 19.763c.37.41 2.084.119 2.276-.719.222-.97-1.009-1.487-.586-2.091.14-.2.33-.364.571-.35.188.075.331.117.373.13-.198-2.007-2.002-2.49-1.832-1.512.071.411.49.936 1.27 1.3-.17.048-.327.173-.467.372-.479.685.78 1.212.57 2.128-.172.752-1.78 1.024-2.098.673-.176-.194.18-.737.818-.72.168.003.245.05.254.08.026.083-.478.388-.575.239l-.087.056a.203.203 0 0 0 .136.081c.133.026.306-.04.515-.195.208-.154.136-.356-.24-.365-.743-.017-1.135.631-.898.893Zm2.51-3.199a.641.641 0 0 0-.224-.063c-.856-.348-1.31-.885-1.382-1.298-.137-.788 1.33-.32 1.606 1.361Z" fill="#EF8A25"/><path d="M5.377 16.632a.338.338 0 1 0 .677-.034.338.338 0 0 0-.677.034Z" fill="#463954"/><path d="M5.6 16.54c.005.097.094.172.198.166.105-.005.185-.088.18-.186-.005-.097-.093-.171-.198-.166-.104.005-.185.088-.18.186Z" fill="#E1DAE8"/><path d="M47.724 15.97c-.348.143-.343.357-.095.427.25.07.436.07.552 0a.203.203 0 0 0 .098-.125l-.102-.021c-.038.174-.617.068-.622-.019-.002-.03.053-.102.208-.165.591-.243 1.117.138 1.022.381-.172.442-1.772.76-2.2.12-.523-.783.466-1.723-.226-2.192-.202-.137-.393-.198-.57-.182.601-.618.805-1.257.725-1.667-.19-.974-1.704.12-1.174 2.066.035-.028.154-.118.302-.255.222-.1.457-.013.659.124.61.414-.356 1.335.198 2.163.477.714 2.182.376 2.382-.14.128-.328-.47-.795-1.157-.514Zm-1.312-3.423c.08.41-.153 1.074-.83 1.705a.645.645 0 0 0-.186.139c-.34-1.67.863-2.63 1.016-1.844Z" fill="#EF8A25"/><path d="M45.61 14.382a.339.339 0 1 1-.644.208.339.339 0 0 1 .644-.208Z" fill="#463954"/><path d="M45.369 14.373c.03.093-.027.195-.126.227-.1.032-.205-.017-.235-.11s.026-.194.126-.226.205.017.235.11Z" fill="#E1DAE8"/><path d="m23.453 16.45-.067.454-.438-.4-.028.022.646 1.058.092-.046-.171-1.089-.034.002Z" fill="#662121"/><path d="m23.072 16.691.423.663.036-.03-.077-.315-.382-.318Z" fill="#662121"/><path d="M23.613 17.297a.277.277 0 1 1-.35-.43.277.277 0 0 1 .35.43Zm-.328-.4a.241.241 0 1 0 .307.372.241.241 0 0 0-.307-.373Z" fill="#8E8796"/></svg>