<svg width="68" height="41" viewBox="0 0 68 41" fill="none" xmlns="http://www.w3.org/2000/svg">
<path d="M13.3533 10.8873C12.7407 9.23325 12.8712 6.96192 13.013 6.033C13.2399 5.55357 13.7617 4.93629 14.034 6.30269C14.3743 8.01069 14.7147 8.55004 15.2252 9.2692C15.6336 9.84452 16.9268 7.53124 17.5224 6.30269C17.8627 6.15286 18.3392 6.44651 17.5224 8.81973C16.7056 11.1929 15.8775 12.4455 15.5655 12.7751L13.3533 13.674C13.6086 13.4343 13.9659 12.5414 13.3533 10.8873Z" fill="#F0DCAD"/>
<path d="M19.9248 3.12609L19.7508 2.34473L10.1799 15.107L0 12.7629L0.0870077 13.4575L10.702 15.6279L19.9248 3.12609Z" fill="#98792B"/>
<path d="M19.5341 2.28989L9.29789 0L0 12.8586L10.0656 15.2366L19.5341 2.28989Z" fill="#C2A456"/>
<path d="M61.9519 37.0637C61.2148 36.285 59.4112 37.0277 58.6016 37.4963C60.1427 39.5728 61.7565 39.1546 62.3707 38.686C62.5382 38.4697 62.689 37.8424 61.9519 37.0637Z" fill="#BCD563" stroke="#BCD563" stroke-linecap="round" stroke-linejoin="bevel"/>
<path d="M9.59147 0.782227L1.17188 12.0686L9.85458 14.0654L18.3619 2.51859L9.59147 0.782227Z" fill="#E6D3A2"/>
<path d="M64.4236 34.7273C63.9142 34.7927 60.33 36.6072 58.6016 37.5063L61.7855 35.9534C63.5746 36.1986 67.0799 36.3947 66.7888 35.2177C66.4249 33.7465 65.0604 34.6456 64.4236 34.7273Z" fill="#BCD563" stroke="#BCD563" stroke-linecap="round" stroke-linejoin="bevel"/>
<path d="M64.8009 29.1967C64.2734 27.486 61.4492 29.4161 60.1031 30.5949L59.7734 31.2529C61.669 31.2803 65.3283 30.9075 64.8009 29.1967Z" fill="#BCD563" stroke="#BCD563" stroke-linecap="round" stroke-linejoin="bevel"/>
<path d="M59.4793 31.6454C59.0387 29.8696 58.4997 26.1525 59.868 25.4912C61.5784 24.6645 61.1119 29.3491 59.4793 31.6454Z" fill="#BCD563" stroke="#BCD563" stroke-linecap="round" stroke-linejoin="bevel"/>
<path d="M62.9279 27.1671C62.8511 27.2308 62.7682 27.2694 62.6769 27.2772C62.7468 27.2462 62.8314 27.2091 62.9279 27.1671C63.6891 26.536 63.8474 23.4414 65.5749 23.4414C67.4767 23.4414 66.9333 25.5724 65.5749 26.0838C64.6363 26.4372 63.54 26.9008 62.9279 27.1671Z" fill="#BCD563"/>
<path d="M58.6016 32.8178C59.6279 30.9993 61.8799 27.3454 62.6769 27.2772M62.6769 27.2772C63.6731 27.192 63.6731 23.4414 65.5749 23.4414C67.4767 23.4414 66.9333 25.5724 65.5749 26.0838C64.4882 26.493 63.1901 27.0499 62.6769 27.2772Z" stroke="#BCD563" stroke-linecap="round" stroke-linejoin="bevel"/>
<path d="M54.3047 11.9807C55.8801 12.2118 59.166 12.2977 59.7062 10.7921C60.3814 8.91022 55.848 9.80166 54.3047 11.9807Z" fill="#BCD563" stroke="#BCD563" stroke-linecap="round" stroke-linejoin="bevel"/>
<path d="M54.5612 12.1111C53.825 10.6662 52.6983 7.4988 54.4653 6.73585C56.2323 5.97291 55.2975 10.0304 54.5612 12.1111Z" fill="#BCD563" stroke="#BCD563" stroke-linecap="round" stroke-linejoin="bevel"/>
<path d="M57.9526 7.51337C58.0653 5.9492 58.9503 2.73232 61.5885 2.37816C64.8862 1.93547 58.2908 6.00822 57.9526 7.51337Z" fill="#BCD563"/>
<path d="M53.1328 14.0652C54.4575 11.9993 57.2761 7.79669 57.9526 7.51337M57.9526 7.51337C58.0653 5.9492 58.9503 2.73232 61.5885 2.37816C64.8862 1.93547 58.2908 6.00822 57.9526 7.51337Z" stroke="#BCD563" stroke-linecap="round" stroke-linejoin="bevel"/>
<path d="M56.3975 13.9778C55.5767 13.1944 53.879 14.1084 53.1328 14.6633C53.1639 15.055 53.2447 15.9363 53.3194 16.328C55.0917 16.8176 57.4236 14.9571 56.3975 13.9778Z" fill="#BCD563" stroke="#BCD563" stroke-linecap="round" stroke-linejoin="bevel"/>
<path d="M59.5043 23.0007C59.7447 22.7149 60.0451 22.0404 59.324 21.6289C58.603 21.2173 56.1995 21.8003 55.0879 22.1433C56.7463 23.1036 58.7232 23.1151 59.5043 23.0007Z" fill="#BCD563"/>
<path d="M55.0879 22.1433C55.0879 22.1433 55.0879 22.1433 55.0879 22.1433ZM55.0879 22.1433C56.1995 21.8003 58.603 21.2173 59.324 21.6289C60.0451 22.0404 59.7447 22.7149 59.5043 23.0007C58.7232 23.1151 56.7463 23.1036 55.0879 22.1433Z" stroke="#BCD563" stroke-linecap="round" stroke-linejoin="bevel"/>
<path d="M55.224 22.2692C55.0154 21.0127 54.833 18.3321 56.3976 17.997C57.9622 17.6619 56.3193 20.7334 55.224 22.2692Z" fill="#BCD563" stroke="#BCD563" stroke-linecap="round" stroke-linejoin="bevel"/>
<path d="M59.2166 19.7371C59.7054 18.5026 61.2524 16.2143 63.5296 16.9369C66.3762 17.8402 62.0632 20.1887 59.2166 19.7371Z" fill="#BCD563"/>
<path d="M53.5234 23.4404C55.2486 22.2361 58.8026 19.8093 59.2166 19.7371M59.2166 19.7371C59.7054 18.5026 61.2524 16.2143 63.5296 16.9369C66.3762 17.8402 62.0632 20.1887 59.2166 19.7371Z" stroke="#BCD563" stroke-linecap="round" stroke-linejoin="bevel"/>
<path d="M58.6029 23.5681L49.6172 23.0498V40.2398H58.6029V23.5681Z" fill="#B74B2D"/>
<path d="M49.6142 23.0498H30.0801V40.2398H49.6142V23.0498Z" fill="#D57C63"/>
<path d="M53.1303 3.94589L43.7539 3.51562L43.8441 23.0497L49.4338 22.7916L53.1303 23.0497V3.94589Z" fill="#C9A036"/>
<path d="M23.4414 3.125V18.5535V23.0498H43.7569V3.125H23.4414Z" fill="#E6D3A2"/>
<path d="M30.0814 18.7082L21.1821 18.3623L21.0957 40.2405H30.0814V18.7082Z" fill="#C9A036"/>
<path d="M59.6537 34.3011C58.7445 35.0551 58.5754 36.7515 58.6046 37.5055C61.4023 35.6206 61.5189 34.1441 61.2274 33.6414C61.0817 33.5472 60.563 33.5472 59.6537 34.3011Z" fill="#BCD563" stroke="#BCD563" stroke-linecap="round" stroke-linejoin="bevel"/>
<path d="M11.6731 11.752L6.67822 18.2715C6.26485 20.3577 9.54884 21.2849 11.2425 21.4877C12.4482 20.3287 15.1695 17.2458 16.4096 14.186C15.4451 11.8911 12.8501 11.6072 11.6731 11.752Z" fill="#D57C63"/>
<path d="M0.78125 18.3623H21.0967V40.2405H0.78125V18.3623Z" fill="#E6D3A2"/>
<path d="M9.37695 2.92969L15.8232 4.10173" stroke="#98792B" stroke-linecap="round" stroke-linejoin="bevel"/>
<path d="M8.59375 4.29688L15.04 5.46892" stroke="#98792B" stroke-linecap="round" stroke-linejoin="bevel"/>
<path d="M7.42383 5.85938L13.8701 7.03142" stroke="#98792B" stroke-linecap="round" stroke-linejoin="bevel"/>
</svg>
